<svg width="16" height="17" viewBox="0 0 16 17" fill="none" xmlns="http://www.w3.org/2000/svg">
<path fill-rule="evenodd" clip-rule="evenodd" d="M8 0.199951C3.57816 0.199951 0 3.77613 0 8.19996C0 9.8683 0.508772 11.4115 1.4125 12.7375C1.48064 12.8384 1.49905 12.965 1.4625 13.0812L0.65 15.8L3.3125 14.8812C3.42778 14.8428 3.55426 14.8589 3.65625 14.925C4.90336 15.7342 6.39631 16.2 8 16.2C12.4239 16.2 16 12.6239 16 8.19996C16 3.77601 12.4239 0.199951 8 0.199951ZM4.725 3.68745L6.18125 6.09371L5.575 6.69371C5.44813 6.82172 5.42253 7.01878 5.5125 7.17495C6.43766 8.77708 7.53384 10.0235 9.06875 10.7C9.21929 10.7668 9.39542 10.7346 9.5125 10.6187L10.1562 9.97496L12.5062 11.4437C12.246 12.0294 11.9068 12.378 11.5188 12.5812C11.0693 12.8166 10.5203 12.8611 9.89375 12.7312C8.64073 12.4714 7.12717 11.4866 5.89375 10.225C4.66033 8.96334 3.70583 7.42921 3.4625 6.18119C3.34084 5.55719 3.39458 5.01979 3.625 4.59371C3.8234 4.22685 4.1604 3.91277 4.725 3.68745Z" fill="white"/>
</svg>
