<svg width="40" height="39" viewBox="0 0 40 39" fill="none" xmlns="http://www.w3.org/2000/svg">
<path fill-rule="evenodd" clip-rule="evenodd" d="M22 39C31.9411 39 40 30.9411 40 21C40 11.0589 31.9411 3 22 3C12.0589 3 4 11.0589 4 21C4 30.9411 12.0589 39 22 39Z" fill="#3D79BD"/>
<path fill-rule="evenodd" clip-rule="evenodd" d="M19 37C28.9411 37 37 28.9411 37 19C37 9.05887 28.9411 1 19 1C9.05887 1 1 9.05887 1 19C1 28.9411 9.05887 37 19 37Z" fill="white" stroke="#3C6595"/>
<path fill-rule="evenodd" clip-rule="evenodd" d="M27.8239 14.4445C26.3101 13.142 24.4836 12.217 22.5065 11.7515C23.2473 11.2918 23.6154 10.443 23.4321 9.6168C23.2489 8.79057 22.5524 8.15778 21.6803 8.02533C20.8082 7.89287 19.9409 8.28815 19.4992 9.01945C19.0574 8.28815 18.1902 7.89287 17.3181 8.02533C16.446 8.15778 15.7494 8.79057 15.5662 9.6168C15.383 10.443 15.751 11.2918 16.4918 11.7515C11.43 12.964 7.6813 17.0465 7.0775 22.0041C6.99641 22.711 6.97891 23.4232 7.0252 24.133C7.10624 25.3314 7.37663 26.5112 7.82716 27.6321C7.83121 27.6475 7.83705 27.6624 7.8446 27.6765C7.85527 27.7021 7.86471 27.7276 7.87406 27.7528L7.87407 27.7529C7.88508 27.7826 7.89595 27.812 7.90852 27.8405C8.43984 29.062 9.68967 29.8556 11.0728 29.8499L27.7919 30H27.8268C29.2478 29.9991 30.5261 29.1733 31.0579 27.9128C33.0779 23.2219 31.7813 17.8223 27.8239 14.4445ZM21.3443 8.5581C21.9151 8.53447 22.4536 8.81233 22.7464 9.28168C23.0392 9.75102 23.0392 10.3362 22.7464 10.8055C22.4536 11.2749 21.9151 11.5527 21.3443 11.5291C21.2819 11.5269 21.2197 11.5204 21.1583 11.5097L21.0188 11.493C20.2437 11.3331 19.7193 10.6399 19.8029 9.88569C19.8866 9.13146 20.5513 8.55891 21.3443 8.5581ZM19.4992 11.0678C19.4237 11.1919 19.3351 11.3083 19.2348 11.4152H19.7636C19.6632 11.3083 19.5746 11.1919 19.4992 11.0678ZM17.6541 11.5319C16.8197 11.5391 16.1254 10.9204 16.0739 10.1238C16.0223 9.32724 16.6316 8.63142 17.4606 8.5402C18.2895 8.44899 19.0481 8.99428 19.1871 9.78125C19.326 10.5682 18.7967 11.3215 17.9824 11.4958H17.8894C17.812 11.5127 17.7333 11.5238 17.6541 11.5291V11.5319ZM27.7977 29.4497C28.9937 29.4602 30.0742 28.7686 30.5203 27.7071C32.4519 23.2344 31.2193 18.0826 27.4461 14.8587C25.7055 13.3639 23.5387 12.3992 21.2222 12.0877C21.116 12.0806 21.0102 12.0676 20.9055 12.0488C20.4445 11.9977 19.9807 11.9718 19.5166 11.971C19.0468 11.9694 18.5773 11.9926 18.1103 12.0405C18.0986 12.0425 18.0868 12.0446 18.0751 12.0467C17.9909 12.0616 17.9064 12.0766 17.8197 12.0766C12.4521 12.8117 8.27594 16.9135 7.64992 22.0652V22.1458H10.3899C10.5504 22.1458 10.6805 22.2703 10.6805 22.4238C10.6805 22.5773 10.5504 22.7017 10.3899 22.7017H7.59471V23.8579H11.7295C11.8899 23.8579 12.02 23.9823 12.02 24.1358C12.02 24.2893 11.8899 24.4137 11.7295 24.4137H7.63248C7.66827 24.8006 7.72452 25.1856 7.80101 25.5671H13.5164C13.6769 25.5671 13.807 25.6915 13.807 25.845C13.807 25.9985 13.6769 26.1229 13.5164 26.1229H7.93467C8.03666 26.5148 8.16181 26.9008 8.3095 27.2791H16.6952C16.8557 27.2791 16.9858 27.4035 16.9858 27.557C16.9858 27.7105 16.8557 27.835 16.6952 27.835H8.55939C9.04799 28.7342 10.019 29.2988 11.0786 29.2996L27.7977 29.4497Z" fill="#3D79BD"/>
<path fill-rule="evenodd" clip-rule="evenodd" d="M20.5566 21.9918C20.2697 21.7227 19.9169 21.562 19.5469 21.532L19.2879 21.4884V19.5946C19.6572 19.613 20.0093 19.7786 20.2834 20.0626L20.8085 19.4721C20.4182 19.0393 19.8999 18.7906 19.3568 18.7755V18H18.7344V18.7837C17.7603 18.8871 17.1829 19.6 17.1829 20.585C17.1625 21.0281 17.3086 21.4599 17.5845 21.7714C17.8734 22.049 18.2285 22.2206 18.6037 22.2639L18.8009 22.2912V24.2231C18.3297 24.2233 17.8781 24.0078 17.5464 23.6245L17 24.2422C17.4559 24.7751 18.083 25.0702 18.7344 25.0585V26H19.3568V25.0449C20.3381 24.9388 20.9985 24.2857 20.9985 23.249C21.0172 22.7764 20.856 22.3178 20.5566 21.9918ZM18.8009 21.4259C18.5763 21.4092 18.3616 21.3142 18.1855 21.1537C18.0395 21.0004 17.9633 20.7786 17.9788 20.5524C17.975 20.3011 18.0598 20.0586 18.2141 19.8799C18.3684 19.7011 18.5791 19.6012 18.7985 19.6027L18.8009 21.4259ZM19.2761 22.3619V24.2204L19.2879 24.2068C19.851 24.1469 20.186 23.815 20.1741 23.2789C20.187 23.0388 20.1091 22.8039 19.9603 22.634C19.763 22.4628 19.5235 22.3675 19.2761 22.3619Z" fill="#3D79BD"/>
</svg>
