<svg width="45" height="44" viewBox="0 0 45 44" fill="none" xmlns="http://www.w3.org/2000/svg">
<path fill-rule="evenodd" clip-rule="evenodd" d="M39.4342 9.60676L44.9881 26.0125C45.0019 26.0699 45.0037 26.1296 44.9934 26.1877V26.2355C44.9874 26.291 44.9714 26.345 44.9462 26.3947L44.7624 26.7609C43.5707 29.1312 41.1637 30.6241 38.5339 30.6241C35.9041 30.6241 33.4971 29.1312 32.3054 26.7609L32.1164 26.3947C32.0951 26.3439 32.0809 26.2903 32.0744 26.2355V26.1877C32.0728 26.1265 32.0817 26.0654 32.1006 26.0072L37.9171 8.81592C37.7884 8.71738 37.6674 8.60915 37.5549 8.49216C36.8777 7.77563 34.8776 6.10905 31.1032 6.10905C28.8052 6.07009 26.5698 6.86681 24.8039 8.35416V8.98046H25.3288C25.6187 8.98046 25.8538 9.21809 25.8538 9.51122C25.8538 9.80435 25.6187 10.042 25.3288 10.042H24.8039V11.544H25.3288C25.6187 11.544 25.8538 11.7817 25.8538 12.0748C25.8538 12.3679 25.6187 12.6055 25.3288 12.6055H24.8039V35.2584C27.1096 35.9752 28.6845 38.127 28.6885 40.566V40.704H30.9038C31.1937 40.704 31.4287 40.9416 31.4287 41.2347V42.9385H39.9486C40.2386 42.9385 40.4736 43.1761 40.4736 43.4692C40.4736 43.7624 40.2386 44 39.9486 44H0.524949C0.235028 44 0 43.7624 0 43.4692C0 43.1761 0.235028 42.9385 0.524949 42.9385H14.9663V41.2294C14.9663 40.9363 15.2013 40.6987 15.4913 40.6987H17.7118V40.5607C17.7132 39.5178 18.0062 38.4967 18.557 37.615C19.2559 36.4867 20.3328 35.6503 21.5912 35.2584V12.6002H21.04C20.75 12.6002 20.515 12.3626 20.515 12.0695C20.515 11.7764 20.75 11.5387 21.04 11.5387H21.5912V10.0367H21.04C20.75 10.0367 20.515 9.79904 20.515 9.50591C20.515 9.21278 20.75 8.97515 21.04 8.97515H21.5859V8.35947C19.793 6.87531 17.5405 6.07672 15.2235 6.10374C11.4544 6.10374 9.44909 7.77563 8.7614 8.49216C8.64651 8.60659 8.5256 8.71467 8.39919 8.81592L14.2629 26.0497C14.2731 26.1094 14.2731 26.1704 14.2629 26.2302V26.2779C14.2544 26.3329 14.2385 26.3865 14.2156 26.4372L14.0319 26.8034C12.8402 29.1736 10.4332 30.6666 7.80337 30.6666C5.17358 30.6666 2.76653 29.1736 1.57485 26.8034L1.36487 26.3947C1.34356 26.3439 1.32942 26.2903 1.32287 26.2355V26.1877C1.32126 26.1265 1.33014 26.0654 1.34912 26.0072L6.88733 9.60145C6.52609 9.7106 6.15145 9.76778 5.77444 9.77129H5.72195C4.69226 9.74021 3.72437 9.26732 3.06045 8.47093C2.92377 8.33156 2.87431 8.12731 2.93186 7.93986C2.98941 7.75241 3.14457 7.61238 3.33529 7.57577C3.526 7.53915 3.72113 7.61194 3.84263 7.76502C4.31219 8.33873 5.00167 8.68246 5.7377 8.70977C6.58974 8.69134 7.40346 8.34822 8.01597 7.7491C8.7929 6.93703 11.0239 5.04222 15.2235 5.04222C17.4961 5.01927 19.7201 5.70702 21.5912 7.01134V4.02316C20.77 3.24974 20.2661 2.19277 20.179 1.06152H19.4231C19.1332 1.06152 18.8982 0.823891 18.8982 0.53076C18.8982 0.237629 19.1332 0 19.4231 0H26.9771C27.2671 0 27.5021 0.237629 27.5021 0.53076C27.5021 0.823891 27.2671 1.06152 26.9771 1.06152H26.2212C26.1342 2.19277 25.6302 3.24974 24.8091 4.02316V6.99542C26.6577 5.69959 28.8592 5.01702 31.1085 5.04222C35.2818 5.04222 37.5391 6.94234 38.3213 7.7544C38.9312 8.35107 39.7407 8.69399 40.5891 8.71508C41.3266 8.68791 42.0178 8.3443 42.4894 7.77033C42.6109 7.61725 42.806 7.54446 42.9967 7.58107C43.1874 7.61768 43.3426 7.75772 43.4002 7.94517C43.4577 8.13261 43.4082 8.33687 43.2716 8.47624C42.6068 9.27154 41.6394 9.74419 40.6101 9.7766H40.5418C40.1666 9.77273 39.7937 9.71555 39.4342 9.60676ZM2.71924 26.7078C3.79269 28.5012 5.71698 29.5949 7.79025 29.5899C9.86406 29.597 11.7893 28.5028 12.8613 26.7078H2.71924ZM13.003 25.6463H2.5775L7.79025 10.2543L13.003 25.6463ZM30.3788 42.9438V41.7655H16.0162V42.9438H30.3788ZM27.6386 40.566V40.704H18.7564V40.566C18.7559 40.3886 18.7664 40.2113 18.7879 40.0352H23.8537C24.1436 40.0352 24.3786 39.7976 24.3786 39.5045C24.3786 39.2113 24.1436 38.9737 23.8537 38.9737H19.0452C19.1261 38.7572 19.2244 38.5477 19.3391 38.3474H21.4757C21.7656 38.3474 22.0006 38.1098 22.0006 37.8166C22.0006 37.5235 21.7656 37.2859 21.4757 37.2859H20.1686C21.4565 36.0581 23.3436 35.7232 24.9681 36.4342C26.5926 37.1452 27.6426 38.7656 27.6386 40.5554V40.566ZM23.754 35.0461V12.6055H22.6411V35.0461C23.0108 35.0036 23.3842 35.0036 23.754 35.0461ZM22.6411 11.544V10.042H23.754V11.544H22.6411ZM23.754 3.78963C23.7552 3.63362 23.8244 3.48609 23.9429 3.38625C24.6325 2.80258 25.071 1.97101 25.1661 1.06683H21.2289C21.324 1.97101 21.7625 2.80258 22.4521 3.38625C22.5706 3.48609 22.6398 3.63362 22.6411 3.78963V8.98046H23.754V3.78963ZM38.5418 29.5899C36.4688 29.5938 34.545 28.5004 33.4708 26.7078H43.6128C42.5408 28.5028 40.6156 29.597 38.5418 29.5899ZM38.5418 10.2543L33.3343 25.6463H43.7545L38.5418 10.2543Z" fill="#3D79BD"/>
</svg>
