<svg width="18" height="19" viewBox="0 0 18 19" fill="none" xmlns="http://www.w3.org/2000/svg">
<path d="M6.82852 9.2958C6.82852 9.76705 6.70285 10.2087 6.48108 10.5876C6.03386 11.3564 5.20223 11.8738 4.24864 11.8738C2.82379 11.8738 1.67061 10.7188 1.67061 9.2958C1.67061 7.87096 2.82564 6.71777 4.24864 6.71777C5.1893 6.71777 6.01168 7.22229 6.4626 7.97445C6.69546 8.35884 6.82852 8.81161 6.82852 9.2958Z" fill="white"/>
<path d="M6.0893 9.29576C6.0893 9.41403 6.08006 9.53231 6.06527 9.65058C6.07451 9.5859 6.08375 9.51937 6.09115 9.45469C6.05973 9.67276 6.00244 9.88529 5.91928 10.0886C5.9433 10.0294 5.96918 9.9703 5.9932 9.91116C5.90449 10.1218 5.78992 10.3196 5.64946 10.5007C5.68827 10.4508 5.72708 10.4009 5.76589 10.351C5.62913 10.5247 5.47205 10.6818 5.29833 10.8167C5.34823 10.7779 5.39813 10.7391 5.44803 10.7003C5.27061 10.8352 5.07842 10.9479 4.87328 11.0348C4.93242 11.0107 4.99156 10.9849 5.0507 10.9609C4.84002 11.0477 4.6201 11.1068 4.39279 11.1383C4.45747 11.129 4.524 11.1198 4.58868 11.1124C4.35768 11.142 4.12482 11.1401 3.89382 11.1087C3.9585 11.1179 4.02503 11.1272 4.08971 11.1346C3.86794 11.1032 3.65172 11.044 3.44474 10.9572C3.50388 10.9812 3.56302 11.0071 3.62215 11.0311C3.42072 10.9442 3.23037 10.8352 3.05665 10.7021C3.10655 10.7409 3.15644 10.7797 3.20634 10.8186C3.02708 10.6799 2.86815 10.521 2.72955 10.3418C2.76835 10.3917 2.80716 10.4415 2.84597 10.4914C2.71291 10.3159 2.60203 10.1274 2.51702 9.92594C2.54104 9.98508 2.56692 10.0442 2.59094 10.1034C2.50408 9.89637 2.44495 9.68015 2.41353 9.45839C2.42277 9.52307 2.43201 9.5896 2.4394 9.65428C2.40798 9.41588 2.40798 9.17564 2.4394 8.93724C2.43016 9.00192 2.42092 9.06845 2.41353 9.13313C2.44495 8.91136 2.50408 8.69514 2.59094 8.48816C2.56692 8.5473 2.54104 8.60644 2.51702 8.66557C2.60388 8.46414 2.71476 8.27379 2.84597 8.10007C2.80716 8.14997 2.76835 8.19987 2.72955 8.24976C2.86815 8.0705 3.02708 7.91157 3.20634 7.77297C3.15644 7.81177 3.10655 7.85058 3.05665 7.88939C3.23221 7.75633 3.42072 7.64545 3.62215 7.56044C3.56302 7.58446 3.50388 7.61034 3.44474 7.63436C3.65172 7.5475 3.86794 7.48837 4.08971 7.45695C4.02503 7.46619 3.9585 7.47543 3.89382 7.48282C4.12667 7.45141 4.35952 7.45141 4.59238 7.48097C4.5277 7.47173 4.46117 7.46249 4.39649 7.4551C4.6238 7.48652 4.84556 7.54566 5.05809 7.63436C4.99895 7.61034 4.93981 7.58446 4.88067 7.56044C5.08766 7.64915 5.27985 7.76188 5.45911 7.89863C5.40922 7.85982 5.35932 7.82102 5.30942 7.78221C5.48499 7.92081 5.64207 8.07789 5.77883 8.25531C5.74002 8.20541 5.70121 8.15551 5.6624 8.10561C5.79731 8.28303 5.90819 8.47522 5.99505 8.68036C5.97102 8.62122 5.94515 8.56208 5.92113 8.50295C6.00429 8.70808 6.06343 8.9206 6.09484 9.13867C6.0856 9.07399 6.07636 9.00746 6.06897 8.94278C6.08191 9.05736 6.0893 9.17564 6.0893 9.29576C6.09115 9.48611 6.17061 9.68385 6.30552 9.81876C6.43304 9.94627 6.64371 10.0442 6.82852 10.035C7.2277 10.0165 7.56959 9.70972 7.56774 9.29576C7.56589 8.91506 7.5049 8.52143 7.3663 8.16475C7.21476 7.77481 7.02072 7.44401 6.7546 7.1243C6.33139 6.61609 5.7123 6.24093 5.07287 6.082C4.44269 5.92492 3.73858 5.94155 3.13057 6.17625C2.84043 6.28713 2.56692 6.41835 2.31743 6.605C2.17328 6.71219 2.03098 6.82307 1.90347 6.95058C1.7741 7.07995 1.66137 7.22594 1.55049 7.37379C0.789094 8.39021 0.746588 9.84093 1.36568 10.935C1.66322 11.4617 2.12154 11.9163 2.65378 12.2046C3.21189 12.5058 3.86979 12.6629 4.50552 12.6019C4.70696 12.5816 4.91209 12.5539 5.10983 12.5021C5.29833 12.4522 5.47759 12.3765 5.65686 12.2988C5.95809 12.1676 6.2316 11.9717 6.47739 11.7555C6.99484 11.3009 7.37739 10.6374 7.50121 9.95921C7.54002 9.74114 7.56774 9.51937 7.56959 9.29761C7.57143 8.91136 7.2277 8.53991 6.83037 8.55839C6.42749 8.57502 6.09299 8.8818 6.0893 9.29576Z" fill="white"/>
<path d="M17.2515 3.33024C17.2515 4.75509 16.0965 5.91382 14.6735 5.91382H14.6716C13.7014 5.89534 12.855 5.37049 12.417 4.57768C12.2119 4.20807 12.0955 3.78117 12.0955 3.32839C12.0955 1.90355 13.2505 0.750366 14.6735 0.750366C16.0983 0.750366 17.2515 1.90725 17.2515 3.33024Z" fill="white"/>
<path d="M16.5123 3.32654C16.5123 3.44666 16.5031 3.56493 16.4883 3.68506C16.4975 3.62038 16.5068 3.55385 16.5141 3.48916C16.4827 3.71093 16.4236 3.92715 16.3367 4.13413C16.3608 4.075 16.3866 4.01586 16.4107 3.95672C16.3238 4.15816 16.2148 4.34851 16.0817 4.52222C16.1205 4.47233 16.1593 4.42243 16.1981 4.37253C16.0595 4.55179 15.9006 4.71073 15.7213 4.84933C15.7712 4.81052 15.8211 4.77171 15.871 4.7329C15.6955 4.86596 15.507 4.97684 15.3055 5.06185C15.3647 5.03783 15.4238 5.01196 15.4829 4.98793C15.276 5.07479 15.0597 5.13393 14.838 5.16535C14.9026 5.15611 14.9692 5.14686 15.0339 5.13947C14.801 5.17089 14.5681 5.17089 14.3353 5.14132C14.4 5.15056 14.4665 5.1598 14.5312 5.16719C14.3057 5.13578 14.0858 5.07664 13.8751 4.98978C13.9343 5.01381 13.9934 5.03968 14.0525 5.0637C13.8474 4.97684 13.6552 4.86411 13.4778 4.72921C13.5277 4.76801 13.5776 4.80682 13.6275 4.84563C13.4519 4.70888 13.2967 4.55364 13.1599 4.37992C13.1987 4.42982 13.2376 4.47972 13.2764 4.52962C13.1378 4.35036 13.025 4.15446 12.9345 3.94563C12.9585 4.00477 12.9844 4.06391 13.0084 4.12305C12.9234 3.91791 12.8661 3.70539 12.8328 3.48547C12.8421 3.55015 12.8513 3.61668 12.8587 3.68136C12.8273 3.44296 12.8273 3.20272 12.8587 2.96617C12.8495 3.03085 12.8402 3.09738 12.8328 3.16206C12.8642 2.94029 12.9234 2.72407 13.0102 2.51709C12.9862 2.57623 12.9603 2.63537 12.9363 2.6945C13.0232 2.49307 13.1341 2.30272 13.2653 2.129C13.2265 2.1789 13.1877 2.2288 13.1488 2.27869C13.2874 2.09943 13.4464 1.9405 13.6256 1.8019C13.5757 1.8407 13.5258 1.87951 13.476 1.91832C13.6515 1.78526 13.84 1.67438 14.0415 1.58937C13.9823 1.61339 13.9232 1.63927 13.864 1.66329C14.071 1.57643 14.2872 1.5173 14.509 1.48588C14.4443 1.49512 14.3778 1.50436 14.3131 1.51175C14.5515 1.48034 14.7918 1.48034 15.0302 1.51175C14.9655 1.50251 14.8989 1.49327 14.8343 1.48588C15.056 1.5173 15.2723 1.57643 15.4792 1.66329C15.4201 1.63927 15.361 1.61339 15.3018 1.58937C15.5033 1.67623 15.6936 1.78711 15.8673 1.91832C15.8174 1.87951 15.7675 1.8407 15.7176 1.8019C15.8969 1.9405 16.0558 2.09943 16.1944 2.27869C16.1556 2.2288 16.1168 2.1789 16.078 2.129C16.2111 2.30457 16.3219 2.49307 16.407 2.6945C16.3829 2.63537 16.3571 2.57623 16.333 2.51709C16.4199 2.72407 16.479 2.94029 16.5104 3.16206C16.5012 3.09738 16.492 3.03085 16.4846 2.96617C16.5049 3.08814 16.5123 3.20641 16.5123 3.32654C16.5141 3.51689 16.5936 3.71463 16.7285 3.84953C16.856 3.97705 17.0667 4.075 17.2515 4.06576C17.6507 4.04728 17.9926 3.7405 17.9907 3.32654C17.987 2.68342 17.8022 2.02366 17.4363 1.49142C17.2571 1.23085 17.0519 0.985058 16.8043 0.787317C16.6601 0.672738 16.5141 0.560007 16.3552 0.465756C16.1944 0.371506 16.0244 0.297584 15.8507 0.227358C15.2445 -0.0184328 14.5552 -0.0443055 13.9213 0.0961462C13.3041 0.231054 12.7109 0.574791 12.2784 1.03311C11.8478 1.48773 11.5244 2.07726 11.4191 2.6982C11.3877 2.88855 11.3599 3.08259 11.3562 3.27664C11.3525 3.50025 11.3803 3.72572 11.4172 3.94563C11.4801 4.32448 11.6279 4.70149 11.8256 5.02859C11.9994 5.31873 12.2211 5.59225 12.478 5.81216C12.7866 6.07643 13.1082 6.26678 13.4815 6.42017C14.1061 6.6752 14.8213 6.70477 15.4755 6.54769C16.0854 6.40169 16.6712 6.05795 17.0944 5.59594C17.5232 5.13023 17.841 4.53886 17.9371 3.90867C17.9667 3.71647 17.9907 3.52428 17.9926 3.32838C17.9944 2.94214 17.6507 2.57068 17.2534 2.58916C16.8505 2.6058 16.5141 2.91257 16.5123 3.32654Z" fill="white"/>
<path d="M17.2515 15.2612C17.2515 16.686 16.0965 17.8411 14.6735 17.8411C13.2486 17.8411 12.0955 16.6879 12.0955 15.2631C12.0955 14.7973 12.2193 14.3575 12.4337 13.9805C12.8772 13.2043 13.7125 12.6943 14.6716 12.6758H14.6735C16.0983 12.6776 17.2515 13.8364 17.2515 15.2612Z" fill="white"/>
<path d="M16.5123 15.2649C16.5123 15.385 16.5031 15.5033 16.4883 15.6234C16.4975 15.5588 16.5068 15.4922 16.5141 15.4275C16.4827 15.6493 16.4236 15.8655 16.3367 16.0725C16.3608 16.0134 16.3866 15.9542 16.4107 15.8951C16.3238 16.0965 16.2148 16.2869 16.0817 16.4606C16.1205 16.4107 16.1593 16.3608 16.1981 16.3109C16.0595 16.4902 15.9006 16.6491 15.7213 16.7877C15.7712 16.7489 15.8211 16.7101 15.871 16.6713C15.6955 16.8043 15.507 16.9152 15.3055 17.0002C15.3647 16.9762 15.4238 16.9503 15.4829 16.9263C15.276 17.0132 15.0597 17.0723 14.838 17.1037C14.9026 17.0945 14.9692 17.0852 15.0339 17.0779C14.7955 17.1093 14.5552 17.1093 14.3168 17.0779C14.3815 17.0871 14.448 17.0963 14.5127 17.1037C14.2909 17.0723 14.0747 17.0132 13.8677 16.9263C13.9269 16.9503 13.986 16.9762 14.0452 17.0002C13.8437 16.9134 13.6534 16.8043 13.4796 16.6713C13.5295 16.7101 13.5794 16.7489 13.6293 16.7877C13.4501 16.6491 13.2911 16.4902 13.1525 16.3109C13.1914 16.3608 13.2302 16.4107 13.269 16.4606C13.1359 16.285 13.025 16.0965 12.94 15.8951C12.964 15.9542 12.9899 16.0134 13.0139 16.0725C12.9271 15.8655 12.8679 15.6493 12.8365 15.4275C12.8458 15.4922 12.855 15.5588 12.8624 15.6234C12.831 15.385 12.831 15.1448 12.8624 14.9064C12.8532 14.9711 12.8439 15.0376 12.8365 15.1023C12.8679 14.8824 12.9271 14.668 13.0121 14.4629C12.9881 14.522 12.9622 14.5811 12.9382 14.6403C13.0287 14.4296 13.1433 14.2337 13.2819 14.0544C13.2431 14.1043 13.2043 14.1542 13.1655 14.2041C13.3022 14.0304 13.4593 13.8752 13.633 13.7403C13.5831 13.7791 13.5332 13.8179 13.4833 13.8567C13.6608 13.7218 13.853 13.6109 14.0562 13.5241C13.9971 13.5481 13.938 13.574 13.8788 13.598C14.0895 13.5111 14.3076 13.452 14.533 13.4224C14.4684 13.4317 14.4018 13.4409 14.3371 13.4483C14.57 13.4187 14.8029 13.4206 15.0339 13.4501C14.9692 13.4409 14.9026 13.4317 14.838 13.4243C15.0597 13.4557 15.276 13.5148 15.4829 13.6017C15.4238 13.5777 15.3647 13.5518 15.3055 13.5278C15.507 13.6146 15.6973 13.7255 15.871 13.8567C15.8211 13.8179 15.7712 13.7791 15.7213 13.7403C15.9006 13.8789 16.0595 14.0378 16.1981 14.2171C16.1593 14.1672 16.1205 14.1173 16.0817 14.0674C16.2148 14.2429 16.3256 14.4314 16.4107 14.6329C16.3866 14.5737 16.3608 14.5146 16.3367 14.4555C16.4236 14.6625 16.4827 14.8787 16.5141 15.1004C16.5049 15.0358 16.4957 14.9692 16.4883 14.9046C16.5049 15.0265 16.5123 15.1448 16.5123 15.2649C16.5141 15.4553 16.5936 15.653 16.7285 15.7879C16.856 15.9154 17.0667 16.0134 17.2515 16.0041C17.6507 15.9857 17.9926 15.6789 17.9907 15.2649C17.987 14.6218 17.8022 13.962 17.4363 13.4298C17.2571 13.1692 17.0519 12.9234 16.8043 12.7257C16.6601 12.6111 16.5141 12.4984 16.3552 12.4041C16.1944 12.3099 16.0244 12.236 15.8507 12.1657C15.2371 11.9163 14.5349 11.8904 13.8955 12.0382C13.2376 12.1898 12.5981 12.5742 12.1675 13.0935C11.8959 13.4206 11.7 13.7569 11.5484 14.1542C11.4098 14.5183 11.3488 14.9267 11.3562 15.3148C11.3692 15.9542 11.5632 16.614 11.9384 17.137C12.125 17.3976 12.3283 17.6341 12.5815 17.8319C12.7275 17.9464 12.8735 18.0573 13.0343 18.1479C13.1969 18.2384 13.3688 18.3124 13.5425 18.3789C14.1486 18.6154 14.8472 18.6339 15.4755 18.4824C16.0854 18.3364 16.6712 17.9926 17.0944 17.5306C17.5232 17.0649 17.841 16.4735 17.9371 15.8434C17.9667 15.6512 17.9907 15.459 17.9926 15.2631C17.9944 14.8768 17.6507 14.5054 17.2534 14.5239C16.8505 14.5442 16.5141 14.851 16.5123 15.2649Z" fill="white"/>
<path d="M14.6716 11.9477C13.4926 11.9551 12.3875 12.5926 11.7961 13.6146C12.1324 13.5259 12.4706 13.4372 12.807 13.3485C12.6111 13.2358 12.4133 13.1249 12.2174 13.0121C11.7425 12.7405 11.2675 12.4707 10.7926 12.199C10.2215 11.8719 9.64864 11.5448 9.0776 11.2195C8.58047 10.9349 8.08335 10.6522 7.58807 10.3676C7.34782 10.2308 7.10942 10.0867 6.86733 9.95548C6.86363 9.95363 6.85994 9.95178 6.85624 9.94993C6.94495 10.2863 7.03365 10.6245 7.12236 10.9608C7.71558 9.92591 7.71189 8.62673 7.10388 7.59921C7.01517 7.93556 6.92647 8.27375 6.83776 8.6101C7.03365 8.49737 7.2314 8.38648 7.42729 8.27375C7.90224 8.00209 8.37719 7.73227 8.85213 7.46061C9.42503 7.1335 9.99608 6.8064 10.569 6.48114C11.0661 6.19654 11.5632 5.91379 12.0585 5.62919C12.2987 5.49244 12.5427 5.35938 12.7792 5.21708C12.7829 5.21523 12.7866 5.21338 12.7903 5.21153C12.454 5.12283 12.1158 5.03412 11.7794 4.94541C12.3616 5.98587 13.4833 6.63453 14.6716 6.64377C15.0579 6.64562 15.4293 6.30188 15.4109 5.90455C15.3924 5.50168 15.0856 5.16718 14.6716 5.16533C14.5589 5.16533 14.4462 5.15794 14.3353 5.14316C14.4 5.1524 14.4665 5.16164 14.5312 5.16903C14.3057 5.13761 14.0858 5.07847 13.8751 4.99162C13.9343 5.01564 13.9934 5.04151 14.0525 5.06554C13.8474 4.97868 13.6552 4.86595 13.4778 4.73104C13.5277 4.76985 13.5776 4.80866 13.6275 4.84747C13.4519 4.71071 13.2967 4.55548 13.1599 4.38176C13.1987 4.43166 13.2376 4.48155 13.2764 4.53145C13.1951 4.42611 13.123 4.31523 13.0564 4.1988C12.8606 3.84767 12.3875 3.73864 12.0456 3.93268C11.8497 4.04541 11.6519 4.1563 11.456 4.26903C10.9811 4.54069 10.5061 4.81051 10.0312 5.08217C9.45829 5.40927 8.88725 5.73638 8.31435 6.06164C7.81723 6.34624 7.3201 6.62899 6.82482 6.91359C6.58458 7.05034 6.34064 7.1834 6.10409 7.3257C6.10039 7.32755 6.09669 7.3294 6.093 7.33125C5.74741 7.52899 5.62544 8.00024 5.82688 8.34213C5.88971 8.44932 5.94515 8.55835 5.9932 8.67293C5.96918 8.61379 5.9433 8.55465 5.91928 8.49552C6.00244 8.70065 6.06158 8.91318 6.093 9.13125C6.08376 9.06656 6.07452 9.00003 6.06712 8.93535C6.09854 9.1719 6.09854 9.4103 6.06712 9.64685C6.07636 9.58217 6.0856 9.51564 6.093 9.45096C6.06158 9.66903 6.00429 9.88155 5.92113 10.0848C5.94515 10.0257 5.97103 9.96656 5.99505 9.90743C5.9507 10.0109 5.9008 10.1126 5.84536 10.2105C5.64762 10.5542 5.76035 11.0218 6.11148 11.2214C6.30737 11.3341 6.50511 11.445 6.70101 11.5577C7.17595 11.8294 7.6509 12.0992 8.12585 12.3709C8.6969 12.698 9.26979 13.0251 9.84084 13.3503C10.338 13.6349 10.8351 13.9177 11.3304 14.2023C11.5706 14.339 11.809 14.4813 12.0511 14.6144C12.0548 14.6163 12.0585 14.6181 12.0622 14.62C12.4078 14.8177 12.8716 14.7031 13.0731 14.3538C13.1359 14.2466 13.2043 14.145 13.2801 14.0471C13.2413 14.097 13.2024 14.1469 13.1636 14.1967C13.3004 14.023 13.4575 13.8678 13.6312 13.7329C13.5813 13.7717 13.5314 13.8105 13.4815 13.8493C13.6589 13.7144 13.8511 13.6035 14.0544 13.5167C13.9953 13.5407 13.9361 13.5666 13.877 13.5906C14.0877 13.5037 14.3057 13.4446 14.5312 13.415C14.4665 13.4243 14.4 13.4335 14.3353 13.4409C14.4462 13.4261 14.5589 13.4187 14.6716 13.4187C14.862 13.4169 15.0597 13.3374 15.1946 13.2025C15.3222 13.075 15.4201 12.8643 15.4109 12.6795C15.3924 12.2877 15.0856 11.944 14.6716 11.9477Z" fill="white"/>
</svg>
