<svg width="40" height="38" viewBox="0 0 40 38" fill="none" xmlns="http://www.w3.org/2000/svg">
<path fill-rule="evenodd" clip-rule="evenodd" d="M22 38C31.9411 38 40 29.9411 40 20C40 10.0589 31.9411 2 22 2C12.0589 2 4 10.0589 4 20C4 29.9411 12.0589 38 22 38Z" fill="#3D79BD"/>
<path fill-rule="evenodd" clip-rule="evenodd" d="M19 37C28.9411 37 37 28.9411 37 19C37 9.05887 28.9411 1 19 1C9.05887 1 1 9.05887 1 19C1 28.9411 9.05887 37 19 37Z" fill="white" stroke="#3C6595"/>
<path fill-rule="evenodd" clip-rule="evenodd" d="M23.4276 19.5321C22.8108 19.5293 22.1956 19.5924 21.593 19.7202V15.4213C21.593 14.489 19.7999 14 18.0317 14C16.2635 14 14.4704 14.489 14.4704 15.4213V19.0754C14.222 19.1016 13.9838 19.1855 13.7758 19.3199C13.5246 19.156 13.229 19.0681 12.9263 19.0673H10.9533C10.8005 19.0673 10.6766 19.1876 10.6766 19.336C10.6766 20.161 11.3654 20.8299 12.2151 20.8299H12.276V21.5768L12.2539 21.6064L10.5659 24.4759L9.30963 26.5931C9.28342 26.6362 9.26162 26.6821 9.23994 26.7277C9.23187 26.7447 9.22381 26.7617 9.21555 26.7785C9.0461 27.1344 8.97459 27.5269 9.00801 27.9177C9.03857 28.2483 9.14342 28.5684 9.31517 28.8554C9.72711 29.5662 10.5035 30.0043 11.3435 30H16.3963C17.234 30.0029 18.0094 29.5705 18.4289 28.8664C18.8483 28.1622 18.8478 27.294 18.4274 26.5904L17.874 25.6285H18.0427C18.6598 25.6309 19.2752 25.566 19.8774 25.4351V26.2411C19.8774 27.1734 21.6677 27.6624 23.4387 27.6624C25.2097 27.6624 27 27.1734 27 26.2411V20.9508C26.9889 20.0185 25.1986 19.5321 23.4276 19.5321ZM26.4355 24.5054C26.4355 24.8655 25.265 25.3894 23.4276 25.3894C21.5902 25.3894 20.4197 24.852 20.4197 24.5054V23.5221C21.0866 23.9358 22.2599 24.1481 23.4276 24.1481C24.5953 24.1481 25.7686 23.9358 26.4355 23.5221V24.5054ZM18.0317 22.1088C17.1908 22.1248 16.3535 21.9975 15.5578 21.7326L16.4129 23.1916C17.5544 23.4146 18.7319 23.3981 19.8663 23.1432V21.91C19.2628 22.0337 18.6484 22.1002 18.0317 22.1088ZM14.902 20.8326V21.4693H12.8294V20.8326H14.902ZM16.2856 19.6047H14.6253C14.1878 19.6052 13.8027 19.8851 13.679 20.2925H15.3392C15.7765 20.2911 16.161 20.0116 16.2856 19.6047ZM21.0313 17.1866C21.0313 17.5466 19.858 18.0705 18.0234 18.0705C16.1888 18.0705 15.0155 17.5466 15.0155 17.1866V16.2005C15.6796 16.6143 16.8529 16.8265 18.0234 16.8265C19.1939 16.8265 20.3644 16.6143 21.0313 16.2005V17.1866ZM21.0396 17.9765C20.3727 18.3903 19.1994 18.6052 18.0317 18.6052C16.8612 18.6052 15.6879 18.3822 15.0238 17.9765V19.0673H16.6066C16.7594 19.0673 16.8833 19.1876 16.8833 19.336C16.8835 19.4798 16.8621 19.6228 16.8197 19.7605C17.2211 19.8162 17.6261 19.8441 18.0317 19.8438C19.8663 19.8438 21.0396 19.3199 21.0396 18.9599V17.9765ZM26.4355 22.7295C26.4355 23.0895 25.265 23.6107 23.4276 23.6107C21.5902 23.6107 20.4197 23.0895 20.4197 22.7295V21.7461C21.0866 22.1572 22.2599 22.3721 23.4276 22.3721C24.5953 22.3721 25.7686 22.1572 26.4355 21.7461V22.7295ZM23.4276 21.8347C25.265 21.8347 26.4355 21.3108 26.4355 20.9508C26.4355 20.5908 25.265 20.0695 23.4276 20.0695C22.757 20.0608 22.0884 20.1421 21.4408 20.3113C21.4188 20.3214 21.3956 20.3286 21.3716 20.3328C20.7656 20.5155 20.4197 20.7573 20.4197 20.9508C20.4197 21.2974 21.5902 21.8347 23.4276 21.8347ZM19.8663 20.9508V21.3619C19.2637 21.4924 18.649 21.5626 18.0317 21.5714C16.9857 21.5714 16.0172 21.3914 15.4499 21.0986V20.8299C15.8869 20.8032 16.2915 20.597 16.5623 20.263C17.0513 20.3441 17.5466 20.3846 18.0427 20.3839C19.2105 20.3839 20.3838 20.1689 21.0506 19.7578V19.8761C20.3395 20.1125 19.8663 20.4725 19.8663 20.9508ZM21.0396 15.4079C21.0396 15.0613 19.8663 14.5239 18.0317 14.5239C16.1943 14.5239 15.0238 15.0479 15.0238 15.4079C15.0238 15.7679 16.1971 16.2892 18.0317 16.2892C19.8663 16.2892 21.0396 15.7545 21.0396 15.4079ZM11.2688 19.6047H12.9291C13.0833 19.6059 13.2351 19.6427 13.3718 19.7122C13.2465 19.8868 13.1616 20.0857 13.1228 20.2952H12.2151C11.7769 20.2944 11.3915 20.0132 11.2688 19.6047ZM16.388 29.4922C17.0313 29.4973 17.6272 29.1643 17.9459 28.6216C18.2681 28.0854 18.2681 27.4222 17.9459 26.886L15.0625 22.0013H12.6357L11.028 24.7392L9.92117 26.62H10.8399C10.9927 26.62 11.1166 26.7403 11.1166 26.8886C11.1166 27.037 10.9927 27.1573 10.8399 27.1573H9.64446C9.58635 27.321 9.55371 27.4921 9.54761 27.6651H11.5289C11.6817 27.6651 11.8056 27.7854 11.8056 27.9338C11.8056 28.0822 11.6817 28.2025 11.5289 28.2025H9.62232C9.6636 28.3474 9.72406 28.4865 9.80218 28.6163C9.81552 28.6403 9.83017 28.6605 9.84523 28.6813C9.85204 28.6907 9.85893 28.7003 9.86583 28.7103H12.1349C12.2877 28.7103 12.4116 28.8306 12.4116 28.979C12.4116 29.1274 12.2877 29.2477 12.1349 29.2477H10.422C10.6988 29.4085 11.0154 29.493 11.338 29.4922H16.388ZM17.5419 25.0992L16.7699 23.7881C17.188 23.8446 17.6095 23.8734 18.0317 23.874C18.6484 23.8754 19.2635 23.8124 19.8663 23.686V24.9085C19.105 25.0806 18.3221 25.1448 17.5419 25.0992ZM20.4197 26.2707C20.4197 26.6173 21.5902 27.1546 23.4276 27.1546V27.1654C25.265 27.1654 26.4355 26.6415 26.4355 26.2814V25.3007C25.7686 25.7118 24.5953 25.9268 23.4276 25.9268C22.2599 25.9268 21.0866 25.7118 20.4197 25.3007V26.2707Z" fill="#3D79BD"/>
<path d="M17.5 10C17.7761 10 18 9.88491 18 9.74293V7.25707C18 7.11509 17.7761 7 17.5 7C17.2239 7 17 7.11509 17 7.25707V9.7455C17.0027 9.88647 17.2258 10 17.5 10Z" fill="#3D79BD"/>
<path d="M11.619 10.9334C11.6605 10.9758 11.7173 10.9997 11.7766 11C11.8669 11.0005 11.9484 10.9464 11.983 10.8631C12.0176 10.7798 11.9984 10.6838 11.9343 10.6202L10.3799 9.06569C10.3382 9.02365 10.2814 9 10.2222 9C10.163 9 10.1063 9.02365 10.0646 9.06569C9.97848 9.15231 9.97848 9.2922 10.0646 9.37882L11.619 10.9334Z" fill="#3D79BD"/>
<path d="M11 16.5C11 16.2239 10.8849 16 10.7429 16H8.25707C8.11509 16 8 16.2239 8 16.5C8 16.7761 8.11509 17 8.25707 17H10.7429C10.8849 17 11 16.7761 11 16.5Z" fill="#3D79BD"/>
<path d="M27.9354 14.0657C27.8937 14.0236 27.837 14 27.7778 14C27.7185 14 27.6618 14.0236 27.6201 14.0657L26.0657 15.6202C26.0236 15.6619 26 15.7187 26 15.7779C26 15.8371 26.0236 15.8939 26.0657 15.9356C26.1076 15.9772 26.1643 16.0003 26.2233 16C26.2816 15.9998 26.3374 15.9766 26.3788 15.9356L27.9332 14.381C27.9755 14.3396 27.9996 14.283 28 14.2238C28.0004 14.1646 27.9772 14.1077 27.9354 14.0657Z" fill="#3D79BD"/>
<path d="M31.7326 21H29.2571C29.1151 21 29 21.2239 29 21.5C29 21.7761 29.1151 22 29.2571 22H31.7429C31.8849 22 32 21.7761 32 21.5C32 21.2239 31.8849 21 31.7429 21H31.7326Z" fill="#3D79BD"/>
<path fill-rule="evenodd" clip-rule="evenodd" d="M13.2726 25.7562L13.1427 25.7342V24.7918C13.3276 24.8005 13.5038 24.883 13.6407 25.0247L13.9029 24.7315C13.7094 24.5163 13.4517 24.392 13.1812 24.3836V24H12.8661V24.389C12.6583 24.3883 12.459 24.4828 12.3133 24.6514C12.1675 24.82 12.0875 25.0484 12.0914 25.2849C12.0784 25.5093 12.1512 25.729 12.2911 25.8877C12.4362 26.025 12.6136 26.1108 12.8011 26.1342H12.8997V27.0959C12.6648 27.0968 12.4395 26.9902 12.2743 26.8L12 27.1096C12.2248 27.3809 12.5385 27.5337 12.8661 27.5315V28H13.1764V27.5068C13.6575 27.4548 13.9992 27.1315 13.9992 26.6164C14.0092 26.379 13.9285 26.1481 13.7778 25.9836C13.634 25.8503 13.4576 25.7709 13.2726 25.7562ZM12.8997 25.7041C12.787 25.6923 12.6798 25.6428 12.5918 25.5616C12.5253 25.4907 12.4878 25.3914 12.4884 25.2877C12.4817 25.1587 12.5221 25.0324 12.6 24.9385C12.6779 24.8447 12.7863 24.7916 12.8997 24.7918V25.7041ZM13.1403 26.1753V27.0932H13.1427C13.4242 27.063 13.5902 26.8986 13.5878 26.6301C13.5945 26.5109 13.5559 26.3942 13.4819 26.3096C13.3837 26.2242 13.2639 26.1771 13.1403 26.1753Z" fill="#3D79BD"/>
</svg>
