<svg width="84" height="84" viewBox="0 0 84 84" fill="none" xmlns="http://www.w3.org/2000/svg">
<path fill-rule="evenodd" clip-rule="evenodd" d="M42 83C64.6437 83 83 64.6437 83 42C83 19.3563 64.6437 1 42 1C19.3563 1 1 19.3563 1 42C1 64.6437 19.3563 83 42 83Z" fill="#D65E5B" fill-opacity="0.0618773" stroke="url(#paint0_linear)" stroke-width="2"/>
<path fill-rule="evenodd" clip-rule="evenodd" d="M58.4237 16H25.5763C25.2576 16 25 16.2583 25 16.5778V67.4222C25 67.7417 25.2576 68 25.5763 68H58.4237C58.7424 68 59 67.7417 59 67.4222V16.5778C59 16.2583 58.7424 16 58.4237 16ZM58 64H40V17H58V64ZM39 64V17H26V64H39ZM58 67H26V65H58V67ZM36.5 49.8649H37V51H35V49.8649H35.5V31.1351H35V30H37V31.1351H36.5V49.8649ZM41 49.8649V51H43V49.8649H42.5V31.1351H43V30H41V31.1351H41.5V49.8649H41ZM33.4545 45H28.5455C28.2438 45 28 44.7446 28 44.4286V37.5714C28 37.2554 28.2438 37 28.5455 37H33.4545C33.7562 37 34 37.2554 34 37.5714V44.4286C34 44.7446 33.7562 45 33.4545 45ZM29 44V41H33V44H29ZM33 40V39H29V40H33Z" fill="#D65E5B"/>
<defs>
<linearGradient id="paint0_linear" x1="83" y1="83" x2="83" y2="1" gradientUnits="userSpaceOnUse">
<stop stop-color="#D65E5B"/>
<stop offset="1" stop-color="#EECFCE"/>
</linearGradient>
</defs>
</svg>
