<svg width="16" height="16" viewBox="0 0 16 16" fill="none" xmlns="http://www.w3.org/2000/svg">
<mask id="mask0" mask-type="alpha" maskUnits="userSpaceOnUse" x="0" y="0" width="16" height="16">
<path fill-rule="evenodd" clip-rule="evenodd" d="M0 0H15.151V15.1588H0V0Z" fill="white"/>
</mask>
<g mask="url(#mask0)">
<path fill-rule="evenodd" clip-rule="evenodd" d="M2.38879 0.0138084C2.28401 -0.00721362 2.15829 -0.00721361 2.07447 0.0348304C0.94291 0.476293 0.230449 2.09499 0.0628109 3.20916C-0.461058 6.82494 2.38879 9.95723 5.00813 12.0176C7.33411 13.8463 11.7975 16.8527 14.4378 13.9514C14.773 13.5942 15.1712 13.0687 15.1502 12.5431C15.0874 11.66 14.2701 11.0293 13.6415 10.5458C13.1595 10.1885 12.1537 9.20043 11.5251 9.22146C10.9593 9.24248 10.603 9.83109 10.2468 10.1885L9.61817 10.8191C9.5134 10.9242 8.1723 10.0413 8.02561 9.9362C7.48079 9.57883 6.95692 9.17941 6.49592 8.73795C6.03491 8.29649 5.61582 7.81298 5.25959 7.30845C5.15481 7.1613 4.29567 5.87895 4.37949 5.77384C4.37949 5.77384 5.1129 4.97501 5.32245 4.65968C5.7625 3.98697 6.09778 3.46142 5.59486 2.66258C5.40627 2.36828 5.17577 2.13703 4.92431 1.88477C4.48426 1.46433 4.04421 1.02287 3.5413 0.665491C3.26889 0.455271 2.80788 0.0768745 2.38879 0.0138084Z" fill="#3D79BD"/>
</g>
</svg>
