<svg width="39" height="54" viewBox="0 0 39 54" fill="none" xmlns="http://www.w3.org/2000/svg">
<path fill-rule="evenodd" clip-rule="evenodd" d="M17.2697 0.11528C7.92188 0.121348 0.0792236 8.28202 0.0792236 17.9413V18.1598C0.0834481 18.2604 0.112767 18.3584 0.164536 18.4449L13.778 41.9683L12.2241 44.5894L10.2923 47.9326C9.61221 49.103 9.60947 50.5455 10.2852 51.7184C10.9608 52.8914 12.2127 53.6174 13.5708 53.6238H21.3281C22.681 53.6274 23.9325 52.9105 24.6094 51.7442C25.2862 50.5779 25.2852 49.1403 24.6066 47.9751L22.6688 44.5894L21.1088 41.9683L34.3261 18.4328V18.3903V18.3479C34.353 18.2802 34.3674 18.2083 34.3688 18.1355C34.4053 8.36697 26.5566 0.11528 17.2697 0.11528ZM17.2697 1.32876C19.305 1.32876 21.5353 6.94719 22.0472 14.8894C20.7856 13.6015 19.0553 12.8751 17.2484 12.8751C15.4415 12.8751 13.7111 13.6015 12.4495 14.8894C12.9248 6.96539 15.2344 1.33483 17.2636 1.32876H17.2697ZM18.8602 38.522H16.0509L16.0448 39.7658H18.8602V38.522ZM15.4416 37.3085H14.9236C14.43 37.3085 13.9181 36.6533 13.7048 35.9798H16.0205C16.2326 35.9831 16.4411 36.035 16.6298 36.1315C16.4111 36.4956 16.2546 36.8934 16.1667 37.3085H15.4416ZM18.6347 35.9798C18.1472 35.9798 17.6353 36.6411 17.4159 37.3085H19.7316C20.2191 37.3085 20.7309 36.6533 20.9503 35.9798H18.6347ZM18.6347 34.7663C18.1913 34.7745 17.7629 34.9281 17.4159 35.2031C16.9951 34.9238 16.5019 34.7721 15.9961 34.7663H15.3867L12.3459 18.1112C12.3825 15.9027 14.5763 14.1128 17.2636 14.1128C19.9509 14.1128 22.1386 15.8966 22.1386 18.093L19.0003 34.7663H18.6347ZM11.2186 15.1139C11.5416 8.45191 13.0467 3.73146 14.8748 1.52292C8.34844 2.59685 2.98594 7.95438 1.64532 14.6467C2.89248 13.5027 4.53219 12.8774 6.22782 12.8993C8.13784 12.8695 9.96388 13.6798 11.2186 15.1139ZM1.29797 18.002C1.32363 17.1102 1.69744 16.2636 2.34 15.6418C3.37344 14.6349 4.77002 14.0839 6.21563 14.1128C8.92126 14.1128 11.1272 15.933 11.1272 18.1658C11.1242 18.2022 11.1242 18.2387 11.1272 18.2751L14.1741 34.7663H12.9553C12.6188 34.7663 12.3459 35.0379 12.3459 35.373C12.3459 36.7746 13.4367 38.4492 14.7834 38.516V40.2088L14.4483 40.773L1.29797 18.002ZM23.5645 48.5757L21.6267 45.1901L19.1161 40.9551H15.7828L13.2783 45.2022L11.3466 48.5333C10.8778 49.3316 10.8778 50.3196 11.3466 51.118C11.7982 51.9172 12.6497 52.4097 13.5708 52.4043H21.3281C22.248 52.4127 23.1016 51.929 23.564 51.1373C24.0265 50.3455 24.0267 49.3676 23.5645 48.5757ZM33.2048 17.9838L20.408 40.7609L20.0789 40.2088V38.4856C21.2977 38.2308 22.2788 36.6654 22.2788 35.373C22.2788 35.0379 22.0059 34.7663 21.6694 34.7663H20.2373L23.3513 18.2508C23.3543 18.2124 23.3543 18.1739 23.3513 18.1355C23.3513 15.9027 25.5572 14.0825 28.2689 14.0825C30.9806 14.0825 33.0769 15.8178 33.1805 17.9838H33.2048ZM23.2781 15.0897C24.5321 13.6502 26.3615 12.8372 28.275 12.869C29.9563 12.8495 31.5812 13.4728 32.8148 14.6103C31.4011 7.92404 26.0813 2.59079 19.6219 1.52292C21.45 3.72539 22.9247 8.41551 23.2781 15.0897Z" fill="#3D79BD"/>
<path d="M33.6436 8.57932C33.5134 8.67496 33.4267 8.81826 33.4027 8.97761C33.3787 9.13696 33.4193 9.29928 33.5156 9.42876C34.7517 11.2744 35.4266 13.4359 35.4595 15.6539C35.4595 15.989 35.7324 16.2607 36.0689 16.2607C36.4055 16.2607 36.6783 15.989 36.6783 15.6539C36.6427 13.1804 35.8846 10.7707 34.4967 8.71887C34.4025 8.58729 34.2595 8.49857 34.0993 8.47237C33.9392 8.44617 33.7752 8.48467 33.6436 8.57932Z" fill="#3D79BD"/>
<path d="M37.3425 9.41663C37.2716 9.2716 37.1457 9.16064 36.9924 9.10827C36.8392 9.0559 36.6714 9.06643 36.526 9.13753C36.2237 9.28224 36.0958 9.64286 36.2395 9.9445C36.7927 11.0793 37.155 12.2969 37.312 13.5485C37.3492 13.8549 37.6115 14.0847 37.9214 14.0825H37.9945C38.1556 14.0628 38.302 13.98 38.4015 13.8525C38.5011 13.7249 38.5454 13.5631 38.5247 13.4029C38.3508 12.019 37.9515 10.6726 37.3425 9.41663Z" fill="#3D79BD"/>
<path d="M35.4047 8.49438C35.5194 8.66338 35.7117 8.76368 35.9166 8.76135C36.0364 8.76271 36.1536 8.72664 36.2517 8.6582C36.5298 8.47303 36.6059 8.09932 36.4223 7.8209C36.1751 7.44323 35.9001 7.08427 35.5997 6.74696C35.3622 6.58222 35.0412 6.60648 34.8314 6.80503C34.6217 7.00358 34.5811 7.32163 34.7344 7.56607C34.9772 7.86114 35.2011 8.1712 35.4047 8.49438Z" fill="#3D79BD"/>
</svg>
