<svg width="84" height="84" viewBox="0 0 84 84" fill="none" xmlns="http://www.w3.org/2000/svg">
<path fill-rule="evenodd" clip-rule="evenodd" d="M42 83C64.6437 83 83 64.6437 83 42C83 19.3563 64.6437 1 42 1C19.3563 1 1 19.3563 1 42C1 64.6437 19.3563 83 42 83Z" fill="#D4E896" fill-opacity="0.282637" stroke="url(#paint0_linear)" stroke-width="2"/>
<path fill-rule="evenodd" clip-rule="evenodd" d="M47.5854 20.2121L73.1262 27.4877L74 27.7365V35.8526L66.5461 43.5854L66.4789 43.5181V52.4344L64.2273 50.7197L60.9204 58.9232V49.422L53.9639 56.6236L53.4934 57.1144L52.6196 56.8522L49.5547 55.931L42.2487 63.5091L41.7782 64L40.9045 63.7378L12.991 55.3258C12.618 55.2156 12.2627 55.0525 11.9358 54.8417C10.7248 54.078 9.99302 52.7436 10.0001 51.3115C10.0019 51.0106 10.0357 50.7108 10.1009 50.4172L10.5378 49.2471C10.8821 48.6487 11.3693 48.1451 11.9559 47.7813L30.4999 28.5165C31.8839 27.0715 33.9553 26.5145 35.8769 27.0708L36.744 27.3196L42.2084 21.6578C43.5924 20.2128 45.6638 19.6559 47.5854 20.2121ZM47.2292 21.5301C45.7883 21.1124 44.2348 21.5295 43.1964 22.6127L26.1647 40.2704H26.2185H26.3663L26.6554 40.3107L26.9309 40.3779L27.1057 40.4183L28.9272 40.9697L48.1298 21.7856L47.2292 21.5301ZM31.4745 29.4713C32.5129 28.3882 34.0664 27.9711 35.5073 28.3887L35.6888 28.4425L23.6711 40.8957C23.087 41.2604 22.6021 41.764 22.2597 42.3616L21.8362 43.5316C21.7892 43.753 21.76 43.9779 21.7488 44.204L17.8774 48.0704L15.3838 47.3039H15.2964L14.9267 47.2164L14.6781 47.1828H14.4966H14.4428L31.4745 29.4713ZM13.4615 54.0617L40.8843 62.3324L40.9045 56.4017L14.9738 48.6083C14.8 48.5598 14.6223 48.526 14.4428 48.5075H14.3554C14.2056 48.4951 14.055 48.4951 13.9051 48.5075H13.7707C13.6274 48.5252 13.4858 48.5544 13.3472 48.5949L13.1792 48.6554C13.0473 48.7067 12.9193 48.7674 12.7961 48.837H12.7491C11.8576 49.3531 11.3189 50.315 11.3443 51.3451C11.3535 52.3206 11.8606 53.2236 12.6886 53.7389C12.8965 53.8772 13.1227 53.9858 13.3607 54.0617H13.4615ZM41.5564 54.9358L41.3548 55.1442L19.3225 48.494L21.9706 45.8447C22.2817 46.7152 22.8727 47.4578 23.651 47.9561C23.9775 48.1676 24.3329 48.3306 24.7062 48.4402L42.6251 53.8196L41.5564 54.9358ZM42.2285 56.2067V61.586L48.0895 55.5275L44.0567 54.3105L42.2285 56.2067ZM52.6196 55.4468L25.1968 47.1761H25.096C24.8581 47.1003 24.6319 46.9916 24.4239 46.8533C23.596 46.338 23.0889 45.435 23.0796 44.4595C23.0762 43.4509 23.612 42.5174 24.4844 42.0119H24.518C24.6475 41.9391 24.7823 41.8762 24.9213 41.8236L25.0759 41.7699C25.2184 41.7241 25.3646 41.6904 25.5127 41.669H25.6068C25.7589 41.6564 25.9118 41.6564 26.0639 41.669H26.1916C26.3689 41.6877 26.5443 41.7214 26.7159 41.7699L52.6196 49.5094V55.4468ZM30.3857 41.4404L53.0968 48.252L72.0643 28.5837L49.6018 22.1823L30.3857 41.4404ZM65.1346 49.7111L63.6425 48.5815L62.2647 51.9906V44.8025L65.1346 41.8304V49.7111ZM66.4789 41.7161L72.6625 35.3079L72.6557 29.9084L53.9639 49.3144V54.6937L60.8532 47.5459L60.9204 47.6132V44.2511L66.4789 38.4885V41.7161Z" fill="#76804D"/>
<rect x="48.5162" y="39.3836" width="1" height="8" transform="rotate(-74.08 48.5162 39.3836)" fill="#76804D"/>
<rect x="38.6309" y="40.5632" width="1" height="14" transform="rotate(-74.1 38.6309 40.5632)" fill="#76804D"/>
<defs>
<linearGradient id="paint0_linear" x1="1" y1="83" x2="83" y2="83" gradientUnits="userSpaceOnUse">
<stop stop-color="#95A653"/>
<stop offset="1" stop-color="#CEE195"/>
</linearGradient>
</defs>
</svg>
