<svg width="84" height="84" viewBox="0 0 84 84" fill="none" xmlns="http://www.w3.org/2000/svg">
<path fill-rule="evenodd" clip-rule="evenodd" d="M42 83C64.6437 83 83 64.6437 83 42C83 19.3563 64.6437 1 42 1C19.3563 1 1 19.3563 1 42C1 64.6437 19.3563 83 42 83Z" fill="#D4E896" fill-opacity="0.282637" stroke="url(#paint0_linear)" stroke-width="2"/>
<path fill-rule="evenodd" clip-rule="evenodd" d="M64.9807 48.7436V39.7051V30.0513C64.9807 29.6972 64.6937 29.4102 64.3397 29.4102H59.9487V16.1795C59.9487 15.8254 59.6617 15.5385 59.3077 15.5385H31.8269C31.4729 15.5385 31.1859 15.8254 31.1859 16.1795V29.4102H22.8205C19.8046 29.4138 17.3596 31.8559 17.3525 34.8718V62.609C17.3561 65.6274 19.8021 68.0734 22.8205 68.0769H64.3397C64.6937 68.0769 64.9807 67.7899 64.9807 67.4359V58.4615C66.0015 58.0846 66.6811 57.1137 66.6859 56.0256V51.1859C66.6837 50.0954 66.0037 49.1213 64.9807 48.7436ZM63.6987 30.6923V34.2308H59.9487V32.0128V30.7308L63.6987 30.6923ZM32.4679 32.2051V34.2308H58.6859V32.2051C55.7834 27.7941 50.8572 25.1385 45.5769 25.1385C40.2966 25.1385 35.3704 27.7941 32.4679 32.2051ZM58.6666 16.8205V30.0449C55.4435 26.1254 50.6354 23.8542 45.5609 23.8542C40.4864 23.8542 35.6782 26.1254 32.4551 30.0449V16.8205H58.6666ZM31.1859 30.6923H22.8205V30.6859C20.5087 30.6859 18.6346 32.56 18.6346 34.8718C18.6346 37.1836 20.5087 39.0577 22.8205 39.0577H63.7307V35.5128H24.6282C24.2742 35.5128 23.9872 35.2258 23.9872 34.8718C23.9872 34.5178 24.2742 34.2308 24.6282 34.2308H31.1859V30.6923ZM22.8205 66.7949C21.0811 66.7798 19.5311 65.6938 18.9231 64.0641H33.6089C33.963 64.0641 34.25 63.7771 34.25 63.4231C34.25 63.069 33.963 62.782 33.6089 62.782H18.641V62.609V60.141H30.6602C31.0143 60.141 31.3013 59.854 31.3013 59.5C31.3013 59.146 31.0143 58.859 30.6602 58.859H18.6346V56.2115H26.7372C27.0912 56.2115 27.3782 55.9245 27.3782 55.5705C27.3782 55.2165 27.0912 54.9295 26.7372 54.9295H18.6346V52.2885H23.0833C23.4373 52.2885 23.7243 52.0015 23.7243 51.6474C23.7243 51.2934 23.4373 51.0064 23.0833 51.0064H18.6346V38.391C19.6775 39.6186 21.2097 40.3225 22.8205 40.3141H63.6987V48.5705H55.6666C54.2212 48.5705 53.0484 49.7404 53.0448 51.1859V56.0256C53.0484 57.4711 54.2212 58.641 55.6666 58.641H63.6987V66.7949H22.8205ZM64.0641 57.359C64.8015 57.359 65.4003 56.763 65.4038 56.0256V51.1859C65.4003 50.4485 64.8015 49.8525 64.0641 49.8526H55.6666C54.9292 49.8525 54.3304 50.4485 54.3269 51.1859V56.0256C54.3304 56.763 54.9292 57.359 55.6666 57.359H64.0641Z" fill="#76804D"/>
<path fill-rule="evenodd" clip-rule="evenodd" d="M55.9423 53.5962C55.9423 52.2367 57.0443 51.1346 58.4038 51.1346C59.7633 51.1346 60.8653 52.2367 60.8653 53.5962C60.8653 54.9556 59.7633 56.0577 58.4038 56.0577C57.0443 56.0577 55.9423 54.9556 55.9423 53.5962ZM57.2243 53.5962C57.2243 54.2476 57.7524 54.7756 58.4038 54.7756C59.0552 54.7756 59.5833 54.2476 59.5833 53.5962C59.5833 52.9447 59.0552 52.4167 58.4038 52.4167C57.7524 52.4167 57.2243 52.9447 57.2243 53.5962Z" fill="#76804D"/>
<path d="M55.3205 24.7949C55.6745 24.7949 55.9615 24.5079 55.9615 24.1538V19.9423C55.9615 19.5883 55.6745 19.3013 55.3205 19.3013C54.9664 19.3013 54.6794 19.5883 54.6794 19.9423V24.1538C54.6794 24.5079 54.9664 24.7949 55.3205 24.7949Z" fill="#76804D"/>
<defs>
<linearGradient id="paint0_linear" x1="21.5" y1="62.5" x2="62.5" y2="21.5" gradientUnits="userSpaceOnUse">
<stop stop-color="#95A653"/>
<stop offset="1" stop-color="#CEE195"/>
</linearGradient>
</defs>
</svg>
