<svg width="18" height="16" viewBox="0 0 18 16" fill="none" xmlns="http://www.w3.org/2000/svg">
<path d="M15.5159 0.325296L17.0772 1.51581C17.0981 1.53831 17.1201 1.56388 17.1411 1.59558C17.1621 1.62729 17.1733 1.65951 17.1733 1.69172C17.1846 1.73468 17.1846 1.77457 17.1733 1.81292C17.1621 1.85128 17.1462 1.88503 17.1252 1.91673L6.88777 15.4092C6.86527 15.4414 6.83664 15.4649 6.79982 15.4813C6.76146 15.4971 6.72157 15.5099 6.67811 15.5212H6.66225C6.6193 15.5212 6.58248 15.513 6.54872 15.4971C6.51497 15.4813 6.4894 15.4619 6.46895 15.4414L0.897892 9.87188C0.875391 9.83966 0.858003 9.80796 0.84215 9.77574C0.826297 9.74352 0.818115 9.71182 0.818115 9.6796C0.818115 9.63664 0.826297 9.59982 0.84215 9.56607C0.858003 9.53232 0.877436 9.50675 0.897892 9.48629L2.28171 8.08611C2.33591 8.03191 2.40291 8.00634 2.48319 8.00634C2.56348 8.00634 2.63047 8.03344 2.68468 8.08611L6.4352 11.8366L15.1129 0.389731C15.1559 0.325808 15.2167 0.287454 15.2986 0.276203C15.3804 0.264953 15.452 0.280806 15.5159 0.324273V0.325296Z" fill="#3D79BD"/>
</svg>
