<svg width="84" height="84" viewBox="0 0 84 84" fill="none" xmlns="http://www.w3.org/2000/svg">
<path fill-rule="evenodd" clip-rule="evenodd" d="M42 83C64.6437 83 83 64.6437 83 42C83 19.3563 64.6437 1 42 1C19.3563 1 1 19.3563 1 42C1 64.6437 19.3563 83 42 83Z" fill="#D65E5B" fill-opacity="0.0618773" stroke="url(#paint0_linear)" stroke-width="2"/>
<path fill-rule="evenodd" clip-rule="evenodd" d="M17.5721 60.9063H65.4277C65.6982 60.9063 65.9271 60.6877 65.9271 60.4066V23.583C65.9271 23.3019 65.6982 23.0833 65.4277 23.0833H17.5721C17.2912 23.0833 17.0728 23.3123 17.0728 23.583V60.4066C17.0728 60.6877 17.3016 60.9063 17.5721 60.9063ZM64.9284 59.9068H18.0715V24.0827H64.9284V59.9068Z" fill="#D65E5B"/>
<path d="M65.4277 31.2559H17.5721C17.3016 31.2559 17.0728 31.0373 17.0728 30.7562C17.0728 30.4751 17.2912 30.2564 17.5721 30.2564H65.4277C65.6982 30.2564 65.9271 30.4751 65.9271 30.7562C65.9271 31.0373 65.6982 31.2559 65.4277 31.2559Z" fill="#D65E5B"/>
<path fill-rule="evenodd" clip-rule="evenodd" d="M25.2915 27.1748C25.2915 28.1847 26.103 28.9967 27.1121 28.9967C28.1212 28.9967 28.9431 28.1742 28.9327 27.1748C28.9327 26.1753 28.1212 25.3529 27.1121 25.3529C26.1134 25.3529 25.2915 26.1649 25.2915 27.1748ZM26.2902 27.1644C26.2902 26.7167 26.6543 26.3419 27.1121 26.3419C27.5698 26.3419 27.9444 26.7167 27.934 27.1644C27.934 27.6225 27.5698 27.9868 27.1121 27.9868C26.6648 27.9868 26.2902 27.6121 26.2902 27.1644Z" fill="#D65E5B"/>
<path fill-rule="evenodd" clip-rule="evenodd" d="M33.1772 27.1748C33.1772 28.1847 33.9887 28.9967 34.9978 28.9967C35.9966 28.9967 36.8184 28.1742 36.8184 27.1748C36.8184 26.1753 35.9966 25.3529 34.9978 25.3529C33.9991 25.3529 33.1772 26.1649 33.1772 27.1748ZM34.176 27.1644C34.176 26.7167 34.5401 26.3419 34.9978 26.3419C35.4452 26.3419 35.8197 26.7167 35.8197 27.1644C35.8197 27.6225 35.4556 27.9868 34.9978 27.9868C34.5505 27.9868 34.176 27.6121 34.176 27.1644Z" fill="#D65E5B"/>
<path d="M57.1988 27.6953H45.3077C45.0372 27.6953 44.8083 27.4767 44.8083 27.1956C44.8083 26.9145 45.0268 26.6959 45.3077 26.6959H57.2092C57.4797 26.6959 57.7086 26.9145 57.7086 27.1956C57.7086 27.4767 57.4797 27.6953 57.1988 27.6953Z" fill="#D65E5B"/>
<path fill-rule="evenodd" clip-rule="evenodd" d="M45.5782 46.4559C45.4534 46.4559 45.3181 46.4038 45.2245 46.3101L41.3024 42.3956C41.2088 42.3019 41.1568 42.177 41.1568 42.0416C41.1568 41.9063 41.2088 41.7814 41.3024 41.6877L45.5574 37.4296L46.2856 36.6904C46.3793 36.5967 46.5041 36.5447 46.6394 36.5447C46.7746 36.5447 46.8994 36.5967 46.9931 36.6904L50.9151 40.6153C51.0088 40.709 51.0608 40.834 51.0608 40.9693C51.0608 41.1047 51.0088 41.2296 50.9151 41.3233L50.447 41.7814L45.9215 46.3101C45.8279 46.4143 45.703 46.4559 45.5782 46.4559ZM31.9081 55.7737C32.0018 55.8674 32.137 55.9195 32.2619 55.9195C32.3035 55.9195 32.3451 55.909 32.3763 55.8986L37.5468 54.6181C37.63 54.5973 37.7132 54.5452 37.7757 54.4827L41.5001 50.7556C41.5937 50.6619 41.6457 50.537 41.6457 50.4016C41.6457 50.2663 41.5937 50.1414 41.5001 50.0477L37.578 46.1332C37.3803 45.9353 37.0682 45.9353 36.8706 46.1332L33.1461 49.8603C33.0733 49.9227 33.0317 50.006 33.0109 50.0997L31.7729 55.3052C31.7313 55.4718 31.7833 55.6488 31.9081 55.7737ZM32.9381 54.7222L33.9472 50.4537L37.2243 47.1847L40.4389 50.3912L37.1619 53.6707L32.9381 54.7222ZM45.5782 45.2482L42.3636 42.0416L46.2752 38.148L46.6498 37.7627L49.854 40.9693L45.5782 45.2482Z" fill="#D65E5B"/>
<path fill-rule="evenodd" clip-rule="evenodd" d="M31.9081 55.7737C32.0018 55.8674 32.137 55.9195 32.2619 55.9195C32.3035 55.9195 32.3451 55.909 32.3867 55.8882L35.3829 55.1386C35.5181 55.1074 35.6222 55.0241 35.695 54.9096C35.7678 54.7951 35.7782 54.6493 35.747 54.5244C35.5701 53.8893 35.2372 53.3063 34.7691 52.8482C34.3009 52.3901 33.7287 52.057 33.1149 51.8904C32.9901 51.8592 32.8444 51.8696 32.73 51.9425C32.6156 52.0049 32.5323 52.1195 32.5011 52.2548L31.7729 55.3052C31.7313 55.4718 31.7833 55.6488 31.9081 55.7737ZM32.9277 54.7326L33.3334 53.0356C33.6039 53.171 33.8432 53.3479 34.0616 53.5666C34.2801 53.7852 34.457 54.0351 34.5922 54.3162L32.9277 54.7326Z" fill="#D65E5B"/>
<path d="M37.4113 54.6285C37.2865 54.6285 37.1513 54.5764 37.0576 54.4827L33.1356 50.5578C32.9379 50.36 32.9379 50.0477 33.1356 49.8499C33.3332 49.6521 33.6453 49.6521 33.843 49.8499L37.7651 53.7748C37.9627 53.9726 37.9627 54.2849 37.7651 54.4827C37.6714 54.5764 37.5362 54.6285 37.4113 54.6285Z" fill="#D65E5B"/>
<path fill-rule="evenodd" clip-rule="evenodd" d="M50.2075 41.3233C50.3012 41.417 50.4364 41.469 50.5613 41.469C50.6965 41.469 50.8213 41.4274 50.915 41.3233L51.9969 40.2197C52.5275 39.6888 52.5275 38.8247 51.9969 38.2937L49.292 35.5973C49.0424 35.3474 48.699 35.2016 48.3349 35.2016C47.9812 35.2016 47.6379 35.337 47.3778 35.5973L46.2855 36.6904C46.0878 36.8882 46.0878 37.2005 46.2855 37.3984L50.2075 41.3233ZM50.5717 40.2718L47.357 37.0548L48.0956 36.326C48.2309 36.1907 48.4702 36.1907 48.6054 36.326L51.3103 39.0225C51.4455 39.1578 51.4455 39.3869 51.3103 39.5326L50.5717 40.2718Z" fill="#D65E5B"/>
<path d="M49.6666 42.3644C49.5417 42.3644 49.4065 42.3123 49.3129 42.2186L45.4012 38.3041C45.2035 38.1063 45.2035 37.794 45.4012 37.5962C45.5988 37.3984 45.9109 37.3984 46.1086 37.5962L50.0307 41.5107C50.2284 41.7085 50.2284 42.0208 50.0307 42.2186C49.9267 42.3123 49.8018 42.3644 49.6666 42.3644Z" fill="#D65E5B"/>
<path fill-rule="evenodd" clip-rule="evenodd" d="M46.9409 56.9085C47.0345 57.0022 47.1698 57.0542 47.2946 57.0542C47.4195 57.0542 47.5443 57.0022 47.6587 56.9085L52.0906 52.4734C52.1842 52.3797 52.2362 52.2548 52.2362 52.1194C52.2362 51.9841 52.1842 51.8592 52.0906 51.7655L35.8925 35.566C35.6948 35.3682 35.3827 35.3682 35.1851 35.566L30.7428 40.0011C30.6492 40.0948 30.5972 40.2197 30.5972 40.3551C30.5972 40.4904 30.6492 40.6153 30.7428 40.709L46.9409 56.9085ZM47.2946 55.857L31.7936 40.3551L35.5284 36.6175L51.0294 52.1194L47.2946 55.857Z" fill="#D65E5B"/>
<path d="M32.2097 41.9688C32.0849 41.9688 31.9496 41.9167 31.856 41.823C31.6583 41.6252 31.6583 41.3129 31.856 41.1151L34.1344 38.8351C34.332 38.6373 34.6441 38.6373 34.8418 38.8351C35.0395 39.0329 35.0395 39.3452 34.8418 39.543L32.5634 41.823C32.4698 41.9271 32.3346 41.9688 32.2097 41.9688Z" fill="#D65E5B"/>
<path d="M34.2073 43.9677C34.0824 43.9677 33.9472 43.9156 33.8536 43.8219C33.6559 43.6241 33.6559 43.3118 33.8536 43.114L35.2372 41.7293C35.4349 41.5315 35.747 41.5315 35.9447 41.7293C36.1423 41.9271 36.1423 42.2395 35.9447 42.4373L34.561 43.8219C34.457 43.9156 34.3321 43.9677 34.2073 43.9677Z" fill="#D65E5B"/>
<path d="M36.2046 45.9666C36.0798 45.9666 35.9445 45.9145 35.8509 45.8208C35.6532 45.623 35.6532 45.3107 35.8509 45.1129L38.1292 42.8329C38.3269 42.6351 38.639 42.6351 38.8367 42.8329C39.0343 43.0307 39.0343 43.343 38.8367 43.5408L36.5583 45.8208C36.4543 45.9145 36.3294 45.9666 36.2046 45.9666Z" fill="#D65E5B"/>
<path d="M38.1917 47.9551C38.0668 47.9551 37.9316 47.903 37.8379 47.8093C37.6403 47.6115 37.6403 47.2992 37.8379 47.1014L39.2216 45.7167C39.4193 45.5189 39.7314 45.5189 39.929 45.7167C40.1267 45.9145 40.1267 46.2269 39.929 46.4247L38.5454 47.8093C38.4517 47.903 38.3269 47.9551 38.1917 47.9551Z" fill="#D65E5B"/>
<path d="M40.1892 49.954C40.0644 49.954 39.9291 49.9019 39.8355 49.8082C39.6378 49.6104 39.6378 49.2981 39.8355 49.1003L42.1138 46.8203C42.3115 46.6225 42.6236 46.6225 42.8213 46.8203C43.0189 47.0181 43.0189 47.3304 42.8213 47.5282L40.5429 49.8082C40.4493 49.9019 40.3141 49.954 40.1892 49.954Z" fill="#D65E5B"/>
<path d="M42.1865 51.9425C42.0617 51.9425 41.9264 51.8904 41.8328 51.7967C41.6352 51.5989 41.6352 51.2866 41.8328 51.0888L43.2165 49.7041C43.4141 49.5063 43.7262 49.5063 43.9239 49.7041C44.1216 49.9019 44.1216 50.2142 43.9239 50.4121L42.5402 51.7967C42.4362 51.8904 42.3114 51.9425 42.1865 51.9425Z" fill="#D65E5B"/>
<path d="M44.1841 53.9414C44.0593 53.9414 43.924 53.8893 43.8304 53.7956C43.6327 53.5978 43.6327 53.2855 43.8304 53.0877L46.1087 50.8077C46.3064 50.6099 46.6185 50.6099 46.8162 50.8077C47.0138 51.0055 47.0138 51.3178 46.8162 51.5156L44.5378 53.7956C44.4338 53.8893 44.3089 53.9414 44.1841 53.9414Z" fill="#D65E5B"/>
<path d="M46.1712 55.9299C46.0463 55.9299 45.9111 55.8778 45.8174 55.7841C45.6198 55.5863 45.6198 55.274 45.8174 55.0762L47.2011 53.6915C47.3988 53.4937 47.7109 53.4937 47.9085 53.6915C48.1062 53.8893 48.1062 54.2016 47.9085 54.3995L46.5249 55.7841C46.4312 55.8882 46.296 55.9299 46.1712 55.9299Z" fill="#D65E5B"/>
<defs>
<linearGradient id="paint0_linear" x1="85.1125" y1="83" x2="85.1125" y2="1" gradientUnits="userSpaceOnUse">
<stop stop-color="#D65E5B"/>
<stop offset="1" stop-color="#EECFCE"/>
</linearGradient>
</defs>
</svg>
