<svg width="40" height="38" viewBox="0 0 40 38" fill="none" xmlns="http://www.w3.org/2000/svg">
<path fill-rule="evenodd" clip-rule="evenodd" d="M22 38C31.9411 38 40 29.9411 40 20C40 10.0589 31.9411 2 22 2C12.0589 2 4 10.0589 4 20C4 29.9411 12.0589 38 22 38Z" fill="#3D79BD"/>
<path fill-rule="evenodd" clip-rule="evenodd" d="M19 37C28.9411 37 37 28.9411 37 19C37 9.05887 28.9411 1 19 1C9.05887 1 1 9.05887 1 19C1 28.9411 9.05887 37 19 37Z" fill="white" stroke="#3C6595"/>
<path fill-rule="evenodd" clip-rule="evenodd" d="M27.1719 19.0588C27.6321 19.3307 28.2307 19.2763 28.6264 18.9265C29.0222 18.5768 29.1144 18.0206 28.8507 17.575C28.5869 17.1294 28.0341 16.9077 27.5074 17.0362C26.9808 17.1647 26.614 17.6108 26.6162 18.1202C26.617 18.3183 26.6756 18.5125 26.7857 18.6818L23.8769 21.1935C23.6791 21.0658 23.4448 20.997 23.2046 20.9959C22.955 20.9951 22.7117 21.0689 22.51 21.2065L19.3484 18.648C19.6092 18.175 19.4776 17.5954 19.0337 17.2626C18.5898 16.9299 17.9567 16.9361 17.5204 17.2776C17.0841 17.619 16.9655 18.201 17.2369 18.6688L11.9222 22.9538C11.7196 22.8134 11.4741 22.7378 11.222 22.738C10.6793 22.7323 10.1991 23.066 10.0479 23.5539C9.89675 24.0418 10.1117 24.5642 10.5734 24.8312C11.0352 25.0982 11.6305 25.0443 12.0291 24.6994C12.4276 24.3545 12.5316 23.8033 12.2833 23.3516L17.6009 19.0614C18.0183 19.3395 18.5798 19.3332 18.99 19.0458L22.1405 21.6017C22.0487 21.7615 22.0009 21.9403 22.0016 22.1217C22.0016 22.7392 22.5365 23.2398 23.1962 23.2398C23.856 23.2398 24.3909 22.7392 24.3909 22.1217C24.3876 21.9394 24.336 21.7608 24.2409 21.6017L27.1719 19.0588ZM27.8137 17.5221C28.1666 17.5221 28.4527 17.7899 28.4527 18.1202C28.4527 18.4504 28.1666 18.7182 27.8137 18.7182C27.4608 18.7182 27.1747 18.4504 27.1747 18.1202C27.1747 17.7899 27.4608 17.5221 27.8137 17.5221ZM10.5831 23.8534C10.5831 24.1837 10.8691 24.4514 11.222 24.4514C11.575 24.4514 11.861 24.1837 11.861 23.8534C11.861 23.5231 11.575 23.2554 11.222 23.2554C10.8691 23.2554 10.5831 23.5231 10.5831 23.8534ZM17.6481 18.1488C17.6481 17.8185 17.9342 17.5507 18.2871 17.5507C18.64 17.5507 18.9261 17.8185 18.9261 18.1488C18.9261 18.479 18.64 18.7468 18.2871 18.7468C17.9342 18.7468 17.6481 18.479 17.6481 18.1488ZM22.5656 22.1113C22.5656 22.4416 22.8517 22.7094 23.2046 22.7094C23.5575 22.7094 23.8436 22.4416 23.8436 22.1113C23.8436 21.781 23.5575 21.5133 23.2046 21.5133C22.8517 21.5133 22.5656 21.781 22.5656 22.1113Z" fill="#3D79BD"/>
<path fill-rule="evenodd" clip-rule="evenodd" d="M30.9177 27.3995L30.0831 26.577C30.6394 25.9029 30.943 25.0605 30.9427 24.1916V13.8056C30.9443 11.7086 29.2231 10.006 27.0953 10H11.8558C10.8324 10.0007 9.85128 10.4021 9.12818 11.1158C8.40508 11.8295 7.99926 12.797 8 13.8056V24.1998C8.00307 26.2974 9.72756 27.997 11.8558 28H27.0953C28.0661 27.9987 29.0004 27.6353 29.7103 26.9828L30.5254 27.7889C30.5779 27.8402 30.649 27.8688 30.723 27.8684C30.8355 27.8679 30.9366 27.8007 30.9793 27.6981C31.0219 27.5955 30.9976 27.4776 30.9177 27.3995ZM11.8558 10.5484H27.0953C27.9711 10.5491 28.8107 10.8927 29.4295 11.5035C30.0482 12.1144 30.3954 12.9425 30.3947 13.8056V13.9756H8.55639V13.8056C8.55565 12.9425 8.90285 12.1144 9.52161 11.5035C10.1404 10.8927 10.98 10.5491 11.8558 10.5484ZM11.8558 27.4516H27.0953C27.916 27.4448 28.7043 27.1346 29.3042 26.5825L28.1914 25.4858L27.7379 27.172L25.874 22.8262L30.2945 24.6495L28.5836 25.0964L29.6964 26.1931C30.1479 25.6239 30.3937 24.9224 30.3947 24.1998V14.524H8.55639V24.1998C8.55792 25.9951 10.0342 27.4501 11.8558 27.4516Z" fill="#3D79BD"/>
<path fill-rule="evenodd" clip-rule="evenodd" d="M29 11.9985C29.0008 12.5505 28.5542 12.9988 28.0022 13C27.4496 13 27.0012 12.5526 27 12C27 11.448 27.4473 11.0004 27.9993 11C28.5513 10.9996 28.9992 11.4465 29 11.9985ZM28.5546 11.997C28.5554 11.691 28.3082 11.4422 28.0022 11.441V11.4454C27.6968 11.4442 27.4479 11.6901 27.4454 11.9955C27.4454 12.3015 27.6933 12.5497 27.9993 12.5501C28.3052 12.5505 28.5537 12.303 28.5546 11.997Z" fill="#3D79BD"/>
</svg>
