<?xml version="1.0" encoding="utf-8"?>
<!-- Generator: Adobe Illustrator 22.0.0, SVG Export Plug-In . SVG Version: 6.00 Build 0)  -->
<svg version="1.1" id="Layer_1" xmlns="http://www.w3.org/2000/svg" xmlns:xlink="http://www.w3.org/1999/xlink" x="0px" y="0px"
	 viewBox="0 0 1920 703.1" style="enable-background:new 0 0 1920 703.1;" xml:space="preserve">
<style type="text/css">
	.st0{fill:#FFFFFF;}
	.st1{fill:#3D79BD;}
</style>
<g>
	<path class="st0" d="M55.6,156.8h1808.9v31.3H90.7v101h117.4v31.3H90.7v132.2H55.6V156.8z"/>
	<path class="st0" d="M277.8,241.3h33.8v211.2h-33.8V241.3z"/>
	<path class="st0" d="M519.5,452.5V332.1c0-22-3.2-38.5-9.5-49.6c-6.3-11.1-18-16.7-34.9-16.7c-14.9,0-27.2,4-37,12
		c-9.7,8-16.5,18.1-20.5,30.2v144.5h-33.8V241.3h23.7l6.3,25.8h1.7c6.8-9,15.8-16.4,27.2-22.2c11.4-5.8,25-8.7,40.8-8.7
		c11.5,0,21.7,1.3,30.4,4c8.7,2.7,16,7.4,21.8,14.2c5.8,6.8,10.1,15.8,13.1,27.2c3,11.4,4.4,25.8,4.4,43.3v127.6H519.5z"/>
	<path class="st0" d="M611.6,256.9c10.7-6.5,23.2-11.3,37.4-14.4c14.2-3.1,29.1-4.6,44.6-4.6c14.6,0,26.4,2,35.3,5.9
		c8.9,3.9,15.6,9.1,20.3,15.4c4.6,6.3,7.7,13.3,9.3,20.9c1.5,7.6,2.3,15.2,2.3,22.8c0,16.9-0.4,33.4-1.3,49.4
		c-0.8,16.1-1.3,31.3-1.3,45.6c0,10.4,0.4,20.3,1.3,29.6c0.8,9.3,2.4,17.9,4.6,25.8h-24.9l-8.9-29.6h-2.1c-2.5,3.9-5.7,7.8-9.5,11.6
		c-3.8,3.8-8.4,7.2-13.7,10.1c-5.4,3-11.6,5.4-18.6,7.4c-7,2-15.1,3-24.1,3c-9,0-17.4-1.4-25.1-4.2c-7.7-2.8-14.4-6.8-20.1-12
		c-5.6-5.2-10.1-11.5-13.3-18.8c-3.2-7.3-4.9-15.6-4.9-24.9c0-12.4,2.5-22.7,7.6-31c5.1-8.3,12.2-14.9,21.3-19.9
		c9.1-4.9,20.1-8.4,33-10.6c12.8-2.1,27-3.2,42.5-3.2c3.9,0,7.8,0,11.6,0c3.8,0,7.7,0.3,11.6,0.8c0.8-8.4,1.3-16.1,1.3-22.8
		c0-15.5-3.1-26.3-9.3-32.5c-6.2-6.2-17.5-9.3-33.8-9.3c-4.8,0-9.9,0.4-15.4,1.1c-5.5,0.7-11.1,1.7-16.9,3
		c-5.8,1.3-11.3,2.9-16.5,4.8c-5.2,1.9-9.8,4-13.7,6.3L611.6,256.9z M671.6,426.3c7.9,0,14.9-1.1,21.1-3.2c6.2-2.1,11.5-4.8,16.1-8
		c4.5-3.2,8.2-6.8,11.2-10.8c3-3.9,5.1-7.7,6.5-11.4v-35.1c-3.9-0.3-8-0.5-12-0.6c-4.1-0.1-8.1-0.2-12-0.2c-8.7,0-17.3,0.5-25.6,1.5
		c-8.3,1-15.6,2.8-22,5.5c-6.3,2.7-11.4,6.3-15.2,11c-3.8,4.6-5.7,10.5-5.7,17.5c0,9.9,3.5,18,10.6,24.3
		C651.6,423.2,660.6,426.3,671.6,426.3z"/>
	<path class="st0" d="M960.1,452.5V332.1c0-22-3.2-38.5-9.5-49.6c-6.3-11.1-18-16.7-34.9-16.7c-14.9,0-27.2,4-37,12
		c-9.7,8-16.5,18.1-20.5,30.2v144.5h-33.8V241.3h23.7l6.3,25.8h1.7c6.8-9,15.8-16.4,27.2-22.2c11.4-5.8,25-8.7,40.8-8.7
		c11.5,0,21.7,1.3,30.4,4c8.7,2.7,16,7.4,21.8,14.2c5.8,6.8,10.1,15.8,13.1,27.2c3,11.4,4.4,25.8,4.4,43.3v127.6H960.1z"/>
	<path class="st0" d="M1199.6,438.6c-8.4,6.2-18.4,10.9-30,14.2c-11.6,3.2-23.7,4.9-36.3,4.9c-16.3,0-30.1-2.6-41.4-7.8
		c-11.3-5.2-20.5-12.7-27.7-22.4c-7.2-9.7-12.4-21.4-15.6-35.1c-3.2-13.7-4.9-28.8-4.9-45.4c0-35.8,7.9-63.2,23.7-82.2
		c15.8-19,38.4-28.5,68-28.5c13.5,0,25,1.1,34.4,3.2c9.4,2.1,18,5.1,25.6,9.1l-9.7,29.1c-6.5-3.7-13.7-6.5-21.5-8.7
		c-7.9-2.1-16.3-3.2-25.3-3.2c-40,0-60,27-60,81.1c0,10.7,1.1,20.9,3.2,30.6c2.1,9.7,5.6,18.3,10.6,25.8c4.9,7.5,11.4,13.5,19.4,18
		c8,4.5,18,6.8,29.8,6.8c10.1,0,19.2-1.5,27.2-4.6c8-3.1,14.6-6.6,19.6-10.6L1199.6,438.6z"/>
	<path class="st0" d="M1224.5,346.9c0-35.8,8-63.2,23.9-82.2c15.9-19,38.8-28.5,68.6-28.5c15.8,0,29.5,2.6,41.2,7.8
		c11.7,5.2,21.3,12.7,28.9,22.4c7.6,9.7,13.2,21.4,16.9,35.1c3.7,13.7,5.5,28.8,5.5,45.4c0,35.8-8,63.2-23.9,82.2
		c-15.9,19-38.8,28.5-68.6,28.5c-15.8,0-29.5-2.6-41.2-7.8c-11.7-5.2-21.3-12.7-28.9-22.4c-7.6-9.7-13.2-21.4-16.9-35.1
		C1226.3,378.7,1224.5,363.5,1224.5,346.9z M1259.6,346.9c0,10.7,1.1,21,3.2,30.8c2.1,9.9,5.4,18.4,9.9,25.8
		c4.5,7.3,10.4,13.2,17.7,17.7c7.3,4.5,16.2,6.8,26.6,6.8c38.3,0.3,57.5-26.8,57.5-81.1c0-11-1.1-21.4-3.2-31.3
		c-2.1-9.9-5.4-18.4-9.9-25.8c-4.5-7.3-10.4-13.2-17.7-17.5c-7.3-4.4-16.2-6.5-26.6-6.5C1278.7,265.5,1259.6,292.6,1259.6,346.9z"/>
	<path class="st0" d="M1450.9,346.9c0-35.8,8-63.2,23.9-82.2c15.9-19,38.8-28.5,68.6-28.5c15.8,0,29.5,2.6,41.2,7.8
		c11.7,5.2,21.3,12.7,28.9,22.4c7.6,9.7,13.2,21.4,16.9,35.1c3.7,13.7,5.5,28.8,5.5,45.4c0,35.8-8,63.2-23.9,82.2
		c-15.9,19-38.8,28.5-68.6,28.5c-15.8,0-29.5-2.6-41.2-7.8c-11.7-5.2-21.3-12.7-28.9-22.4c-7.6-9.7-13.2-21.4-16.9-35.1
		C1452.8,378.7,1450.9,363.5,1450.9,346.9z M1486,346.9c0,10.7,1.1,21,3.2,30.8c2.1,9.9,5.4,18.4,9.9,25.8
		c4.5,7.3,10.4,13.2,17.7,17.7c7.3,4.5,16.2,6.8,26.6,6.8c38.3,0.3,57.5-26.8,57.5-81.1c0-11-1.1-21.4-3.2-31.3
		c-2.1-9.9-5.4-18.4-9.9-25.8c-4.5-7.3-10.4-13.2-17.7-17.5c-7.3-4.4-16.2-6.5-26.6-6.5C1505.2,265.5,1486,292.6,1486,346.9z"/>
	<path class="st0" d="M1689.2,241.3h23.2l6.3,25.3h1.7c6.5-9.9,14.9-17.4,25.1-22.6c10.3-5.2,22-7.8,35.3-7.8
		c28.2,0,49.1,8.3,62.9,24.9c13.8,16.6,20.7,43.8,20.7,81.5c0,17.7-2.3,33.7-7,47.9c-4.6,14.2-11.2,26.3-19.6,36.1
		c-8.4,9.9-18.7,17.5-30.6,22.8c-12,5.3-25.3,8-39.9,8c-10.4,0-18.7-0.6-24.7-1.9c-6.1-1.3-12.6-3.4-19.6-6.5V537h-33.8V241.3z
		 M1774.5,265.8c-14.4,0-25.7,3.7-34,11.2c-8.3,7.5-14.2,18.8-17.5,34v104.8c5.1,3.9,10.8,7,17.3,9.1c6.5,2.1,15.1,3.2,25.8,3.2
		c19.4,0,34.9-7.2,46.3-21.8c11.4-14.5,17.1-35.8,17.1-64c0-11.5-1-22-3-31.5c-2-9.4-5.1-17.5-9.5-24.1c-4.4-6.6-10-11.8-16.9-15.4
		C1793.2,267.6,1784.7,265.8,1774.5,265.8z"/>
	<g>
		<path class="st0" d="M89.2,510.4c0,9.1-6.6,14.5-17.4,14.5H61.4v12.6h-6v-41.7h16.3C82.6,495.9,89.2,501.4,89.2,510.4z
			 M83.2,510.4c0-6-4-9.4-11.6-9.4H61.4v18.7h10.1C79.2,519.8,83.2,516.4,83.2,510.4z"/>
		<path class="st0" d="M166.2,527.2H144l-4.6,10.4h-6.1l18.9-41.7h5.9l19,41.7h-6.3L166.2,527.2z M164.1,522.4l-9-20.5l-9,20.5
			H164.1z"/>
		<path class="st0" d="M254.9,537.6l-9-12.8c-0.8,0.1-1.7,0.1-2.6,0.1h-10.3v12.7h-6v-41.7h16.3c10.9,0,17.4,5.5,17.4,14.5
			c0,6.4-3.3,11.1-9.2,13.2l9.9,14H254.9z M254.7,510.4c0-6-4-9.4-11.6-9.4h-10.1v18.8h10.1C250.7,519.9,254.7,516.4,254.7,510.4z"
			/>
		<path class="st0" d="M340.6,527.2h-22.2l-4.6,10.4h-6.1l18.9-41.7h5.9l19,41.7h-6.3L340.6,527.2z M338.6,522.4l-9-20.5l-9,20.5
			H338.6z"/>
		<path class="st0" d="M469.5,501.1h-14.3v-5.2h34.5v5.2h-14.3v36.6h-5.9V501.1z"/>
		<path class="st0" d="M538.8,519.6v-23.7h6v23.5c0,9.2,4.2,13.4,11.7,13.4c7.5,0,11.8-4.2,11.8-13.4v-23.5h5.8v23.7
			c0,12.1-6.6,18.5-17.6,18.5C545.5,538.1,538.8,531.7,538.8,519.6z"/>
		<path class="st0" d="M698.2,501.1h-14.3v-5.2h34.5v5.2h-14.3v36.6h-5.9V501.1z"/>
		<path class="st0" d="M796.5,537.6l-9-12.8c-0.8,0.1-1.7,0.1-2.6,0.1h-10.3v12.7h-6v-41.7h16.3c10.9,0,17.4,5.5,17.4,14.5
			c0,6.4-3.3,11.1-9.2,13.2l9.9,14H796.5z M796.3,510.4c0-6-4-9.4-11.6-9.4h-10.1v18.8h10.1C792.3,519.9,796.3,516.4,796.3,510.4z"
			/>
		<path class="st0" d="M882.3,527.2h-22.2l-4.6,10.4h-6.1l18.9-41.7h5.9l19,41.7h-6.3L882.3,527.2z M880.2,522.4l-9-20.5l-9,20.5
			H880.2z"/>
		<path class="st0" d="M979,495.9v41.7h-4.9l-25-31.1v31.1h-6v-41.7h4.9l25,31.1v-31.1H979z"/>
		<path class="st0" d="M1078.2,541.5c-2.7,3.2-6.3,4.9-10.5,4.9c-5.2,0-9.4-2.3-15.2-8.3c-12-0.7-20.7-9.5-20.7-21.3
			c0-12.2,9.4-21.3,22.2-21.3c12.7,0,22.1,9.1,22.1,21.3c0,10.4-6.7,18.4-16.4,20.7c2.8,3,5.3,4.2,8,4.2c3,0,5.5-1.2,7.6-3.6
			L1078.2,541.5z M1054.1,532.8c9.2,0,16.2-6.9,16.2-16c0-9.2-6.9-16-16.2-16c-9.4,0-16.3,6.9-16.3,16
			C1037.8,526,1044.7,532.8,1054.1,532.8z"/>
		<path class="st0" d="M1128.7,519.6v-23.7h6v23.5c0,9.2,4.2,13.4,11.7,13.4c7.5,0,11.8-4.2,11.8-13.4v-23.5h5.8v23.7
			c0,12.1-6.6,18.5-17.6,18.5C1135.4,538.1,1128.7,531.7,1128.7,519.6z"/>
		<path class="st0" d="M1219.9,495.9h6v41.7h-6V495.9z"/>
		<path class="st0" d="M1282.2,495.9h6v36.6h22.6v5.2h-28.6V495.9z"/>
		<path class="st0" d="M1361.3,495.9h6v41.7h-6V495.9z"/>
		<path class="st0" d="M1423.6,495.9h17.6c13.4,0,22.5,8.5,22.5,20.9c0,12.4-9.1,20.9-22.5,20.9h-17.6V495.9z M1440.8,532.4
			c10.3,0,16.9-6.3,16.9-15.7c0-9.4-6.6-15.7-16.9-15.7h-11.3v31.4H1440.8z"/>
		<path class="st0" d="M1542.5,527.2h-22.2l-4.6,10.4h-6.1l18.9-41.7h5.9l19,41.7h-6.3L1542.5,527.2z M1540.4,522.4l-9-20.5l-9,20.5
			H1540.4z"/>
		<path class="st0" d="M1603.3,495.9h17.6c13.4,0,22.5,8.5,22.5,20.9c0,12.4-9.1,20.9-22.5,20.9h-17.6V495.9z M1620.6,532.4
			c10.3,0,16.9-6.3,16.9-15.7c0-9.4-6.6-15.7-16.9-15.7h-11.3v31.4H1620.6z"/>
	</g>
</g>
</svg>
