<svg width="191" height="43" viewBox="0 0 191 43" fill="none" xmlns="http://www.w3.org/2000/svg">
<path fill-rule="evenodd" clip-rule="evenodd" d="M0 0V32H3.70618V17.6985H16.1024V14.3124H3.70618V3.38608H191V0H0Z" fill="#3D79BD"/>
<path fill-rule="evenodd" clip-rule="evenodd" d="M23 32H27V9H23V32Z" fill="#3D79BD"/>
<path fill-rule="evenodd" clip-rule="evenodd" d="M48.9741 31.5825V18.7404C48.9741 16.3939 48.6364 14.634 47.9716 13.45C47.3068 12.2661 46.0721 11.6688 44.2888 11.6688C42.7165 11.6688 41.4185 12.0954 40.3844 12.9487C39.3608 13.802 38.6432 14.8793 38.2211 16.1699V31.5825H34.6544V9.05557H37.1553L37.8201 11.8074H37.9995C38.7171 10.8475 39.6668 10.0582 40.8698 9.43955C42.0728 8.82092 43.5079 8.5116 45.1752 8.5116C46.3887 8.5116 47.4651 8.65026 48.3831 8.93824C49.3012 9.22623 50.0715 9.72754 50.6836 10.4528C51.2956 11.1781 51.7494 12.1381 52.066 13.354C52.3825 14.57 52.5303 16.1059 52.5303 17.9725V31.5825H48.9741Z" fill="#3D79BD"/>
<path fill-rule="evenodd" clip-rule="evenodd" d="M65.0244 28.7879C65.8581 28.7879 66.5968 28.6706 67.251 28.4466C67.9053 28.2226 68.4646 27.9346 68.95 27.5933C69.4248 27.2521 69.8153 26.868 70.1318 26.4414C70.4484 26.0255 70.67 25.6201 70.8178 25.2255V21.4816C70.4062 21.4496 69.9736 21.4283 69.5515 21.4176C69.1188 21.4069 68.6967 21.3963 68.2852 21.3963C67.3671 21.3963 66.4596 21.4496 65.5837 21.5563C64.7079 21.6629 63.9375 21.8549 63.2622 22.1429C62.5974 22.4309 62.0592 22.8149 61.6582 23.3162C61.2572 23.8068 61.0567 24.4361 61.0567 25.1828C61.0567 26.2388 61.426 27.1027 62.1753 27.7746C62.9139 28.4573 63.8637 28.7879 65.0244 28.7879ZM58.6929 10.7194C59.8221 10.0261 61.1411 9.51417 62.6396 9.18351C64.138 8.85286 65.7104 8.69287 67.346 8.69287C68.8867 8.69287 70.1318 8.90619 71.071 9.32217C72.0102 9.73815 72.7172 10.2928 73.2132 10.9648C73.6986 11.6367 74.0257 12.3834 74.1946 13.194C74.3528 14.0046 74.4373 14.8152 74.4373 15.6259C74.4373 17.4285 74.395 19.1884 74.3001 20.895C74.2157 22.6123 74.1629 24.2335 74.1629 25.7588C74.1629 26.868 74.2051 27.924 74.3001 28.9159C74.3845 29.9079 74.5533 30.8253 74.7855 31.6678H72.1579L71.2188 28.5106H70.9971C70.7333 28.9266 70.3957 29.3426 69.9947 29.7479C69.5937 30.1532 69.1083 30.5158 68.549 30.8253C67.9791 31.1452 67.3249 31.4011 66.5862 31.6145C65.8475 31.8278 64.9928 31.9344 64.0431 31.9344C63.0933 31.9344 62.2069 31.7852 61.3944 31.4865C60.5818 31.1878 59.8748 30.7612 59.2733 30.2065C58.6824 29.652 58.2075 28.9799 57.8699 28.2013C57.5322 27.4226 57.3528 26.5374 57.3528 25.5455C57.3528 24.2228 57.6166 23.1242 58.1548 22.239C58.6929 21.3536 59.4422 20.6496 60.4025 20.1163C61.3627 19.5937 62.5235 19.2204 63.8848 18.9857C65.2355 18.7617 66.7339 18.6444 68.3696 18.6444H69.5937C69.9947 18.6444 70.4062 18.6764 70.8178 18.7297C70.9022 17.8338 70.9549 17.0125 70.9549 16.2978C70.9549 14.6446 70.6278 13.4926 69.9736 12.8313C69.3193 12.17 68.1269 11.8394 66.4068 11.8394C65.9003 11.8394 65.3621 11.8821 64.7817 11.9567C64.2013 12.0314 63.6104 12.138 62.9984 12.2767C62.3863 12.4154 61.8059 12.586 61.2572 12.7887C60.7085 12.9913 60.2231 13.2153 59.8115 13.4606L58.6929 10.7194Z" fill="#3D79BD"/>
<path fill-rule="evenodd" clip-rule="evenodd" d="M95.4683 31.5825V18.7404C95.4683 16.3939 95.1306 14.634 94.4658 13.45C93.801 12.2661 92.5663 11.6688 90.7831 11.6688C89.2107 11.6688 87.9127 12.0954 86.8787 12.9487C85.855 13.802 85.1375 14.8793 84.7154 16.1699V31.5825H81.1486V9.05557H83.6495L84.3143 11.8074H84.4937C85.2113 10.8475 86.161 10.0582 87.364 9.43955C88.5671 8.82092 90.0021 8.5116 91.6694 8.5116C92.8829 8.5116 93.9593 8.65026 94.8773 8.93824C95.7955 9.22623 96.5657 9.72754 97.1778 10.4528C97.7898 11.1781 98.2437 12.1381 98.5603 13.354C98.8768 14.57 99.0245 16.1059 99.0245 17.9725V31.5825H95.4683Z" fill="#3D79BD"/>
<path fill-rule="evenodd" clip-rule="evenodd" d="M120.742 30.0999C119.855 30.7612 118.8 31.2625 117.576 31.6145C116.352 31.9558 115.075 32.1372 113.745 32.1372C112.025 32.1372 110.569 31.8598 109.377 31.3052C108.184 30.7506 107.213 29.9506 106.454 28.9159C105.694 27.8813 105.145 26.6334 104.807 25.1722C104.47 23.7109 104.29 22.1002 104.29 20.3297C104.29 16.5113 105.124 13.5886 106.791 11.5621C108.459 9.5355 110.843 8.52222 113.967 8.52222C115.391 8.52222 116.605 8.63954 117.597 8.86353C118.589 9.08752 119.496 9.40751 120.298 9.83415L119.275 12.9381C118.589 12.5434 117.829 12.2448 117.006 12.0101C116.172 11.7861 115.286 11.6687 114.336 11.6687C110.115 11.6687 108.005 14.5486 108.005 20.319C108.005 21.4603 108.121 22.5482 108.342 23.5828C108.564 24.6176 108.933 25.5347 109.461 26.3347C109.978 27.1347 110.664 27.7746 111.508 28.2546C112.352 28.7346 113.408 28.9799 114.653 28.9799C115.719 28.9799 116.679 28.8199 117.523 28.4893C118.367 28.1587 119.064 27.7854 119.591 27.3588L120.742 30.0999Z" fill="#3D79BD"/>
<path fill-rule="evenodd" clip-rule="evenodd" d="M127.073 20.319C127.073 21.4603 127.189 22.5589 127.411 23.6042C127.632 24.6602 127.981 25.5668 128.455 26.3561C128.93 27.1347 129.553 27.764 130.323 28.244C131.094 28.724 132.033 28.9693 133.13 28.9693C137.172 29.0013 139.198 26.1108 139.198 20.319C139.198 19.1458 139.082 18.0365 138.86 16.9805C138.639 15.9246 138.29 15.018 137.816 14.2287C137.341 13.45 136.718 12.8207 135.948 12.3621C135.177 11.8928 134.238 11.6688 133.141 11.6688C129.089 11.6368 127.073 14.5273 127.073 20.319ZM123.369 20.319C123.369 16.5006 124.213 13.578 125.891 11.5515C127.569 9.52488 129.986 8.5116 133.13 8.5116C134.797 8.5116 136.243 8.78892 137.478 9.34356C138.713 9.8982 139.725 10.6982 140.527 11.7328C141.33 12.7674 141.92 14.0153 142.311 15.4766C142.701 16.9379 142.891 18.5485 142.891 20.319C142.891 24.1375 142.047 27.06 140.369 29.0866C138.691 31.1132 136.275 32.1265 133.13 32.1265C131.463 32.1265 130.017 31.8492 128.783 31.2945C127.548 30.7399 126.535 29.9399 125.733 28.9053C124.931 27.8707 124.34 26.6227 123.949 25.1615C123.559 23.7109 123.369 22.0896 123.369 20.319Z" fill="#3D79BD"/>
<path fill-rule="evenodd" clip-rule="evenodd" d="M150.964 20.319C150.964 21.4603 151.08 22.5589 151.302 23.6042C151.523 24.6602 151.871 25.5668 152.346 26.3561C152.821 27.1347 153.444 27.764 154.214 28.244C154.984 28.724 155.924 28.9693 157.021 28.9693C161.063 29.0013 163.089 26.1108 163.089 20.319C163.089 19.1458 162.973 18.0365 162.751 16.9805C162.529 15.9246 162.181 15.018 161.706 14.2287C161.231 13.45 160.609 12.8207 159.839 12.3621C159.068 11.8928 158.129 11.6688 157.032 11.6688C152.99 11.6368 150.964 14.5273 150.964 20.319ZM147.26 20.319C147.26 16.5006 148.104 13.578 149.782 11.5515C151.46 9.52488 153.876 8.5116 157.021 8.5116C158.688 8.5116 160.134 8.78892 161.369 9.34356C162.603 9.8982 163.616 10.6982 164.418 11.7328C165.22 12.7674 165.811 14.0153 166.202 15.4766C166.592 16.9379 166.782 18.5485 166.782 20.319C166.782 24.1375 165.938 27.06 164.26 29.0866C162.582 31.1132 160.166 32.1265 157.021 32.1265C155.354 32.1265 153.908 31.8492 152.673 31.2945C151.439 30.7399 150.426 29.9399 149.624 28.9053C148.822 27.8707 148.231 26.6227 147.84 25.1615C147.46 23.7109 147.26 22.0896 147.26 20.319Z" fill="#3D79BD"/>
<path fill-rule="evenodd" clip-rule="evenodd" d="M181.408 11.6688C179.888 11.6688 178.696 12.0634 177.82 12.8634C176.944 13.6634 176.321 14.8686 175.973 16.4899V27.668C176.511 28.084 177.113 28.4147 177.799 28.6387C178.485 28.8626 179.392 28.98 180.521 28.98C182.569 28.98 184.204 28.2121 185.407 26.6547C186.61 25.1081 187.212 22.8363 187.212 19.8284C187.212 18.6018 187.106 17.4818 186.895 16.4686C186.684 15.4659 186.357 14.602 185.893 13.898C185.428 13.194 184.837 12.6394 184.109 12.2554C183.381 11.8608 182.484 11.6688 181.408 11.6688ZM172.407 9.05557H174.855L175.52 11.7541H175.699C176.385 10.6982 177.271 9.8982 178.348 9.34356C179.434 8.78892 180.669 8.5116 182.073 8.5116C185.048 8.5116 187.254 9.39689 188.71 11.1675C190.166 12.9381 190.894 15.8392 190.894 19.8604C190.894 21.7483 190.652 23.4549 190.156 24.9695C189.67 26.4841 188.974 27.7747 188.088 28.82C187.201 29.8759 186.114 30.6865 184.858 31.252C183.592 31.8172 182.189 32.1053 180.648 32.1053C179.551 32.1053 178.675 32.0411 178.042 31.9025C177.398 31.7638 176.712 31.5398 175.973 31.2092V40.5954H172.407V9.05557Z" fill="#3D79BD"/>
<path fill-rule="evenodd" clip-rule="evenodd" d="M2.93362 37.7582C2.93362 37.1183 2.51152 36.7556 1.70953 36.7556H0.63318V38.7502H1.69898C2.51152 38.7607 2.93362 38.3982 2.93362 37.7582ZM3.56677 37.7582C3.56677 38.7289 2.87031 39.3048 1.73064 39.3048H0.63318V40.6488H3.05176e-05V36.2009H1.72009C2.87031 36.2116 3.56677 36.7983 3.56677 37.7582Z" fill="#3D79BD"/>
<path fill-rule="evenodd" clip-rule="evenodd" d="M11.4706 39.0382L10.5208 36.8516L9.57112 39.0382H11.4706ZM11.6922 39.5502H9.34951L8.8641 40.6594H8.2204L10.2148 36.2117H10.8374L12.8424 40.6594H12.1776L11.6922 39.5502Z" fill="#3D79BD"/>
<path fill-rule="evenodd" clip-rule="evenodd" d="M21.0311 37.7583C21.0311 37.1183 20.609 36.7556 19.807 36.7556H18.7412V38.7608H19.807C20.609 38.7715 21.0311 38.3982 21.0311 37.7583ZM21.0522 40.6594L20.1025 39.2941C20.0181 39.3049 19.9231 39.3049 19.8281 39.3049H18.7412V40.6594H18.1081V36.2117H19.8281C20.9784 36.2117 21.6643 36.7983 21.6643 37.7583C21.6643 38.4408 21.316 38.9422 20.6935 39.1661L21.7381 40.6594H21.0522Z" fill="#3D79BD"/>
<path fill-rule="evenodd" clip-rule="evenodd" d="M29.8847 39.0382L28.9349 36.8516L27.9852 39.0382H29.8847ZM30.0957 39.5502H27.753L27.2676 40.6594H26.6239L28.6184 36.2117H29.2409L31.2459 40.6594H30.5811L30.0957 39.5502Z" fill="#3D79BD"/>
<path fill-rule="evenodd" clip-rule="evenodd" d="M43.6978 36.7662H42.1888V36.2117H45.8295V36.7662H44.3204V40.6701H43.6978V36.7662Z" fill="#3D79BD"/>
<path fill-rule="evenodd" clip-rule="evenodd" d="M51.0107 38.7394V36.2117H51.6438V38.7182C51.6438 39.6994 52.087 40.1474 52.8785 40.1474C53.6699 40.1474 54.1237 39.6994 54.1237 38.7182V36.2117H54.7357V38.7394C54.7357 40.0302 54.0392 40.7127 52.8785 40.7127C51.7177 40.7127 51.0107 40.0302 51.0107 38.7394Z" fill="#3D79BD"/>
<path fill-rule="evenodd" clip-rule="evenodd" d="M67.8314 36.7662H66.3224V36.2117H69.963V36.7662H68.454V40.6701H67.8314V36.7662Z" fill="#3D79BD"/>
<path fill-rule="evenodd" clip-rule="evenodd" d="M78.1834 37.7583C78.1834 37.1183 77.7613 36.7556 76.9593 36.7556H75.8935V38.7608H76.9593C77.7613 38.7715 78.1834 38.3982 78.1834 37.7583ZM78.2045 40.6594L77.2547 39.2941C77.1703 39.3049 77.0753 39.3049 76.9804 39.3049H75.8935V40.6594H75.2603V36.2117H76.9804C78.1306 36.2117 78.8165 36.7983 78.8165 37.7583C78.8165 38.4408 78.4683 38.9422 77.8457 39.1661L78.8904 40.6594H78.2045Z" fill="#3D79BD"/>
<path fill-rule="evenodd" clip-rule="evenodd" d="M87.0369 39.0382L86.0872 36.8516L85.1375 39.0382H87.0369ZM87.2585 39.5502H84.9159L84.4304 40.6594H83.7867L85.7812 36.2117H86.4038L88.4087 40.6594H87.7439L87.2585 39.5502Z" fill="#3D79BD"/>
<path fill-rule="evenodd" clip-rule="evenodd" d="M97.4628 36.2117V40.6594H96.9457L94.3076 37.3423V40.6594H93.6744V36.2117H94.1915L96.8296 39.5288V36.2117H97.4628Z" fill="#3D79BD"/>
<mask id="mask0" mask-type="alpha" maskUnits="userSpaceOnUse" x="103" y="36" width="5" height="6">
<path fill-rule="evenodd" clip-rule="evenodd" d="M103.034 36.1689H107.931V41.598H103.034V36.1689Z" fill="white"/>
</mask>
<g mask="url(#mask0)">
<path fill-rule="evenodd" clip-rule="evenodd" d="M105.388 40.1474C106.358 40.1474 107.097 39.4115 107.097 38.4408C107.097 37.4595 106.369 36.7342 105.388 36.7342C104.396 36.7342 103.668 37.4702 103.668 38.4408C103.668 39.4221 104.396 40.1474 105.388 40.1474ZM107.931 41.0753C107.646 41.4166 107.266 41.5981 106.823 41.5981C106.274 41.5981 105.831 41.3526 105.219 40.7127C103.953 40.6381 103.034 39.6994 103.034 38.4408C103.034 37.1395 104.026 36.1689 105.377 36.1689C106.717 36.1689 107.709 37.1395 107.709 38.4408C107.709 39.5501 107.002 40.4033 105.979 40.6487C106.274 40.9687 106.538 41.0967 106.823 41.0967C107.139 41.0967 107.403 40.9687 107.625 40.7127L107.931 41.0753Z" fill="#3D79BD"/>
</g>
<path fill-rule="evenodd" clip-rule="evenodd" d="M113.26 38.7394V36.2117H113.893V38.7182C113.893 39.6994 114.336 40.1474 115.128 40.1474C115.919 40.1474 116.373 39.6994 116.373 38.7182V36.2117H116.985V38.7394C116.985 40.0302 116.288 40.7127 115.128 40.7127C113.967 40.7127 113.26 40.0302 113.26 38.7394Z" fill="#3D79BD"/>
<mask id="mask1" mask-type="alpha" maskUnits="userSpaceOnUse" x="0" y="0" width="191" height="42">
<path fill-rule="evenodd" clip-rule="evenodd" d="M0 41.598H190.905V0.0426636H0V41.598Z" fill="white"/>
</mask>
<g mask="url(#mask1)">
<path fill-rule="evenodd" clip-rule="evenodd" d="M122.884 40.6593H123.517V36.2116H122.884V40.6593Z" fill="#3D79BD"/>
<path fill-rule="evenodd" clip-rule="evenodd" d="M129.458 36.2117H130.091V40.1155H132.476V40.6701H129.458V36.2117Z" fill="#3D79BD"/>
<path fill-rule="evenodd" clip-rule="evenodd" d="M137.805 40.6593H138.438V36.2116H137.805V40.6593Z" fill="#3D79BD"/>
<path fill-rule="evenodd" clip-rule="evenodd" d="M146.194 40.1048C147.281 40.1048 147.977 39.4327 147.977 38.4302C147.977 37.4275 147.281 36.7556 146.194 36.7556H145.002V40.1048H146.194ZM144.379 36.2117H146.236C147.65 36.2117 148.611 37.1183 148.611 38.4408C148.611 39.7635 147.65 40.6701 146.236 40.6701H144.379V36.2117Z" fill="#3D79BD"/>
<path fill-rule="evenodd" clip-rule="evenodd" d="M156.704 39.0382L155.755 36.8516L154.805 39.0382H156.704ZM156.926 39.5502H154.583L154.098 40.6594H153.454L155.449 36.2117H156.071L158.076 40.6594H157.411L156.926 39.5502Z" fill="#3D79BD"/>
<path fill-rule="evenodd" clip-rule="evenodd" d="M165.167 40.1048C166.254 40.1048 166.951 39.4327 166.951 38.4302C166.951 37.4275 166.254 36.7556 165.167 36.7556H163.975V40.1048H165.167ZM163.342 36.2117H165.199C166.613 36.2117 167.574 37.1183 167.574 38.4408C167.574 39.7635 166.613 40.6701 165.199 40.6701H163.342V36.2117Z" fill="#3D79BD"/>
</g>
</svg>
