<svg width="19" height="16" viewBox="0 0 19 16" fill="none" xmlns="http://www.w3.org/2000/svg">
<path fill-rule="evenodd" clip-rule="evenodd" d="M8.63255 14.8459C8.92226 15.1472 9.23043 15.4676 9.66003 15.4676C10.1214 15.4676 10.4893 15.0981 10.8065 14.7797C10.8376 14.7484 10.8683 14.7176 10.8985 14.6877L16.0775 9.56263C16.1776 9.46352 16.2785 9.3651 16.3793 9.26676C17.1847 8.48067 17.9852 7.69944 18.3855 6.61016C19.2862 4.21475 17.9352 1.48511 15.5146 0.593796C14.2198 0.14814 12.6436 0.259554 11.4614 0.983745C10.8979 1.35553 10.4127 1.84363 9.94047 2.31866C9.84665 2.41305 9.75334 2.50691 9.66003 2.59925C9.556 2.49631 9.45331 2.39204 9.35072 2.28788C8.78712 1.71565 8.22658 1.14652 7.46459 0.816624C6.05725 0.0924325 4.31215 0.203847 2.96111 1.03945C0.821961 2.32071 0.0338533 5.10607 1.21602 7.27864C1.77895 8.28137 7.97123 14.242 8.47787 14.6877C8.52923 14.7385 8.58059 14.7919 8.63255 14.8459ZM1.83524 5.05036C1.83524 3.21203 3.52405 1.59652 5.38173 1.59652C6.78907 1.59652 7.68976 2.43213 8.53416 3.37915C8.87192 3.71339 9.20968 3.99193 9.66003 3.99193C10.1436 3.99193 10.461 3.66306 10.755 3.35846C10.8033 3.30847 10.8509 3.25914 10.8985 3.21203C11.6866 2.37642 12.4747 1.70794 13.6569 1.59652C15.0642 1.48511 16.4715 2.32071 17.0908 3.54627C17.7663 4.82753 17.4848 6.38733 16.4715 7.44576C16.2464 7.7243 11.6866 12.1252 9.66003 14.0749C9.47877 13.8955 8.80756 13.2456 7.94541 12.4107C6.39772 10.912 4.23474 8.81754 3.18629 7.78001C2.39818 7.00011 1.83524 6.1645 1.83524 5.05036Z" fill="#4A4A4A"/>
<mask id="mask0" mask-type="alpha" maskUnits="userSpaceOnUse" x="0" y="0" width="19" height="16">
<path fill-rule="evenodd" clip-rule="evenodd" d="M8.63255 14.8459C8.92226 15.1472 9.23043 15.4676 9.66003 15.4676C10.1214 15.4676 10.4893 15.0981 10.8065 14.7797C10.8376 14.7484 10.8683 14.7176 10.8985 14.6877L16.0775 9.56263C16.1776 9.46352 16.2785 9.3651 16.3793 9.26676C17.1847 8.48067 17.9852 7.69944 18.3855 6.61016C19.2862 4.21475 17.9352 1.48511 15.5146 0.593796C14.2198 0.14814 12.6436 0.259554 11.4614 0.983745C10.8979 1.35553 10.4127 1.84363 9.94047 2.31866C9.84665 2.41305 9.75334 2.50691 9.66003 2.59925C9.556 2.49631 9.45331 2.39204 9.35072 2.28788C8.78712 1.71565 8.22658 1.14652 7.46459 0.816624C6.05725 0.0924325 4.31215 0.203847 2.96111 1.03945C0.821961 2.32071 0.0338533 5.10607 1.21602 7.27864C1.77895 8.28137 7.97123 14.242 8.47787 14.6877C8.52923 14.7385 8.58059 14.7919 8.63255 14.8459ZM1.83524 5.05036C1.83524 3.21203 3.52405 1.59652 5.38173 1.59652C6.78907 1.59652 7.68976 2.43213 8.53416 3.37915C8.87192 3.71339 9.20968 3.99193 9.66003 3.99193C10.1436 3.99193 10.461 3.66306 10.755 3.35846C10.8033 3.30847 10.8509 3.25914 10.8985 3.21203C11.6866 2.37642 12.4747 1.70794 13.6569 1.59652C15.0642 1.48511 16.4715 2.32071 17.0908 3.54627C17.7663 4.82753 17.4848 6.38733 16.4715 7.44576C16.2464 7.7243 11.6866 12.1252 9.66003 14.0749C9.47877 13.8955 8.80756 13.2456 7.94541 12.4107C6.39772 10.912 4.23474 8.81754 3.18629 7.78001C2.39818 7.00011 1.83524 6.1645 1.83524 5.05036Z" fill="white"/>
</mask>
<g mask="url(#mask0)">
</g>
</svg>
