<svg width="24" height="20" viewBox="0 0 24 20" fill="none" xmlns="http://www.w3.org/2000/svg">
<path d="M12.2027 19.538C11.5627 19.538 11.136 18.975 10.7094 18.5528C10.0694 17.9899 2.24761 10.4607 1.53653 9.19406C0.043276 6.44975 1.03878 2.93141 3.74087 1.31298C5.44745 0.257476 7.65178 0.116742 9.42947 1.03151C10.5672 1.52408 11.3494 2.43885 12.2027 3.28325C12.9137 2.57958 13.6248 1.80555 14.4781 1.24261C15.9714 0.327843 17.9624 0.187109 19.5978 0.750044C22.6555 1.87591 24.362 5.32389 23.2243 8.34966C22.6555 9.89773 21.4466 10.9532 20.3089 12.0791C18.8157 13.5568 14.407 17.9195 13.767 18.5528C13.3404 18.975 12.8426 19.538 12.2027 19.538Z" fill="#D65E5B"/>
<mask id="mask0" mask-type="alpha" maskUnits="userSpaceOnUse" x="0" y="0" width="24" height="20">
<path d="M12.2027 19.538C11.5627 19.538 11.136 18.975 10.7094 18.5528C10.0694 17.9899 2.24761 10.4607 1.53653 9.19406C0.043276 6.44975 1.03878 2.93141 3.74087 1.31298C5.44745 0.257476 7.65178 0.116742 9.42947 1.03151C10.5672 1.52408 11.3494 2.43885 12.2027 3.28325C12.9137 2.57958 13.6248 1.80555 14.4781 1.24261C15.9714 0.327843 17.9624 0.187109 19.5978 0.750044C22.6555 1.87591 24.362 5.32389 23.2243 8.34966C22.6555 9.89773 21.4466 10.9532 20.3089 12.0791C18.8157 13.5568 14.407 17.9195 13.767 18.5528C13.3404 18.975 12.8426 19.538 12.2027 19.538Z" fill="white"/>
</mask>
<g mask="url(#mask0)">
</g>
</svg>
