<svg width="17" height="16" viewBox="0 0 17 16" fill="none" xmlns="http://www.w3.org/2000/svg">
<path d="M4.79916 0.60825C3.85245 1.01656 3.02078 1.57543 2.30352 2.28305C1.58808 2.99247 1.02559 3.82234 0.615477 4.76724C0.20536 5.71575 0 6.72809 0 7.79886C0 8.87323 0.20536 9.88618 0.615477 10.8305C1.02559 11.779 1.58868 12.6016 2.30352 13.305C3.01837 14.0084 3.85065 14.5679 4.79916 14.978C5.75309 15.3881 6.77145 15.5935 7.8651 15.5935C8.54983 15.5935 9.21469 15.5068 9.85065 15.3357C10.4926 15.1647 11.0967 14.9292 11.6646 14.6263L16.0139 16L14.595 11.8127C14.9563 11.231 15.2352 10.5986 15.4303 9.91569C15.6314 9.23637 15.7296 8.52695 15.7296 7.79825C15.7296 6.72749 15.5242 5.71515 15.1087 4.76664C14.6926 3.82174 14.1301 2.99187 13.4207 2.28244C12.7148 1.57483 11.8814 1.01596 10.925 0.607648C9.97109 0.201144 8.95092 0 7.8651 0C6.77326 0.000602228 5.75369 0.201746 4.79916 0.60825Z" fill="#3D79BD"/>
<path fill-rule="evenodd" clip-rule="evenodd" d="M4 7.38237C4 6.92835 4.10334 6.58446 4.31002 6.35067C4.51669 6.11689 4.81315 6 5.19941 6C5.59243 6 5.89906 6.11689 6.11929 6.35067C6.33952 6.58446 6.44963 6.92835 6.44963 7.38237C6.44963 7.82283 6.33782 8.16164 6.11421 8.39881C5.89059 8.63598 5.58566 8.75457 5.19941 8.75457C4.85381 8.75457 4.56752 8.64784 4.34051 8.43439C4.1135 8.22093 4 7.87026 4 7.38237ZM9.53963 7.38237C9.53963 6.92835 9.64296 6.58446 9.84964 6.35067C10.0563 6.11689 10.3528 6 10.739 6C11.1321 6 11.4387 6.11689 11.6589 6.35067C11.8791 6.58446 11.9893 6.92835 11.9893 7.38237C11.9893 7.82283 11.8774 8.16164 11.6538 8.39881C11.4302 8.63598 11.1253 8.75457 10.739 8.75457C10.3934 8.75457 10.1071 8.64784 9.88013 8.43439C9.65313 8.22093 9.53963 7.87026 9.53963 7.38237Z" fill="white"/>
</svg>
