<svg width="15" height="15" viewBox="0 0 15 15" fill="none" xmlns="http://www.w3.org/2000/svg">
<path fill-rule="evenodd" clip-rule="evenodd" d="M10.7265 9.53625C10.4895 9.4935 10.2472 9.56925 10.077 9.7395L8.93325 10.8848C6.91275 9.75675 5.23875 8.08125 4.1115 6.05925L5.256 4.914C5.42625 4.74375 5.50125 4.50225 5.45925 4.266L4.79775 0.60225C4.73475 0.2535 4.43175 0 4.077 0H1.482C0.76062 0 0 0 0 1.48275C0 8.89575 6.1455 14.6325 13.5 15C14.8703 15 14.9888 13.7549 14.999 13.5335C14.9997 13.6821 15 13.6969 15 13.5C15 13.4995 15.0001 13.5114 14.999 13.5335L14.9975 13.1101C14.9953 12.5117 14.9919 11.5457 14.9872 10.9192C14.985 10.5675 14.7322 10.2667 14.3865 10.2037L10.7265 9.53625ZM10.6494 5.85795C10.5789 5.61345 10.4649 5.3817 10.3059 5.16795C10.1589 4.9497 9.98265 4.7697 9.7839 4.6212C9.58065 4.47495 9.37065 4.3647 9.1539 4.29045C9.0144 4.2657 8.9109 4.27845 8.84115 4.32795C8.7624 4.38645 8.71515 4.46145 8.6964 4.5537C8.67765 4.64895 8.6964 4.73745 8.75415 4.8177C8.7834 4.8717 8.8419 4.91595 8.92215 4.95045L8.9229 4.9512C9.0264 4.99395 9.1539 5.05695 9.3054 5.13645C9.45765 5.2182 9.6039 5.36295 9.7494 5.57145C9.89115 5.7792 9.9789 5.9697 10.0074 6.14145C10.0351 6.31245 10.0479 6.45345 10.0449 6.56295C10.0539 6.6537 10.0757 6.7257 10.1079 6.77445C10.1627 6.8517 10.2392 6.8967 10.3344 6.9147C10.4267 6.93045 10.5159 6.9147 10.5991 6.85995C10.6674 6.80595 10.7177 6.7107 10.7409 6.57195C10.7499 6.34245 10.7191 6.10545 10.6494 5.85795ZM14.9597 5.39865C15.0077 5.8074 15.0122 6.1779 14.9747 6.4989C14.9335 6.84015 14.881 7.10565 14.8135 7.3104C14.7227 7.5054 14.6425 7.5759 14.605 7.60065C14.5127 7.66665 14.4235 7.6959 14.3237 7.6959V7.69515C14.2915 7.69515 14.26 7.69215 14.2255 7.68615C14.0852 7.6614 13.9825 7.5954 13.915 7.4844C13.8347 7.37565 13.8175 7.2114 13.8565 6.9894C13.9405 6.74715 13.9855 6.4629 13.9945 6.1389C13.999 5.8254 13.9682 5.51415 13.9007 5.18415C13.8272 4.8549 13.7132 4.51665 13.5595 4.17615C13.4185 3.85215 13.2295 3.51615 12.982 3.1464L12.955 3.10365L12.9452 3.10215C12.7127 2.7684 12.4652 2.47515 12.2117 2.23065C11.944 1.9719 11.665 1.74765 11.3822 1.56315C11.0897 1.37565 10.801 1.23765 10.5227 1.1499C10.2227 1.05615 9.94973 1.0104 9.68948 1.0104C9.41798 0.9609 9.30398 0.87315 9.25972 0.80865C9.17498 0.69165 9.14797 0.56865 9.17198 0.42915C9.19672 0.29265 9.26573 0.18615 9.38272 0.10365C9.43523 0.0631497 9.53648 0.0158997 9.74123 0.000149707C9.96772 0.00464971 10.24 0.0436497 10.543 0.11865C10.855 0.19215 11.1992 0.3249 11.569 0.5169C11.9425 0.71115 12.3115 0.9654 12.6962 1.29915C13.0832 1.63215 13.4597 2.05965 13.8145 2.57265C14.1775 3.08715 14.4482 3.58815 14.6215 4.0599C14.7925 4.53615 14.9072 4.9869 14.9597 5.39865ZM12.5368 5.00565C12.4169 4.5849 12.2189 4.1889 11.9451 3.8229C11.7006 3.4614 11.3998 3.1479 11.0548 2.8899C10.7031 2.63715 10.3491 2.4519 9.9921 2.32665C9.91935 2.3139 9.8526 2.3079 9.7926 2.3079C9.6816 2.3079 9.59385 2.32965 9.53385 2.3739C9.4191 2.45865 9.3516 2.5659 9.32385 2.7009C9.2961 2.8374 9.32385 2.9604 9.41235 3.0834C9.4386 3.12915 9.50235 3.1974 9.65235 3.2634C9.8241 3.3324 10.0349 3.4329 10.3393 3.59415C10.6221 3.74865 10.8906 4.0104 11.1614 4.3974C11.4276 4.7904 11.5836 5.13465 11.6331 5.4489C11.6826 5.7669 11.7051 6.01815 11.7006 6.1989C11.7178 6.37815 11.7606 6.4719 11.7899 6.5169C11.8664 6.62565 11.9713 6.69165 12.1138 6.7164C12.1476 6.7224 12.1806 6.7254 12.2128 6.7254C12.3118 6.7254 12.4041 6.69615 12.4866 6.6444C12.5871 6.56715 12.6576 6.42015 12.6929 6.2259C12.7086 5.8374 12.6553 5.42565 12.5368 5.00565Z" fill="white"/>
</svg>
