<svg width="40" height="38" viewBox="0 0 40 38" fill="none" xmlns="http://www.w3.org/2000/svg">
<path fill-rule="evenodd" clip-rule="evenodd" d="M22 38C31.9411 38 40 29.9411 40 20C40 10.0589 31.9411 2 22 2C12.0589 2 4 10.0589 4 20C4 29.9411 12.0589 38 22 38Z" fill="#3D79BD"/>
<path fill-rule="evenodd" clip-rule="evenodd" d="M19 37C28.9411 37 37 28.9411 37 19C37 9.05887 28.9411 1 19 1C9.05887 1 1 9.05887 1 19C1 28.9411 9.05887 37 19 37Z" fill="white" stroke="#3C6595"/>
<path fill-rule="evenodd" clip-rule="evenodd" d="M29.0854 21.5778C29.197 21.6622 29.3137 21.7404 29.4348 21.8119C29.9436 22.0275 29.9995 22.7406 29.9995 23.0333V23.9912C30.0052 24.268 29.9598 24.5436 29.8653 24.8054C29.7436 25.0136 29.561 25.1836 29.3398 25.2951C29.3238 25.3053 29.3082 25.3153 29.2929 25.3251C29.2251 25.3684 29.1645 25.4071 29.1189 25.4441L23.0972 30.4705C22.853 30.6683 22.5787 30.8298 22.2837 30.9494C21.9999 31.0457 21.6843 30.9986 21.445 30.8244C21.1728 30.6424 20.9753 30.3763 20.8859 30.0713C19.9486 30.2479 18.9977 30.352 18.0428 30.3827C17.085 30.3537 16.1314 30.2504 15.1913 30.074C15.1313 30.4636 14.8637 30.7958 14.484 30.9521C14.3942 30.9827 14.2998 30.9989 14.2044 31C13.7068 31 13.1868 30.6088 12.9883 30.4412L10.1704 27.7803L10.1285 27.7511C9.29031 27.0438 8.65449 26.1457 8.28056 25.1407C8.12499 24.7112 8.03096 24.2637 8.001 23.8103C7.99967 23.7943 7.99967 23.7783 8.001 23.7624V23.7304V23.5043C8.001 19.7098 12.5047 16.6232 18.04 16.6072C19.1237 16.6479 20.2019 16.7752 21.2633 16.9877H21.3024L21.6323 16.6285C21.8615 16.3824 22.1425 16.1847 22.457 16.0485C22.7409 15.9532 23.056 16.0002 23.2957 16.1735C23.6457 16.3927 23.868 16.7549 23.8967 17.1527V17.6849L23.9583 17.7328L29.0854 21.5778ZM29.3509 24.5873C29.411 24.3939 29.4393 24.1928 29.4348 23.9912L29.4264 23.028C29.4264 22.7193 29.3426 22.3548 29.186 22.2882C29.0291 22.202 28.8795 22.1042 28.7387 21.9955L23.4439 18.0122C23.3771 17.962 23.338 17.8856 23.3376 17.8046V17.1394C23.3054 16.9209 23.1747 16.7266 22.9798 16.6072C22.8921 16.5355 22.7723 16.5105 22.6611 16.5407C22.4315 16.6444 22.2261 16.791 22.0572 16.9718L21.7134 17.3683C21.5712 17.5036 21.37 17.5668 21.171 17.5386C20.1411 17.3312 19.0947 17.2065 18.0428 17.166C13.4692 17.166 9.64202 19.332 8.75302 22.2217H13.3602C13.5146 22.2217 13.6397 22.3409 13.6397 22.4878C13.6397 22.6348 13.5146 22.7539 13.3602 22.7539H8.62722C8.58384 22.9992 8.5614 23.2475 8.56012 23.4963H12.3537C12.5081 23.4963 12.6333 23.6154 12.6333 23.7624C12.6333 23.9093 12.5081 24.0285 12.3537 24.0285H8.59087C8.6235 24.28 8.67868 24.5283 8.75581 24.7709H11.0147C11.169 24.7709 11.2942 24.89 11.2942 25.0369C11.2942 25.1839 11.169 25.303 11.0147 25.303H8.95151C9.06456 25.5607 9.19821 25.8098 9.35128 26.0481H10.3409C10.4953 26.0481 10.6205 26.1672 10.6205 26.3142C10.6205 26.4611 10.4953 26.5803 10.3409 26.5803H9.74545C9.9636 26.8449 10.2029 27.0931 10.4611 27.3226C10.482 27.3329 10.5009 27.3464 10.517 27.3626L13.3574 30.0527C13.6649 30.3055 14.073 30.529 14.2939 30.4545C14.5253 30.3378 14.6656 30.1049 14.6545 29.8558V29.7574C14.6528 29.6765 14.6898 29.5993 14.755 29.5476C14.8203 29.4958 14.9068 29.4751 14.99 29.4913C15.9952 29.6925 17.0164 29.8127 18.0428 29.8505C19.0647 29.8089 20.0812 29.6861 21.0816 29.4833C21.1638 29.4679 21.249 29.4884 21.3136 29.5392C21.3786 29.5893 21.4165 29.6645 21.4171 29.7441V29.8532C21.45 30.0714 21.5805 30.2654 21.7749 30.3853C21.8635 30.4576 21.9848 30.4817 22.0964 30.4492C22.3247 30.3512 22.5374 30.2231 22.7282 30.0687L28.7415 25.0369C28.8311 24.9709 28.9244 24.9096 29.0211 24.8533C29.2112 24.7309 29.3146 24.6618 29.3509 24.5873Z" fill="#3D79BD"/>
<path fill-rule="evenodd" clip-rule="evenodd" d="M25.0759 21.6179C25.2305 21.2439 25.5953 21 26 21C26.265 20.9993 26.5193 21.1041 26.707 21.2912C26.8946 21.4783 27 21.7324 27 21.9974C27.001 22.4021 26.7581 22.7675 26.3845 22.9231C26.0109 23.0787 25.5804 22.9938 25.2938 22.708C25.0073 22.4222 24.9213 21.9919 25.0759 21.6179ZM25.5524 22.1828C25.6274 22.3639 25.804 22.4819 26 22.4819C26.2676 22.4819 26.4845 22.265 26.4845 21.9974C26.4845 21.8014 26.3665 21.6248 26.1854 21.5498C26.0044 21.4748 25.796 21.5162 25.6574 21.6548C25.5188 21.7934 25.4774 22.0018 25.5524 22.1828Z" fill="#3D79BD"/>
<path d="M20.7508 19.3153C19.2598 18.916 17.7209 18.8958 16.2236 19.2558C16.074 19.2928 15.9763 19.4758 16.005 19.6651C16.0343 19.8542 16.1791 19.9778 16.3288 19.9414C17.7529 19.6012 19.2162 19.6202 20.6346 19.9974C20.6538 20.0009 20.6734 20.0009 20.6927 19.9974C20.8455 20.0177 20.9824 19.8775 20.9985 19.6843C21.0145 19.4911 20.9036 19.3181 20.7508 19.2978V19.3153Z" fill="#3D79BD"/>
<path fill-rule="evenodd" clip-rule="evenodd" d="M21.733 12.8407C21.1905 14.1488 19.9133 15.0011 18.4972 15C16.5695 14.9911 15.0089 13.4305 15 11.5028C14.9989 10.0867 15.8512 8.80946 17.1593 8.26704C18.4674 7.72462 19.9735 8.02389 20.9748 9.02521C21.9761 10.0265 22.2754 11.5326 21.733 12.8407ZM21.4593 11.4965C21.4559 9.86344 20.1303 8.54186 18.4972 8.54334C16.8617 8.55226 15.5405 9.88067 15.5405 11.5163C15.548 13.1493 16.8768 14.4676 18.5098 14.4622C20.1428 14.4567 21.4628 13.1295 21.4593 11.4965Z" fill="#3D79BD"/>
<path fill-rule="evenodd" clip-rule="evenodd" d="M18.7783 10.9959C18.6348 10.8613 18.4584 10.781 18.2735 10.766L18.144 10.7442V9.79728C18.3286 9.80652 18.5046 9.88928 18.6417 10.0313L18.9042 9.73605C18.7091 9.51964 18.45 9.39529 18.1784 9.38776V9H17.8672V9.39184C17.3801 9.44354 17.0915 9.8 17.0915 10.2925C17.0812 10.514 17.1543 10.73 17.2922 10.8857C17.4367 11.0245 17.6142 11.1103 17.8018 11.132L17.9004 11.1456V12.1116C17.6649 12.1117 17.439 12.0039 17.2732 11.8122L17 12.1211C17.228 12.3876 17.5415 12.5351 17.8672 12.5293V13H18.1784V12.5224C18.669 12.4694 18.9993 12.1429 18.9993 11.6245C19.0086 11.3882 18.928 11.1589 18.7783 10.9959ZM17.9004 10.7129C17.7882 10.7046 17.6808 10.6571 17.5928 10.5769C17.5198 10.5002 17.4816 10.3893 17.4894 10.2762C17.4875 10.1505 17.5299 10.0293 17.607 9.93994C17.6842 9.85057 17.7895 9.80061 17.8993 9.80136L17.9004 10.7129ZM18.138 11.181V12.1102L18.144 12.1034C18.4255 12.0735 18.593 11.9075 18.5871 11.6395C18.5935 11.5194 18.5545 11.4019 18.4801 11.317C18.3815 11.2314 18.2618 11.1838 18.138 11.181Z" fill="#3D79BD"/>
</svg>
