<svg width="15" height="14" viewBox="0 0 15 14" fill="none" xmlns="http://www.w3.org/2000/svg">
<path fill-rule="evenodd" clip-rule="evenodd" d="M14.5702 7.06204C14.3315 7.06204 14.1404 7.24808 14.1404 7.48059V11.2874C14.1404 12.3228 13.2747 13.1631 12.2146 13.1631H2.78543C1.72223 13.1631 0.859585 12.3198 0.859585 11.2874V7.41855C0.859585 7.18604 0.668544 7 0.429792 7C0.191041 7 0 7.18604 0 7.41855V11.2874C0 12.7848 1.2511 14 2.78543 14H12.2146C13.7522 14 15 12.7818 15 11.2874V7.48059C15 7.25111 14.809 7.06204 14.5702 7.06204Z" fill="#3D79BD"/>
<path fill-rule="evenodd" clip-rule="evenodd" d="M6.7145 10.8681C6.7931 10.9538 6.89885 11 7.00147 11C7.10413 11 7.20988 10.9572 7.28834 10.8681L9.87988 8.03809C10.04 7.8632 10.04 7.58296 9.87988 7.40807C9.71984 7.2333 9.4631 7.2333 9.30306 7.40807L7.40927 9.47951V0.445317C7.40927 0.197942 7.228 0 7.00147 0C6.77494 0 6.59372 0.197942 6.59372 0.445317V9.47951L4.69694 7.40807C4.53678 7.2333 4.28001 7.2333 4.12 7.40807C3.96 7.58296 3.96 7.8632 4.12 8.03809L6.7145 10.8681Z" fill="#3D79BD"/>
</svg>
