<svg width="84" height="84" viewBox="0 0 84 84" fill="none" xmlns="http://www.w3.org/2000/svg">
<path fill-rule="evenodd" clip-rule="evenodd" d="M42 83C64.6437 83 83 64.6437 83 42C83 19.3563 64.6437 1 42 1C19.3563 1 1 19.3563 1 42C1 64.6437 19.3563 83 42 83Z" fill="#D65E5B" fill-opacity="0.0618773" stroke="url(#paint0_linear)" stroke-width="2"/>
<path fill-rule="evenodd" clip-rule="evenodd" d="M58.5518 32.7356C55.5577 30.0422 51.9451 28.1293 48.0345 27.1667C49.4998 26.2162 50.2277 24.461 49.8654 22.7525C49.503 21.044 48.1252 19.7354 46.4003 19.4615C44.6754 19.1876 42.9601 20.005 42.0863 21.5172C41.2125 20.005 39.4972 19.1876 37.7722 19.4615C36.0473 19.7354 34.6695 21.044 34.3072 22.7525C33.9448 24.461 34.6728 26.2162 36.138 27.1667C26.1263 29.674 18.7116 38.1162 17.5173 48.3678C17.3569 49.8296 17.3223 51.3024 17.4139 52.7701C17.5741 55.2483 18.1089 57.6878 19.0001 60.0058C19.0081 60.0376 19.0196 60.0685 19.0345 60.0977C19.0557 60.1505 19.0744 60.2033 19.0929 60.2556C19.1146 60.317 19.1361 60.3778 19.161 60.4368C20.2119 62.9626 22.6839 64.6038 25.4196 64.592L58.4886 64.9023H58.5575C61.3683 64.9004 63.8966 63.1928 64.9483 60.5862C68.9437 50.886 66.3793 39.7204 58.5518 32.7356ZM45.7357 20.5632C46.8649 20.5144 47.9298 21.0889 48.5089 22.0595C49.0881 23.03 49.0881 24.2401 48.5089 25.2106C47.9298 26.1812 46.8649 26.7558 45.7357 26.7069C45.6123 26.7023 45.4894 26.6889 45.3679 26.6667L45.092 26.6322C43.5589 26.3016 42.5217 24.8682 42.6871 23.3085C42.8525 21.7489 44.1673 20.5649 45.7357 20.5632ZM42.0863 25.7529C41.937 26.0096 41.7617 26.2503 41.5633 26.4713H42.6093C42.4108 26.2503 42.2356 26.0096 42.0863 25.7529ZM38.4368 26.7127C36.7865 26.7275 35.4132 25.4482 35.3113 23.8009C35.2094 22.1537 36.4146 20.7148 38.0541 20.5262C39.6937 20.3376 41.1941 21.4652 41.469 23.0925C41.7438 24.7199 40.6969 26.2777 39.0863 26.6379H38.9024C38.7492 26.6729 38.5936 26.696 38.4368 26.7069V26.7127ZM58.5001 63.7644C60.8656 63.786 63.0028 62.3559 63.8851 60.1609C67.7057 50.912 65.2676 40.2586 57.8047 33.592C54.3619 30.5009 50.0761 28.5061 45.4943 27.8621C45.2841 27.8473 45.075 27.8205 44.8679 27.7816C43.956 27.676 43.0388 27.6222 42.1208 27.6207C41.1916 27.6173 40.263 27.6653 39.3391 27.7644C39.316 27.7686 39.2928 27.7729 39.2696 27.7772C39.1031 27.8081 38.936 27.8391 38.7644 27.8391C28.1478 29.3591 19.8877 37.8411 18.6495 48.4943V48.6609H24.069C24.3864 48.6609 24.6437 48.9182 24.6437 49.2356C24.6437 49.553 24.3864 49.8104 24.069 49.8104H18.5403V52.2012H26.7185C27.0359 52.2012 27.2932 52.4585 27.2932 52.7759C27.2932 53.0933 27.0359 53.3506 26.7185 53.3506H18.615C18.6858 54.1507 18.7971 54.9468 18.9483 55.7356H30.2529C30.5703 55.7356 30.8277 55.9929 30.8277 56.3104C30.8277 56.6278 30.5703 56.8851 30.2529 56.8851H19.2127C19.4144 57.6954 19.662 58.4936 19.9541 59.2759H36.5403C36.8577 59.2759 37.115 59.5332 37.115 59.8506C37.115 60.168 36.8577 60.4253 36.5403 60.4253H20.4483C21.4148 62.2848 23.3354 63.4523 25.4311 63.454L58.5001 63.7644Z" fill="#D65F5C"/>
<path fill-rule="evenodd" clip-rule="evenodd" d="M45.6493 47.1609C44.9552 46.5924 44.1018 46.2531 43.2068 46.1897L42.5804 46.0977V42.0977C43.4737 42.1367 44.3254 42.4863 44.9884 43.0862L46.2585 41.8391C45.3145 40.9249 44.0608 40.3996 42.747 40.3678V38.7299H41.2413V40.3851C38.885 40.6035 37.4884 42.1092 37.4884 44.1897C37.4389 45.1254 37.7925 46.0375 38.4597 46.6954C39.1586 47.2817 40.0176 47.6441 40.9252 47.7356L41.4022 47.7931V51.8736C40.2625 51.874 39.17 51.4187 38.3677 50.6092L37.0459 51.9138C38.1488 53.0394 39.6656 53.6627 41.2413 53.6379V55.6264H42.747V53.6092C45.1206 53.3851 46.7183 52.0058 46.7183 49.8161C46.7635 48.818 46.3735 47.8493 45.6493 47.1609ZM41.4022 45.9655C40.859 45.9304 40.3396 45.7298 39.9137 45.3908C39.5605 45.0669 39.3761 44.5984 39.4137 44.1207C39.4044 43.5899 39.6096 43.0779 39.9828 42.7003C40.356 42.3228 40.8656 42.1118 41.3965 42.1149L41.4022 45.9655ZM42.5516 47.9425V51.8678L42.5804 51.8391C43.9425 51.7126 44.7528 51.0115 44.7241 49.8793C44.7552 49.3721 44.5668 48.876 44.2068 48.5172C43.7297 48.1556 43.1502 47.9544 42.5516 47.9425Z" fill="#D65F5C"/>
<defs>
<linearGradient id="paint0_linear" x1="83" y1="83" x2="83" y2="1" gradientUnits="userSpaceOnUse">
<stop stop-color="#D65E5B"/>
<stop offset="1" stop-color="#EECFCE"/>
</linearGradient>
</defs>
</svg>
