<svg width="16" height="16" viewBox="0 0 16 16" fill="none" xmlns="http://www.w3.org/2000/svg">
<g opacity="0.5">
<path fill-rule="evenodd" clip-rule="evenodd" d="M0 6.47559C0 3.01792 2.89649 0.19043 6.43846 0.19043C9.98043 0.19043 12.8769 3.01792 12.8769 6.47559C12.8769 7.79373 12.454 9.02158 11.7368 10.0348L15.6572 13.8618C16.1143 14.3081 16.1143 15.0285 15.6572 15.4748C15.2 15.921 14.4559 15.921 13.9988 15.4748L10.0784 11.6477C9.04059 12.3475 7.78837 12.7608 6.43846 12.7608C2.89649 12.7608 0 9.93325 0 6.47559ZM10.5357 6.47559C10.5357 4.25314 8.7151 2.47594 6.43846 2.47594C4.16181 2.47594 2.34125 4.25314 2.34125 6.47559C2.34125 8.69801 4.16181 10.4752 6.43846 10.4752C8.7151 10.4752 10.5357 8.69801 10.5357 6.47559Z" fill="black"/>
</g>
</svg>
