<svg width="84" height="84" viewBox="0 0 84 84" fill="none" xmlns="http://www.w3.org/2000/svg">
<path fill-rule="evenodd" clip-rule="evenodd" d="M42 83C64.6437 83 83 64.6437 83 42C83 19.3563 64.6437 1 42 1C19.3563 1 1 19.3563 1 42C1 64.6437 19.3563 83 42 83Z" fill="#508ECA" fill-opacity="0.181244" stroke="url(#paint0_linear)" stroke-width="2"/>
<path fill-rule="evenodd" clip-rule="evenodd" d="M64.7625 46.8188C65.0121 47.0171 65.2729 47.2007 65.5438 47.3688C66.6813 47.875 66.8063 49.55 66.8063 50.2375V52.4875C66.819 53.1376 66.7174 53.785 66.5063 54.4C66.2341 54.8889 65.8259 55.2883 65.3313 55.55C65.2957 55.5741 65.2607 55.5976 65.2265 55.6206C65.0749 55.7224 64.9396 55.8133 64.8375 55.9L51.375 67.7063C50.8291 68.171 50.2159 68.5503 49.5563 68.8313C48.9219 69.0573 48.2162 68.9468 47.6813 68.5375C47.0728 68.11 46.6311 67.485 46.4313 66.7688C44.3357 67.1835 42.21 67.428 40.075 67.5C37.9339 67.4319 35.8018 67.1894 33.7 66.775C33.5659 67.69 32.9676 68.4704 32.1188 68.8375C31.9181 68.9093 31.7069 68.9474 31.4938 68.95C30.3813 68.95 29.2188 68.0312 28.775 67.6375L22.475 61.3875L22.3813 61.3188C20.5075 59.6576 19.086 57.548 18.25 55.1875C17.9022 54.1786 17.692 53.1275 17.625 52.0625C17.6221 52.0251 17.6221 51.9874 17.625 51.95V51.875V51.3438C17.625 42.4313 27.6938 35.1813 40.0688 35.1438C42.4917 35.2393 44.9022 35.5383 47.275 36.0375H47.3625L48.1 35.1938C48.6125 34.6155 49.2406 34.1514 49.9438 33.8313C50.5784 33.6075 51.283 33.7179 51.8188 34.125C52.6012 34.6399 53.0982 35.4906 53.1625 36.425V37.675L53.3 37.7875L64.7625 46.8188ZM65.3563 53.8875C65.4906 53.4333 65.5538 52.961 65.5438 52.4875L65.525 50.225C65.525 49.5 65.3375 48.6438 64.9875 48.4875C64.6366 48.285 64.3023 48.0551 63.9875 47.8L52.15 38.4438C52.0008 38.3258 51.9134 38.1464 51.9125 37.9563V36.3938C51.8404 35.8805 51.5484 35.4242 51.1125 35.1438C50.9164 34.9751 50.6487 34.9164 50.4 34.9875C49.8867 35.2311 49.4276 35.5754 49.05 36L48.2813 36.9313C47.9634 37.2492 47.5135 37.3976 47.0688 37.3313C44.7662 36.8441 42.4267 36.5514 40.075 36.4563C29.85 36.4563 21.2938 41.5438 19.3063 48.3313H29.6063C29.9515 48.3313 30.2313 48.6111 30.2313 48.9563C30.2313 49.3014 29.9515 49.5813 29.6063 49.5813H19.025C18.9281 50.1575 18.8779 50.7407 18.875 51.325H27.3563C27.7015 51.325 27.9813 51.6048 27.9813 51.95C27.9813 52.2952 27.7015 52.575 27.3563 52.575H18.9438C19.0167 53.1657 19.1401 53.7491 19.3125 54.3188H24.3625C24.7077 54.3188 24.9875 54.5986 24.9875 54.9438C24.9875 55.2889 24.7077 55.5688 24.3625 55.5688H19.75C20.0028 56.1741 20.3016 56.7591 20.6438 57.3188H22.8563C23.2015 57.3188 23.4813 57.5986 23.4813 57.9438C23.4813 58.2889 23.2015 58.5688 22.8563 58.5688H21.525C22.0127 59.1903 22.5477 59.7733 23.125 60.3125C23.1717 60.3365 23.2139 60.3682 23.25 60.4063L29.6 66.725C30.2875 67.3188 31.2 67.8438 31.6938 67.6688C32.2111 67.3946 32.5248 66.8475 32.5 66.2625V66.0313C32.4962 65.8414 32.5789 65.66 32.7248 65.5385C32.8707 65.4169 33.064 65.3682 33.25 65.4063C35.4973 65.8789 37.7804 66.1611 40.075 66.25C42.3597 66.1523 44.6322 65.8638 46.8688 65.3875C47.0526 65.3513 47.243 65.3994 47.3875 65.5188C47.5327 65.6365 47.6176 65.8131 47.6188 66V66.2563C47.6925 66.7689 47.9842 67.2246 48.4188 67.5063C48.6169 67.6759 48.8881 67.7325 49.1375 67.6563C49.648 67.4261 50.1235 67.1253 50.55 66.7625L63.9938 54.9438C64.194 54.7886 64.4027 54.6446 64.6188 54.5125C65.0438 54.225 65.275 54.0625 65.3563 53.8875Z" fill="#3D79BD"/>
<path fill-rule="evenodd" clip-rule="evenodd" d="M53.6402 46.5922C54.0152 45.6853 54.8999 45.0938 55.8812 45.0938C56.5238 45.0921 57.1406 45.3462 57.5956 45.8C58.0506 46.2538 58.3062 46.8699 58.3062 47.5125C58.3088 48.4939 57.7195 49.3801 56.8136 49.7574C55.9076 50.1347 54.8636 49.9288 54.1687 49.2357C53.4739 48.5427 53.2653 47.4991 53.6402 46.5922ZM54.7957 47.9622C54.9775 48.4012 55.406 48.6875 55.8812 48.6875C56.5302 48.6875 57.0562 48.1614 57.0562 47.5125C57.0562 47.0373 56.77 46.6088 56.3309 46.4269C55.8918 46.2451 55.3864 46.3456 55.0504 46.6817C54.7143 47.0177 54.6138 47.5231 54.7957 47.9622Z" fill="#3D79BD"/>
<path d="M45.625 41.95C42.2574 41.2366 38.7816 41.2005 35.4 41.8437C35.0621 41.9099 34.8413 42.2369 34.9062 42.575C34.9724 42.9129 35.2993 43.1337 35.6375 43.0687C38.8541 42.4609 42.1591 42.4949 45.3625 43.1687C45.406 43.1749 45.4502 43.1749 45.4937 43.1687C45.8389 43.205 46.1481 42.9546 46.1844 42.6094C46.2206 42.2642 45.9702 41.955 45.625 41.9187V41.95Z" fill="#3D79BD"/>
<path fill-rule="evenodd" clip-rule="evenodd" d="M48.3452 27.5065C47.0909 30.5315 44.1373 32.5025 40.8625 32.5C36.4045 32.4795 32.7956 28.8706 32.775 24.4125C32.7725 21.1377 34.7436 18.1841 37.7685 16.9298C40.7935 15.6754 44.2763 16.3675 46.5919 18.6831C48.9075 20.9987 49.5996 24.4815 48.3452 27.5065ZM47.7124 24.398C47.7044 20.6215 44.639 17.5653 40.8625 17.5687C37.0802 17.5894 34.025 20.6614 34.025 24.4437C34.0423 28.2201 37.1152 31.2688 40.8916 31.2562C44.668 31.2436 47.7205 28.1744 47.7124 24.398Z" fill="#3D79BD"/>
<path fill-rule="evenodd" clip-rule="evenodd" d="M43.0918 23.9898C42.681 23.6533 42.176 23.4525 41.6463 23.415L41.2755 23.3605V20.9932C41.8042 21.0163 42.3082 21.2232 42.7007 21.5782L43.4524 20.8401C42.8936 20.2991 42.1517 19.9882 41.3741 19.9694V19H40.483V19.9796C39.0884 20.1088 38.2619 21 38.2619 22.2313C38.2326 22.7851 38.4418 23.3249 38.8367 23.7143C39.2503 24.0613 39.7588 24.2758 40.2959 24.3299L40.5782 24.3639V26.7789C39.9037 26.7791 39.2571 26.5097 38.7823 26.0306L38 26.8027C38.6528 27.4689 39.5504 27.8378 40.483 27.8231V29H41.3741V27.8061C42.7789 27.6735 43.7245 26.8571 43.7245 25.5612C43.7512 24.9705 43.5204 24.3972 43.0918 23.9898ZM40.5782 23.2823C40.2567 23.2615 39.9493 23.1428 39.6973 22.9422C39.4882 22.7505 39.3791 22.4732 39.4014 22.1905C39.3959 21.8764 39.5173 21.5733 39.7381 21.3499C39.959 21.1264 40.2607 21.0015 40.5748 21.0034L40.5782 23.2823ZM41.2585 24.4524V26.7755L41.2755 26.7585C42.0816 26.6837 42.5612 26.2687 42.5442 25.5986C42.5626 25.2984 42.4511 25.0048 42.2381 24.7925C41.9557 24.5785 41.6128 24.4594 41.2585 24.4524Z" fill="#3D79BD"/>
<defs>
<linearGradient id="paint0_linear" x1="1" y1="1" x2="1" y2="83" gradientUnits="userSpaceOnUse">
<stop stop-color="#70B1E0"/>
<stop offset="1" stop-color="#3D79BD"/>
</linearGradient>
</defs>
</svg>
