<svg width="84" height="84" viewBox="0 0 84 84" fill="none" xmlns="http://www.w3.org/2000/svg">
<path fill-rule="evenodd" clip-rule="evenodd" d="M42 83C64.6437 83 83 64.6437 83 42C83 19.3563 64.6437 1 42 1C19.3563 1 1 19.3563 1 42C1 64.6437 19.3563 83 42 83Z" fill="#D4E896" fill-opacity="0.282637" stroke="url(#paint0_linear)" stroke-width="2"/>
<path fill-rule="evenodd" clip-rule="evenodd" d="M42.0006 19.9365C44.2992 18.0378 47.1626 17 50.1452 17C57.2332 17 63 22.7812 63 29.8858C63 35.6427 61.3983 38.4119 59.9843 40.8549L59.9788 40.8643C59.171 42.2614 58.4075 43.5819 58.0155 45.3672C57.7379 46.6287 57.4665 47.9206 57.1956 49.2125C55.2758 58.3595 53.4622 67 49.0189 67C46.9479 67 46.5894 63.7418 46.0476 58.8097C45.5159 53.9722 44.7876 47.3476 42.0006 47.3476C39.3209 47.3476 38.5639 53.9198 38.0114 58.719L38.0113 58.7203C37.437 63.7058 37.0575 67 34.9788 67C30.5339 67 28.7197 58.3471 26.7994 49.1866C26.5302 47.9026 26.261 46.6191 25.9856 45.3655C25.5932 43.5801 24.8286 42.2583 24.0199 40.8602L24.0169 40.8549L24.0168 40.8547C22.6028 38.4112 21 35.6415 21 29.8847C21 22.78 26.7656 17 33.8526 17C36.8374 17 39.7025 18.0372 42.0006 19.9365ZM56.3689 45.0033C56.8185 42.9581 57.6862 41.4577 58.5259 40.0069C59.8966 37.6383 61.314 35.1886 61.314 29.8864C61.314 23.7131 56.3037 18.6902 50.1452 18.6902C47.3958 18.6902 44.7651 19.7128 42.7104 21.5625L40.4725 27.4135L44.4054 32.86L51.1787 31.9456C51.6351 31.8831 52.0644 32.2082 52.1268 32.6702C52.1892 33.1333 51.8655 33.5587 51.4041 33.6212L44.6442 34.5345L43.3421 38.3037C43.2212 38.653 42.8947 38.8722 42.5457 38.8722C42.4541 38.8722 42.3614 38.857 42.2698 38.8255C41.8303 38.6728 41.597 38.1911 41.7493 37.7499L43.0774 33.9052L39.1714 28.4953L35.316 29.4458L34.8844 33.8483C34.8417 34.2849 34.4747 34.6111 34.0465 34.6111C34.0195 34.6111 33.9914 34.61 33.9633 34.6072C33.4991 34.5616 33.1607 34.1474 33.2063 33.6832L33.6963 28.6852C33.7317 28.3285 33.9874 28.0327 34.3342 27.9471L38.8921 26.8237L40.9991 21.3163C38.9893 19.6261 36.4766 18.6908 33.852 18.6908C27.6946 18.6908 22.6855 23.7125 22.6855 29.8852C22.6855 35.1849 24.1026 37.6348 25.4727 40.0035L25.4747 40.0069C26.3143 41.4572 27.1821 42.957 27.6317 45.0021C27.9082 46.2614 28.1791 47.5499 28.4489 48.8395L28.4493 48.8417C29.9875 56.1792 31.9016 65.3103 34.9783 65.3103C35.5987 64.9272 36.0427 61.0746 36.3361 58.5257C37.0307 52.4938 37.8181 45.658 42 45.658C46.2977 45.658 47.0553 52.5468 47.7229 58.6254C47.9955 61.1078 48.4069 64.8472 49.0521 65.3098C52.1069 65.2428 54.0112 56.1728 55.5434 48.875L55.5455 48.8649L55.5789 48.706C55.8403 47.4615 56.1015 46.2181 56.3689 45.0033Z" fill="#76804D"/>
<defs>
<linearGradient id="paint0_linear" x1="1" y1="83" x2="83" y2="83" gradientUnits="userSpaceOnUse">
<stop stop-color="#95A653"/>
<stop offset="1" stop-color="#CEE195"/>
</linearGradient>
</defs>
</svg>
