<svg width="26" height="26" viewBox="0 0 26 26" fill="none" xmlns="http://www.w3.org/2000/svg">
<mask id="mask0" mask-type="alpha" maskUnits="userSpaceOnUse" x="0" y="0" width="26" height="27">
<path fill-rule="evenodd" clip-rule="evenodd" d="M0.479736 0.797409H25.4452V26H0.479736V0.797409Z" fill="white"/>
</mask>
<g mask="url(#mask0)">
<path fill-rule="evenodd" clip-rule="evenodd" d="M25.4452 13.4056C25.4452 20.3561 19.8562 26.0018 12.9624 26.0018C6.06269 26.0018 0.479736 20.3561 0.479736 13.4056C0.479736 6.43713 6.06269 0.797409 12.9624 0.797409C19.8562 0.797409 25.4452 6.43713 25.4452 13.4056Z" fill="#3D79BD"/>
</g>
<path fill-rule="evenodd" clip-rule="evenodd" d="M9.2331 8.95078H7V7H9.2331V8.95078ZM7 9.91504H9.2331V18H7V9.91504ZM16.0328 9.72218C16.9034 9.72218 17.6156 9.941 18.1693 10.3786C18.7231 10.8163 19 11.5419 19 12.5556V18H16.7437V13.0823C16.7437 12.657 16.6845 12.3306 16.566 12.1032C16.3496 11.6878 15.9375 11.4801 15.3297 11.4801C14.5827 11.4801 14.0702 11.7842 13.792 12.3924C13.6478 12.7139 13.5757 13.1243 13.5757 13.6237V18H11.3812V9.92987H13.5061V11.1092C13.7894 10.6939 14.0573 10.3947 14.3097 10.2117C14.763 9.88537 15.3374 9.72218 16.0328 9.72218Z" fill="white"/>
</svg>
