<svg width="127" height="96" viewBox="0 0 127 96" fill="none" xmlns="http://www.w3.org/2000/svg">
<g opacity="0.332937">
<path fill-rule="evenodd" clip-rule="evenodd" d="M109.117 0H18.0121C8.0924 0 0 9.07397 0 20.1205V75.8795C0 86.926 8.0924 96 18.0121 96H108.986C118.906 96 126.998 86.926 126.998 75.8795V20.1205C127.129 8.94247 119.037 0 109.117 0ZM18.0121 7.10137H108.986C114.99 7.10137 119.95 12.8877 119.95 20.1205V23.4082H7.17874V20.1205C7.17874 12.8877 12.0081 7.10137 18.0121 7.10137ZM18.0121 88.7671H109.117C115.121 88.7671 119.95 82.9808 119.95 75.8795V30.6411H7.04822V75.7479C7.04822 82.9808 12.0081 88.7671 18.0121 88.7671Z" fill="#3D79BD"/>
<path d="M77.5 20C79.9853 20 82 17.9853 82 15.5C82 13.0147 79.9853 11 77.5 11C75.0147 11 73 13.0147 73 15.5C73 17.9853 75.0147 20 77.5 20Z" fill="#3D79BD"/>
<path d="M90.5 20C92.9853 20 95 17.9853 95 15.5C95 13.0147 92.9853 11 90.5 11C88.0147 11 86 13.0147 86 15.5C86 17.9853 88.0147 20 90.5 20Z" fill="#3D79BD"/>
<path d="M105.5 20C107.985 20 110 17.9853 110 15.5C110 13.0147 107.985 11 105.5 11C103.015 11 101 13.0147 101 15.5C101 17.9853 103.015 20 105.5 20Z" fill="#3D79BD"/>
<path d="M57.6087 45L53.4348 49.1379L49.3913 45L46 48.4914L50.0435 52.5L46 56.5086L49.3913 60L53.4348 55.8621L57.6087 60L61 56.5086L56.8261 52.5L61 48.4914L57.6087 45Z" fill="#3D79BD"/>
<path d="M82 48.4914L78.6087 45L74.5652 49.1379L70.3913 45L67 48.4914L71.1739 52.5L67 56.5086L70.3913 60L74.5652 55.8621L78.6087 60L82 56.5086L77.9565 52.5L82 48.4914Z" fill="#3D79BD"/>
<rect x="47" y="69" width="35" height="5" fill="#3D79BD"/>
</g>
</svg>
