<svg width="84" height="84" viewBox="0 0 84 84" fill="none" xmlns="http://www.w3.org/2000/svg">
<path fill-rule="evenodd" clip-rule="evenodd" d="M42 83C64.6437 83 83 64.6437 83 42C83 19.3563 64.6437 1 42 1C19.3563 1 1 19.3563 1 42C1 64.6437 19.3563 83 42 83Z" fill="#D65E5B" fill-opacity="0.0618773" stroke="url(#paint0_linear)" stroke-width="2"/>
<path fill-rule="evenodd" clip-rule="evenodd" d="M57.5718 32.6993L64.6622 38.8041H64.6805C64.973 39.0551 65.0771 39.4633 64.9408 39.8246C64.8045 40.1858 64.4571 40.4223 64.0724 40.4158H57.5718V57.5582C57.5718 58.0639 57.1634 58.4739 56.6596 58.4739H52.8286C52.3248 58.4739 51.9164 58.0639 51.9164 57.5582C51.9164 57.0525 52.3248 56.6425 52.8286 56.6425H55.7475V39.5001C55.7475 38.9943 56.1559 38.5843 56.6596 38.5843H61.6035L42.4909 22.1501L23.3783 38.5843H28.3221C28.8259 38.5843 29.2343 38.9943 29.2343 39.5001V56.6425H32.1532C32.6569 56.6425 33.0653 57.0525 33.0653 57.5582C33.0653 58.0639 32.6569 58.4739 32.1532 58.4739H28.3221C27.8184 58.4739 27.41 58.0639 27.41 57.5582V40.4158H20.9276C20.5429 40.4223 20.1955 40.1858 20.0592 39.8246C19.9229 39.4633 20.027 39.0551 20.3195 38.8041L41.8828 20.2332C42.229 19.9223 42.7527 19.9223 43.099 20.2332L51.0043 27.034V24.4577C51.0043 23.952 51.4127 23.542 51.9164 23.542H56.6596C57.1634 23.542 57.5718 23.952 57.5718 24.4577V32.6993ZM55.7475 25.3735H52.8286V28.6151L55.7475 31.1303V25.3735ZM35.9903 37.5282C35.4865 37.5282 35.0781 37.9382 35.0781 38.4439V64.0843C35.0781 64.59 35.4865 65 35.9903 65H48.9915C49.4952 65 49.9036 64.59 49.9036 64.0843V38.4439C49.9036 37.9382 49.4952 37.5282 48.9915 37.5282H35.9903ZM40.8308 63.1685H44.1267H44.151C44.5298 61.169 46.0876 59.6051 48.0793 59.2248V43.3034C46.0876 42.9231 44.5298 41.3592 44.151 39.3597H40.8308C40.452 41.3592 38.8942 42.9231 36.9024 43.3034V59.2248C38.8942 59.6051 40.452 61.169 40.8308 63.1685ZM48.055 41.4048C47.0821 41.1012 46.3202 40.3364 46.0179 39.3597H48.055V41.4048ZM36.8964 41.4048C37.8693 41.1012 38.6311 40.3364 38.9335 39.3597H36.8964V41.4048ZM36.9024 61.1173C37.8754 61.4209 38.6372 62.1857 38.9396 63.1624H36.9024V61.1173ZM48.0611 61.1173C47.0881 61.4209 46.3263 62.1857 46.0239 63.1624H48.0611V61.1173ZM42.4909 47.2166C40.2642 47.2166 38.4592 49.0287 38.4592 51.2641C38.4592 53.4995 40.2642 55.3116 42.4909 55.3116C44.7175 55.3116 46.5226 53.4995 46.5226 51.2641C46.5226 49.0287 44.7175 47.2166 42.4909 47.2166ZM40.4509 52.1046C40.7922 52.9335 41.5975 53.4741 42.4909 53.4741C43.7076 53.4741 44.6949 52.4856 44.6983 51.2641C44.7007 50.3672 44.1645 49.5573 43.3398 49.2124C42.5152 48.8675 41.5647 49.0555 40.9322 49.6888C40.2996 50.3222 40.1096 51.2758 40.4509 52.1046Z" fill="#D65E5B"/>
<defs>
<linearGradient id="paint0_linear" x1="83" y1="83" x2="83" y2="1" gradientUnits="userSpaceOnUse">
<stop stop-color="#D65E5B"/>
<stop offset="1" stop-color="#EECFCE"/>
</linearGradient>
</defs>
</svg>
