<svg width="9" height="9" viewBox="0 0 9 9" fill="none" xmlns="http://www.w3.org/2000/svg">
<path fill-rule="evenodd" clip-rule="evenodd" d="M2.27709 1.05295L7.19183 1.05781L0.760421 7.49213C0.553818 7.69874 0.553818 8.03465 0.760421 8.23931C0.967025 8.44592 1.30294 8.44592 1.50808 8.23931L7.94095 1.80645V6.71778C7.94095 7.008 8.17818 7.24474 8.46791 7.24474C8.60937 7.24474 8.7382 7.18981 8.84174 7.08675C8.94043 6.98807 8.99536 6.8573 8.99973 6.71292V0.522586C8.99973 0.240146 8.75667 0 8.46791 0H2.27758C2.13612 0 2.00389 0.0549323 1.90521 0.153616C1.80652 0.2523 1.75159 0.385984 1.75159 0.527447C1.75013 0.817664 1.98687 1.05295 2.27709 1.05295Z" fill="#3D79BD"/>
</svg>
