<svg width="84" height="84" viewBox="0 0 84 84" fill="none" xmlns="http://www.w3.org/2000/svg">
<path fill-rule="evenodd" clip-rule="evenodd" d="M42 83C64.6437 83 83 64.6437 83 42C83 19.3563 64.6437 1 42 1C19.3563 1 1 19.3563 1 42C1 64.6437 19.3563 83 42 83Z" fill="#D4E896" fill-opacity="0.282637" stroke="url(#paint0_linear)" stroke-width="2"/>
<path fill-rule="evenodd" clip-rule="evenodd" d="M65.0431 47.6488H58.0115L56.5565 42.233C55.8037 39.4358 54.0061 37.6527 51.2115 36.9319C50.3292 36.7051 49.5344 36.5227 48.804 36.3701C52.7463 35.3325 54.2192 31.7271 54.2192 28.3427C54.2192 24.1925 52.0962 20.5263 48.8589 18.2802L49.4304 16.3527C49.5421 15.9758 49.4087 15.5698 49.0949 15.331C47.1506 13.8494 44.3744 13 41.4777 13C38.579 13 35.8029 13.8501 33.8598 15.331C33.5466 15.5698 33.4133 15.9771 33.5249 16.3527L34.0958 18.2777C30.8578 20.5238 28.7349 24.1913 28.7349 28.3427C28.7349 31.7024 30.1874 35.2781 34.0652 36.3454L31.7911 36.9319C28.9964 37.6527 27.1988 39.4358 26.4461 42.2343L24.9923 47.6488H17.9569C17.4287 47.6488 17 48.0738 17 48.5989V52.9524C17 53.4775 17.4287 53.9025 17.9569 53.9025H20.2131V61.9166C20.2131 62.4417 20.6418 62.8667 21.17 62.8667C21.6982 62.8667 22.1268 62.4417 22.1268 61.9166V53.9025H60.8744V61.9166C60.8744 62.4417 61.3031 62.8667 61.8313 62.8667C62.3595 62.8667 62.7882 62.4417 62.7882 61.9166V53.9025H65.0431C65.5713 53.9025 66 53.4775 66 52.9524V48.5989C66 48.0738 65.5713 47.6488 65.0431 47.6488ZM41.5006 55.913C37.0347 55.913 33.4012 59.5216 33.4012 63.9575C33.4012 68.3927 37.0347 72 41.5006 72C45.9666 72 49.6001 68.3927 49.6001 63.9575C49.6001 59.5216 45.9666 55.913 41.5006 55.913ZM41.5006 70.0997C38.0898 70.0997 35.3149 67.3444 35.3149 63.9575C35.3149 60.5693 38.0904 57.8133 41.5006 57.8133C44.9109 57.8133 47.6864 60.5699 47.6864 63.9575C47.6864 67.345 44.9115 70.0997 41.5006 70.0997ZM42.4575 63.0073H44.6481C45.1762 63.0073 45.6049 63.433 45.6049 63.9575C45.6049 64.4819 45.1762 64.9076 44.6481 64.9076H42.4575V67.084C42.4575 67.6085 42.0288 68.0342 41.5006 68.0342C40.9725 68.0342 40.5438 67.6085 40.5438 67.084V64.9076H38.3507C37.8225 64.9076 37.3938 64.4819 37.3938 63.9575C37.3938 63.433 37.8225 63.0073 38.3507 63.0073H40.5438V60.8296C40.5438 60.3045 40.9725 59.8795 41.5006 59.8795C42.0288 59.8795 42.4575 60.3045 42.4575 60.8296V63.0073ZM54.7072 42.7233C54.1305 40.5779 52.8668 39.3218 50.7305 38.7714C49.3558 38.4167 48.1884 38.169 47.1933 37.9929L42.8377 47.6481H56.0302L54.7072 42.7233ZM41.4764 39.2528C42.7024 39.2528 43.8864 38.8943 44.9715 38.2703L41.477 46.0158L37.9826 38.2703C39.067 38.8949 40.2503 39.2528 41.4764 39.2528ZM41.4758 25.0464C39.8281 26.865 37.3574 28.0799 34.5928 28.4738C34.7019 33.151 37.9296 37.3525 41.4764 37.3525C43.0769 37.3525 44.5906 36.5424 45.7905 35.228C45.8378 35.1501 45.8977 35.0811 45.9653 35.0202C47.3745 33.3734 48.3052 31.017 48.3619 28.4745C45.5947 28.0811 43.1235 26.865 41.4758 25.0464ZM30.6461 28.3427C30.6461 25.061 32.2179 22.1339 34.6668 20.2121L35.0144 21.3865C35.1637 21.8901 35.697 22.177 36.2028 22.0301C36.7093 21.8818 36.9996 21.3536 36.851 20.85L35.5528 16.4705C37.1316 15.4672 39.2507 14.9003 41.4764 14.9003C43.7014 14.9003 45.8205 15.4672 47.3993 16.4705L46.1018 20.85C45.9532 21.3536 46.2435 21.8818 46.75 22.0301C46.8405 22.056 46.9311 22.0687 47.0211 22.0687C47.4338 22.0687 47.8159 21.8001 47.9384 21.3871L48.2867 20.2115C50.7343 22.1346 52.3055 25.0616 52.3055 28.3434C52.3055 29.9459 51.8953 33.3423 48.6592 34.4255C49.6148 32.7387 50.2023 30.7364 50.2686 28.6252C50.2737 28.6252 50.2788 28.6259 50.2839 28.6259C50.8121 28.6259 51.2408 28.2008 51.2408 27.6757C51.2408 27.1506 50.8121 26.7256 50.2839 26.7256C46.8769 26.7256 43.8086 25.2884 42.2744 22.9764C42.2724 22.9732 42.2697 22.9705 42.267 22.9679C42.2653 22.9663 42.2637 22.9647 42.2623 22.9631C42.2601 22.9598 42.2584 22.9565 42.2567 22.9531L42.2539 22.9478C42.2525 22.9452 42.2509 22.9427 42.2489 22.9403C41.92 22.4907 41.8211 21.9266 41.8147 21.89L41.8145 21.8888C41.7367 21.3713 41.248 21.0134 40.7326 21.0875C40.2095 21.1616 39.8459 21.6437 39.9218 22.1624C39.9333 22.2422 40.0213 22.7984 40.3243 23.4255C38.7047 25.467 35.8405 26.7256 32.6663 26.7256C32.1381 26.7256 31.7094 27.1506 31.7094 27.6757C31.7094 28.2008 32.1381 28.6259 32.6663 28.6259C32.6697 28.6259 32.673 28.6257 32.6762 28.6255L32.6842 28.6252C32.7505 30.7364 33.338 32.7393 34.2936 34.4261C31.0562 33.343 30.6461 29.9459 30.6461 28.3427ZM32.2695 38.772C30.1338 39.3224 28.8695 40.5779 28.2928 42.7245L26.9704 47.6494H40.1164L35.7117 37.8846L32.2695 38.772ZM64.0863 52.0023H18.9137V49.549H25.7233L25.7241 49.5492C25.7244 49.5493 25.7248 49.5494 25.7252 49.5495C25.7255 49.5496 25.7257 49.5497 25.7259 49.5497L25.7265 49.5495C25.7267 49.5494 25.727 49.5493 25.7272 49.5492C25.7274 49.5491 25.7276 49.549 25.7278 49.549H57.2741L57.275 49.5493L57.2751 49.5494C57.2754 49.5495 57.2757 49.5497 57.276 49.5497C57.2767 49.5497 57.2779 49.549 57.2786 49.549H64.0869V52.0023H64.0863ZM42.7548 33.0497C43.1834 32.745 43.7831 32.8432 44.0893 33.2701C44.3967 33.697 44.2972 34.2905 43.8673 34.5965C43.1968 35.0716 42.3363 35.3104 41.4758 35.3104C40.6146 35.3104 39.7547 35.0728 39.083 34.5965C38.653 34.2912 38.5535 33.6983 38.8604 33.2714C39.1678 32.8432 39.7649 32.745 40.1955 33.0497C40.8768 33.5336 42.0728 33.5336 42.7548 33.0497Z" fill="#76804D"/>
<defs>
<linearGradient id="paint0_linear" x1="1" y1="83" x2="83" y2="83" gradientUnits="userSpaceOnUse">
<stop stop-color="#95A653"/>
<stop offset="1" stop-color="#CEE195"/>
</linearGradient>
</defs>
</svg>
