<svg width="84" height="84" viewBox="0 0 84 84" fill="none" xmlns="http://www.w3.org/2000/svg">
<path fill-rule="evenodd" clip-rule="evenodd" d="M42 83C64.6437 83 83 64.6437 83 42C83 19.3563 64.6437 1 42 1C19.3563 1 1 19.3563 1 42C1 64.6437 19.3563 83 42 83Z" fill="#D4E896" fill-opacity="0.282637" stroke="url(#paint0_linear)" stroke-width="2"/>
<path fill-rule="evenodd" clip-rule="evenodd" d="M18.2952 38.7953C18.4779 38.9003 18.7025 38.8997 18.8841 38.793L22.3317 36.7773V65.4125C22.3317 65.7369 22.5947 66 22.9192 66H60.0808C60.4053 66 60.6683 65.7369 60.6683 65.4125V36.7787L64.1162 38.793C64.2077 38.8466 64.3101 38.8733 64.4125 38.8733C64.5135 38.8733 64.6145 38.8472 64.7048 38.7953C64.8875 38.6906 65 38.4964 65 38.2858V33.4393C65 33.2336 64.8924 33.0428 64.7166 32.9364L59.7128 29.9112V19.6345C59.7128 19.3101 59.4497 19.047 59.1253 19.047H51.7078C51.3834 19.047 51.1203 19.3101 51.1203 19.6345V24.7163L41.8058 19.0849C41.7467 19.0493 41.6819 19.0266 41.6145 19.0157C41.465 18.9805 41.3084 19.0048 41.1764 19.0852L18.2834 32.9367C18.1076 33.0431 18 33.2336 18 33.4393V38.2858C18 38.4964 18.1125 38.6906 18.2952 38.7953ZM23.5067 59.5866V56.2085H27.6938V59.5866H23.5067ZM36.6531 47.9345V64.825H46.3469V47.9345C46.3469 45.2621 44.1724 43.0876 41.5 43.0876C38.8276 43.0876 36.6531 45.2621 36.6531 47.9345ZM59.4933 56.2085V59.5866H55.3063V56.2085H59.4933ZM52.2709 55.0335H59.4933V36.0923L41.4911 25.5752L23.5067 36.0903V55.0335H30.7291C31.0535 55.0335 31.3166 55.2965 31.3166 55.621C31.3166 55.9454 31.0535 56.2085 30.7291 56.2085H28.8687V59.5866H32.5495C32.874 59.5866 33.137 59.8496 33.137 60.1741C33.137 60.4985 32.874 60.7616 32.5495 60.7616H23.5067V64.825H35.4781V47.9345C35.4781 44.614 38.1795 41.9126 41.5 41.9126C44.8205 41.9126 47.5219 44.614 47.5219 47.9345V64.825H59.4933V60.7616H50.4505C50.126 60.7616 49.863 60.4985 49.863 60.1741C49.863 59.8496 50.126 59.5866 50.4505 59.5866H54.1312V56.2085H52.2709C51.9465 56.2085 51.6834 55.9454 51.6834 55.621C51.6834 55.2965 51.9465 55.0335 52.2709 55.0335ZM52.2953 20.222H58.5378V29.2008L52.2953 25.4267V20.222ZM41.4911 20.2679L19.175 33.7706V37.2617L41.1945 24.3876C41.2863 24.3339 41.3887 24.3072 41.4911 24.3072C41.5935 24.3072 41.6959 24.3339 41.7874 24.3876L63.825 37.2623V33.7706L41.4911 20.2679Z" fill="#76804D"/>
<path d="M36 32.6154C36 32.9552 36.2497 33.2308 36.5577 33.2308H40.4423V36.7692H36.5577C36.2497 36.7692 36 37.0448 36 37.3846C36 37.7245 36.2497 38 36.5577 38H45.4423C45.7503 38 46 37.7245 46 37.3846C46 37.0448 45.7503 36.7692 45.4423 36.7692H41.5577V33.2308H45.4423C45.7503 33.2308 46 32.9552 46 32.6154C46 32.2755 45.7503 32 45.4423 32H36.5577C36.2497 32 36 32.2755 36 32.6154Z" fill="#76804D"/>
<path fill-rule="evenodd" clip-rule="evenodd" d="M26 45.5821C26 43.6068 27.7943 42 30 42C32.2057 42 34 43.6068 34 45.5821V51.403C34 51.7327 33.7015 52 33.3333 52H26.6667C26.2985 52 26 51.7327 26 51.403V45.5821ZM27.3333 45.5821V50.806H32.6667V45.5821C32.6667 44.2653 31.4704 43.194 30 43.194C28.5296 43.194 27.3333 44.2653 27.3333 45.5821Z" fill="#76804D"/>
<path fill-rule="evenodd" clip-rule="evenodd" d="M58 51.403C58 51.7327 57.7015 52 57.3333 52H50.6667C50.2985 52 50 51.7327 50 51.403V45.5821C50 43.6068 51.7943 42 54 42C56.2057 42 58 43.6068 58 45.5821V51.403ZM54 43.194C52.5296 43.194 51.3333 44.2653 51.3333 45.5821V50.806H56.6667V45.5821C56.6667 44.2653 55.4704 43.194 54 43.194Z" fill="#76804D"/>
<defs>
<linearGradient id="paint0_linear" x1="1" y1="83" x2="83" y2="83" gradientUnits="userSpaceOnUse">
<stop stop-color="#95A653"/>
<stop offset="1" stop-color="#CEE195"/>
</linearGradient>
</defs>
</svg>
