<svg width="25" height="25" viewBox="0 0 25 25" fill="none" xmlns="http://www.w3.org/2000/svg">
<path fill-rule="evenodd" clip-rule="evenodd" d="M25 12.4881C25 19.0394 19.9702 24.4212 13.58 24.9344C13.2279 25 12.8699 25 12.5179 25C11.5811 25 10.6742 24.9045 9.80907 24.7136C4.19451 23.4487 0 18.4487 0 12.4881C0 5.58473 5.61456 0 12.5179 0C19.4212 0 25 5.58473 25 12.4881Z" fill="#3D79BD"/>
<path fill-rule="evenodd" clip-rule="evenodd" d="M14.51 9.34168C14.7105 9.10696 15.1178 8.94018 15.6942 8.94018C16.2331 8.94018 16.8784 9.00813 17.4925 9.18108L18 6.46326C16.9536 6.10501 15.8697 6 14.7481 6C13.6266 6 12.7494 6.16678 12.0351 6.56827C11.3271 6.96359 10.8509 7.40832 10.5815 8.04454C10.312 8.60663 10.1742 9.5764 10.1742 10.7747V11.8433H8V14.9503H10.1742V24.7035C11.089 24.9073 12.0351 25 13.0188 25C13.3885 25 13.7644 25 14.1341 24.9321V14.9503H17.0163V11.8433H14.1341V10.8427C14.1341 10.0767 14.2406 9.60728 14.51 9.34168Z" fill="white"/>
</svg>
