<svg width="40" height="38" viewBox="0 0 40 38" fill="none" xmlns="http://www.w3.org/2000/svg">
<path fill-rule="evenodd" clip-rule="evenodd" d="M22 38C31.9411 38 40 29.9411 40 20C40 10.0589 31.9411 2 22 2C12.0589 2 4 10.0589 4 20C4 29.9411 12.0589 38 22 38Z" fill="#3D79BD"/>
<path fill-rule="evenodd" clip-rule="evenodd" d="M19 37C28.9411 37 37 28.9411 37 19C37 9.05887 28.9411 1 19 1C9.05887 1 1 9.05887 1 19C1 28.9411 9.05887 37 19 37Z" fill="white" stroke="#3C6595"/>
<path fill-rule="evenodd" clip-rule="evenodd" d="M21.8563 10.0916L32.6314 13.2333L33 13.3408V16.8454L29.8554 20.1846L29.827 20.1556V24.0058L28.8771 23.2653L27.482 26.8078V22.7049L24.5473 25.8147L24.3488 26.0267L23.9802 25.9134L22.6872 25.5157L19.6049 28.788L19.4064 29L19.0378 28.8868L7.26183 25.2543C7.10447 25.2067 6.95456 25.1363 6.81666 25.0453C6.30576 24.7155 5.99706 24.1393 6.00002 23.5209C6.00079 23.391 6.01505 23.2615 6.04255 23.1347L6.22686 22.6294C6.37212 22.371 6.57769 22.1536 6.82516 21.9965L14.6484 13.6776C15.2323 13.0536 16.1062 12.8131 16.9168 13.0533L17.2826 13.1607L19.5879 10.7159C20.1718 10.0919 21.0457 9.85139 21.8563 10.0916ZM21.7061 10.6607C21.0982 10.4804 20.4428 10.6605 20.0047 11.1282L12.8195 18.7531H12.8422H12.9046L13.0265 18.7705L13.1427 18.7996L13.2165 18.817L13.9849 19.0551L22.086 10.771L21.7061 10.6607ZM15.0596 14.0899C15.4976 13.6222 16.153 13.4421 16.7609 13.6224L16.8374 13.6456L11.7675 19.0231C11.5211 19.1806 11.3165 19.3981 11.172 19.6561L10.9934 20.1614C10.9736 20.257 10.9612 20.3541 10.9565 20.4517L9.32327 22.1213L8.27129 21.7903H8.23442L8.07847 21.7526L7.97355 21.738H7.897H7.87431L15.0596 14.0899ZM7.46032 24.7084L19.0293 28.2799L19.0378 25.7189L8.09832 22.3536C8.02499 22.3326 7.95005 22.3181 7.87431 22.3101H7.83745C7.77423 22.3047 7.71069 22.3047 7.64747 22.3101H7.59076C7.53032 22.3177 7.47058 22.3303 7.41212 22.3478L7.34123 22.3739C7.2856 22.3961 7.23159 22.4223 7.1796 22.4523H7.15976C6.78366 22.6752 6.55639 23.0906 6.56713 23.5354C6.57102 23.9566 6.78495 24.3465 7.13424 24.5691C7.22197 24.6288 7.31741 24.6757 7.41779 24.7084H7.46032ZM19.3129 25.0859L19.2278 25.1759L9.93291 22.3042L11.0501 21.1602C11.1813 21.5361 11.4307 21.8568 11.759 22.072C11.8968 22.1633 12.0467 22.2337 12.2042 22.281L19.7637 24.6039L19.3129 25.0859ZM19.5964 25.6347V27.9576L22.069 25.3414L20.3677 24.8159L19.5964 25.6347ZM23.9802 25.3066L12.4112 21.7351H12.3686C12.2683 21.7024 12.1728 21.6555 12.0851 21.5958C11.7358 21.3732 11.5219 20.9833 11.518 20.5621C11.5165 20.1265 11.7426 19.7234 12.1106 19.5051H12.1248C12.1794 19.4737 12.2363 19.4465 12.2949 19.4238L12.3601 19.4006C12.4203 19.3809 12.4819 19.3663 12.5444 19.3571H12.5841C12.6483 19.3516 12.7128 19.3516 12.777 19.3571H12.8308C12.9056 19.3651 12.9796 19.3797 13.052 19.4006L23.9802 22.7427V25.3066ZM14.6002 19.2583L24.1815 22.1997L32.1834 13.7066L22.707 10.9424L14.6002 19.2583ZM29.2599 22.8298L28.6304 22.342L28.0492 23.8141V20.7102L29.2599 19.4268V22.8298ZM29.827 19.3774L32.4357 16.6102L32.4329 14.2786L24.5473 22.6585V24.9814L27.4537 21.8948L27.482 21.9239V20.4721L29.827 17.9837V19.3774Z" fill="#3D79BD"/>
<rect x="22.7109" y="18.2914" width="1" height="3" transform="rotate(-74.08 22.7109 18.2914)" fill="#3D79BD"/>
<rect x="18.2676" y="18.381" width="1" height="6" transform="rotate(-74.1 18.2676 18.381)" fill="#3D79BD"/>
</svg>
