<svg width="40" height="38" viewBox="0 0 40 38" fill="none" xmlns="http://www.w3.org/2000/svg">
<path fill-rule="evenodd" clip-rule="evenodd" d="M22 38C31.9411 38 40 29.9411 40 20C40 10.0589 31.9411 2 22 2C12.0589 2 4 10.0589 4 20C4 29.9411 12.0589 38 22 38Z" fill="#3D79BD"/>
<path fill-rule="evenodd" clip-rule="evenodd" d="M19 37C28.9411 37 37 28.9411 37 19C37 9.05887 28.9411 1 19 1C9.05887 1 1 9.05887 1 19C1 28.9411 9.05887 37 19 37Z" fill="white" stroke="#3C6595"/>
<path fill-rule="evenodd" clip-rule="evenodd" d="M7.12012 23.0501V9.08392H15.3431H15.4172L18.3461 11.8358V15.9134H19.0349V13.9702C19.0349 13.6012 19.3277 13.2977 19.6848 13.2977H23.9958C24.3528 13.2977 24.6456 13.6012 24.6456 13.9702V15.9134H25.3502V13.509L25.3517 10.9699C25.3517 10.8605 25.4375 10.7718 25.5433 10.7718L28.6976 10.7671C28.8034 10.7671 28.8892 10.8558 28.8893 10.9652L28.8878 12.9347L28.8863 15.9157C29.4352 15.9297 29.879 16.3952 29.879 16.9659V17.171C29.8789 17.2409 29.843 17.3056 29.7847 17.3412L28.8855 17.8884V18.3991L29.59 17.9704C29.6177 17.9533 29.6492 17.9433 29.6814 17.9433V17.9425C29.7896 17.939 29.8791 18.0288 29.879 18.1406V26.3585C29.879 26.9379 29.4221 27.4109 28.8616 27.4109H28.3667L27.1089 29.8069L25.8593 27.4117H14.819C14.2585 27.4117 13.8015 26.9386 13.8015 26.3592V23.0501H7.12012ZM15.0241 9.48015H7.50345V22.6539H17.9628V12.2437H15.0241V9.48015ZM15.4075 9.61016L17.7891 11.8474H15.4075V9.61016ZM28.5044 12.9347L28.5059 11.1633L25.735 11.168L25.7335 12.9378L28.5044 12.9347ZM8.25065 11.3638V11.76H14.0111V11.3638H8.25065ZM12.5414 13.1421C12.5414 13.0327 12.6273 12.944 12.7331 12.944C13.9734 12.944 14.9829 13.9895 14.9829 15.2734C14.9829 16.5573 13.9734 17.6028 12.7331 17.6028C12.3198 17.6028 11.931 17.4869 11.5981 17.2855C11.5067 17.2303 11.4759 17.1091 11.5292 17.0146L12.5414 15.22V13.1421ZM12.0458 13.0655V13.0663C12.0221 13.0657 11.9985 13.0696 11.9762 13.0779C11.1054 13.4 10.484 14.2631 10.484 15.2726C10.484 15.8532 10.6896 16.3861 11.0298 16.7941C11.0741 16.8493 11.1437 16.8755 11.2119 16.8626C11.2802 16.8497 11.3363 16.7998 11.3588 16.7319C11.3813 16.6641 11.3666 16.589 11.3203 16.5356C11.0377 16.1967 10.8674 15.7566 10.8674 15.2726C10.8673 14.4312 11.3845 13.7177 12.1057 13.4509C12.1937 13.4195 12.2471 13.3273 12.2324 13.2322C12.2176 13.1372 12.1389 13.0669 12.0458 13.0655ZM28.5044 13.3317V13.331L27.311 13.3333L27.3028 26.0961L28.4969 26.0938L28.5044 13.4888V13.3317ZM26.9277 13.3333L26.9194 26.0961L25.732 26.0984L25.7335 13.3356L26.9277 13.3333ZM14.5816 15.0753C14.4906 14.1721 13.7987 13.477 12.9248 13.3805V13.3821V15.0753H14.5816ZM19.6848 13.6939H23.9958C24.147 13.6939 24.2623 13.8138 24.2623 13.9702V15.9134H23.6394V14.7774C23.6394 14.5084 23.4234 14.2859 23.1632 14.2859H20.5166C20.2564 14.2859 20.0411 14.5084 20.0411 14.7774V15.9134H19.4182V13.9702C19.4182 13.8138 19.5335 13.6939 19.6848 13.6939ZM23.1632 14.6822H20.5166C20.4621 14.6822 20.4245 14.721 20.4245 14.7774V15.9134H23.2561V14.7774C23.2561 14.721 23.2176 14.6822 23.1632 14.6822ZM12.8432 15.4715H14.5899C14.4945 16.4482 13.7013 17.2066 12.7331 17.2066C12.4591 17.2066 12.2175 17.106 11.9837 16.9968L12.8432 15.4715ZM25.3502 16.3096H18.3461V19.5862L20.8999 21.1394V20.7958C20.8999 20.5229 21.1187 20.2967 21.3828 20.2967H22.2977C22.5618 20.2967 22.7799 20.5229 22.7799 20.7958V21.1386L25.3494 19.5762L25.3502 16.3096ZM28.8863 16.312C29.2288 16.3254 29.4957 16.6079 29.4957 16.9659V17.0572L28.8855 17.4279L28.8863 16.312ZM8.24616 18.8634V18.4672H17.2201V18.8634H8.24616ZM29.4957 18.4873V26.3585C29.4957 26.7253 29.2163 27.0147 28.8616 27.0147H28.5741L28.8803 26.432L28.8848 18.8588L29.4957 18.4873ZM8.24616 20.3439V19.9476H17.2201V20.3439H8.24616ZM25.3494 20.0366V20.5482L22.7799 22.1099V21.5983L25.3494 20.0366ZM20.8999 21.5983L18.3461 20.0467V20.5575L20.8999 22.1106V21.5983ZM21.3828 20.6929H22.2977C22.3561 20.6929 22.3965 20.7355 22.3965 20.7958V23.0246C22.3965 23.0849 22.3561 23.1275 22.2977 23.1275H21.3828C21.3244 23.1275 21.2832 23.0849 21.2832 23.0246V20.7958C21.2832 20.7355 21.3244 20.6929 21.3828 20.6929ZM25.3487 26.4335L25.3494 21.0079L22.7799 22.5696V23.0246C22.7799 23.2976 22.5618 23.5237 22.2977 23.5237H21.3828C21.1187 23.5237 20.8999 23.2976 20.8999 23.0246V22.5696L18.3461 21.0179V23.0501H14.1848V26.3592C14.1848 26.726 14.4643 27.0155 14.819 27.0155H25.6526L25.3487 26.4335ZM13.2841 21.4281V21.8243H17.2201V21.4281H13.2841ZM27.1096 28.975L28.4138 26.4908L25.8151 26.4947L27.1096 28.975Z" fill="#3D79BD"/>
</svg>
