<svg width="16" height="16" viewBox="0 0 16 16" fill="none" xmlns="http://www.w3.org/2000/svg">
<path fill-rule="evenodd" clip-rule="evenodd" d="M11.4416 10.172C11.1888 10.1264 10.9304 10.2072 10.7488 10.3888L9.5288 11.6104C7.3736 10.4072 5.588 8.62 4.3856 6.4632L5.6064 5.2416C5.788 5.06 5.868 4.8024 5.8232 4.5504L5.1176 0.6424C5.0504 0.2704 4.7272 0 4.3488 0H1.5808C0.811328 0 0 0 0 1.5816C0 9.4888 6.5552 15.608 14.4 16C15.8617 16 15.9881 14.6719 15.999 14.4357C15.9997 14.5942 16 14.61 16 14.4C16 14.3995 16.0001 14.4122 15.999 14.4357L15.9973 13.9839V13.9835L15.9973 13.981C15.995 13.3425 15.9913 12.3143 15.9864 11.6472C15.984 11.272 15.7144 10.9512 15.3456 10.884L11.4416 10.172ZM11.3594 6.24848C11.2842 5.98768 11.1626 5.74048 10.993 5.51248C10.8362 5.27968 10.6482 5.08768 10.4362 4.92928C10.2194 4.77328 9.99536 4.65568 9.76416 4.57648C9.61536 4.55008 9.50496 4.56368 9.43056 4.61648C9.34656 4.67888 9.29616 4.75888 9.27616 4.85728C9.25616 4.95888 9.27616 5.05328 9.33776 5.13888C9.36896 5.19648 9.43136 5.24368 9.51696 5.28048L9.51776 5.28128C9.62816 5.32688 9.76416 5.39408 9.92576 5.47888C10.0882 5.56608 10.2442 5.72048 10.3994 5.94288C10.5506 6.16448 10.6442 6.36768 10.6746 6.55088C10.7042 6.73328 10.7178 6.88368 10.7146 7.00048C10.7242 7.09728 10.7474 7.17408 10.7818 7.22608C10.8402 7.30848 10.9218 7.35648 11.0234 7.37568C11.1218 7.39248 11.217 7.37568 11.3058 7.31728C11.3786 7.25968 11.4322 7.15808 11.457 7.01008C11.4666 6.76528 11.4338 6.51248 11.3594 6.24848ZM15.957 5.75856C16.0082 6.19456 16.013 6.58976 15.973 6.93216C15.929 7.29616 15.873 7.57936 15.801 7.79776C15.7042 8.00576 15.6186 8.08096 15.5786 8.10736C15.4802 8.17776 15.385 8.20896 15.2786 8.20896V8.20816C15.2442 8.20816 15.2106 8.20496 15.1738 8.19856C15.0242 8.17216 14.9146 8.10176 14.8426 7.98336C14.757 7.86736 14.7386 7.69216 14.7802 7.45536C14.8698 7.19696 14.9178 6.89376 14.9274 6.54816C14.9322 6.21376 14.8994 5.88176 14.8274 5.52976C14.749 5.17856 14.6274 4.81776 14.4634 4.45456C14.313 4.10896 14.1114 3.75056 13.8474 3.35616L13.8186 3.31056L13.8082 3.30896C13.5602 2.95296 13.2962 2.64016 13.0258 2.37936C12.7402 2.10336 12.4426 1.86416 12.141 1.66736C11.829 1.46736 11.521 1.32016 11.2242 1.22656C10.9042 1.12656 10.613 1.07776 10.3354 1.07776C10.0458 1.02496 9.92424 0.93136 9.87704 0.86256C9.78664 0.73776 9.75784 0.60656 9.78344 0.45776C9.80984 0.31216 9.88344 0.19856 10.0082 0.11056C10.0642 0.0673597 10.1722 0.0169597 10.3906 0.000159688C10.6322 0.00495969 10.9226 0.0465597 11.2458 0.12656C11.5786 0.20496 11.9458 0.34656 12.3402 0.55136C12.7386 0.75856 13.1322 1.02976 13.5426 1.38576C13.9554 1.74096 14.357 2.19696 14.7354 2.74416C15.1226 3.29296 15.4114 3.82736 15.5962 4.33056C15.7786 4.83856 15.901 5.31936 15.957 5.75856ZM13.3726 5.33936C13.2446 4.89056 13.0334 4.46816 12.7414 4.07776C12.4806 3.69216 12.1598 3.35776 11.7918 3.08256C11.4166 2.81296 11.039 2.61536 10.6582 2.48176C10.5806 2.46816 10.5094 2.46176 10.4454 2.46176C10.327 2.46176 10.2334 2.48496 10.1694 2.53216C10.047 2.62256 9.97504 2.73696 9.94544 2.88096C9.91584 3.02656 9.94544 3.15776 10.0398 3.28896C10.0678 3.33776 10.1358 3.41056 10.2958 3.48096C10.479 3.55456 10.7038 3.66176 11.0286 3.83376C11.3302 3.99856 11.6166 4.27776 11.9054 4.69056C12.1894 5.10976 12.3558 5.47696 12.4086 5.81216C12.4614 6.15136 12.4854 6.41936 12.4806 6.61216C12.499 6.80336 12.5446 6.90336 12.5758 6.95136C12.6574 7.06736 12.7694 7.13776 12.9214 7.16416C12.9574 7.17056 12.9926 7.17376 13.027 7.17376C13.1326 7.17376 13.231 7.14256 13.319 7.08736C13.4262 7.00496 13.5014 6.84816 13.539 6.64096C13.5558 6.22656 13.499 5.78736 13.3726 5.33936Z" fill="#3D79BD"/>
</svg>
