<svg width="26" height="26" viewBox="0 0 26 26" fill="none" xmlns="http://www.w3.org/2000/svg">
<mask id="mask0" mask-type="alpha" maskUnits="userSpaceOnUse" x="0" y="0" width="26" height="27">
<path fill-rule="evenodd" clip-rule="evenodd" d="M0.479736 0.797409H25.4452V26H0.479736V0.797409Z" fill="white"/>
</mask>
<g mask="url(#mask0)">
<path fill-rule="evenodd" clip-rule="evenodd" d="M25.4452 13.4056C25.4452 20.3561 19.8562 26.0018 12.9624 26.0018C6.06269 26.0018 0.479736 20.3561 0.479736 13.4056C0.479736 6.43713 6.06269 0.797409 12.9624 0.797409C19.8562 0.797409 25.4452 6.43713 25.4452 13.4056Z" fill="#3D79BD"/>
</g>
<path fill-rule="evenodd" clip-rule="evenodd" d="M6 18.5672C7.19239 18.6444 8.35483 18.4603 9.43937 17.9733C9.9307 17.7654 10.3741 17.504 10.8235 17.1595C10.3022 17.1417 9.82884 17.0229 9.39143 16.8031C8.65442 16.4408 8.13313 15.8468 7.82155 15.0628C7.74964 14.8905 7.74964 14.8905 7.94138 14.9024C8.46867 14.9499 8.85815 14.938 9.15175 14.8193C8.87013 14.7242 8.6005 14.6708 8.3728 14.5163C7.27628 13.9224 6.68907 12.9839 6.5932 11.7365C6.58122 11.588 6.62316 11.5702 6.75498 11.6356C7.13847 11.8434 7.56389 11.9444 8.04924 11.9919C7.83952 11.7959 7.65377 11.6474 7.49199 11.4871C6.58122 10.5129 6.36551 8.96267 6.97069 7.78066C7.05458 7.62028 7.08454 7.62028 7.19239 7.74502C8.73232 9.50318 10.6437 10.5664 12.9506 10.9287C13.1843 10.9762 13.442 10.9822 13.6816 11.0178C13.8494 11.0475 13.8614 10.9762 13.8434 10.8456C13.6038 9.47348 14.2509 8.11328 15.4792 7.42427C16.7315 6.69962 18.3613 6.93127 19.362 7.90539C19.4818 8.00637 19.5957 8.03607 19.7275 7.99449C20.3507 7.85787 20.9259 7.62622 21.4712 7.31736C21.5191 7.30548 21.555 7.28172 21.609 7.2342C21.3753 8.00637 20.9079 8.57064 20.2188 9.03988C20.854 8.97455 21.4292 8.79041 21.9984 8.57064C22.0104 8.6538 21.9505 8.70132 21.9146 8.76665C21.5311 9.28935 21.0817 9.75859 20.5484 10.1506C20.4465 10.2338 20.4226 10.2872 20.4226 10.4179C20.4645 12.8116 19.6915 14.9499 18.1456 16.8031C16.6956 18.496 14.8441 19.5116 12.6331 19.874C10.2962 20.2304 8.09717 19.8383 6.0719 18.6029C6.04794 18.585 6.01798 18.5672 6 18.5672Z" fill="white"/>
</svg>
