<svg width="16" height="16" viewBox="0 0 16 16" fill="none" xmlns="http://www.w3.org/2000/svg">
<path fill-rule="evenodd" clip-rule="evenodd" d="M8 2.05714C8.25234 2.05714 8.45714 2.26194 8.45714 2.51429V7.73577L12.5856 10.1214C12.8046 10.2475 12.8763 10.5241 12.7499 10.7429C12.6238 10.9616 12.3474 11.0334 12.1285 10.9072C10.6775 10.0697 9.2192 9.22789 7.77143 8.39291C7.63497 8.31383 7.54286 8.16914 7.54286 8V2.51429C7.54286 2.26194 7.74766 2.05714 8 2.05714ZM8 0C3.58171 0 0 3.58171 0 8C0 12.4183 3.58171 16 8 16C12.4183 16 16 12.4183 16 8C16 3.58171 12.4183 0 8 0Z" fill="#0079C8"/>
</svg>
