<svg width="40" height="52" viewBox="0 0 40 52" fill="none" xmlns="http://www.w3.org/2000/svg">
<path fill-rule="evenodd" clip-rule="evenodd" d="M39.681 25.5582C39.4621 23.9192 39.0368 22.3144 38.4155 20.7821C36.6053 16.2538 33.157 12.5728 28.7564 10.4716L29.8488 7.93433C30.5478 8.17875 31.2814 8.30975 32.0218 8.32239C33.3173 8.32239 34.3262 7.84478 34.6903 6.95523C35.2873 5.52836 33.8187 3.64776 31.401 2.66866C30.3497 2.2754 29.2238 2.1224 28.1057 2.2209L28.834 1.09254C28.9669 0.91576 28.9913 0.679952 28.8972 0.479755C28.8031 0.279557 28.6061 0.147787 28.3851 0.137328C28.1642 0.126869 27.9556 0.239437 27.843 0.429852L25.9028 3.34329L28.8161 5.28358C28.9122 5.35092 29.027 5.38642 29.1444 5.38508C29.4073 5.38567 29.6397 5.21418 29.7166 4.96276C29.7935 4.71134 29.6969 4.43919 29.4787 4.29254L28.1415 3.40299C29.0923 3.31084 30.0515 3.43535 30.9473 3.76717C32.78 4.50746 33.8426 5.81493 33.568 6.49552C33.2934 7.17612 31.9263 7.32537 30.3085 6.81791L30.8159 5.62388C30.9091 5.42588 30.8864 5.1928 30.7569 5.01642C30.6275 4.84005 30.4119 4.74865 30.1951 4.77822C29.9783 4.80779 29.795 4.9536 29.7175 5.15821L29.2041 6.35224C28.825 6.16349 28.4669 5.93537 28.1355 5.67164C28.0114 5.57215 27.8528 5.52629 27.6948 5.54422C27.5368 5.56215 27.3924 5.6424 27.2938 5.76717C27.0906 6.0247 27.1333 6.39794 27.3893 6.60299C27.8044 6.93598 28.2548 7.22228 28.7325 7.45672L27.6639 9.98209C17.7267 5.76824 6.25527 10.4084 2.04169 20.3463C-2.17189 30.2841 2.46801 41.7563 12.4052 45.9701L10.3038 50.9134C10.1755 51.2168 10.3171 51.5667 10.6202 51.6955C10.6943 51.7256 10.7732 51.7418 10.8531 51.7433C11.1015 51.7373 11.3203 51.578 11.4023 51.3433L13.5096 46.3881C19.6103 48.6501 26.4362 47.7328 31.7233 43.9403H31.7651C37.5721 39.7261 40.6092 32.6732 39.681 25.5582ZM37.2931 21.2119C37.7305 22.3031 38.0662 23.4322 38.2961 24.5851L34.0396 22.794C34.2259 19.8807 33.6693 16.9677 32.4218 14.3284C34.5645 16.2115 36.2386 18.5685 37.311 21.2119H37.2931ZM15.9811 37.5164L8.26218 34.2269C8.19652 39.1522 9.80238 43.1761 12.8768 44.8239L15.9811 37.5164ZM27.1863 11.1164L24.0403 18.5373L16.2796 15.2478C19.0794 12.4299 22.2493 10.7881 25.085 10.7881C25.7984 10.7855 26.5077 10.8963 27.1863 11.1164ZM20.2375 27.4925L23.5687 19.6358L15.402 16.1731C13.484 18.3555 11.9134 20.8202 10.7456 23.4806L20.2375 27.4925ZM19.7719 28.591L16.4467 36.4179L8.32188 32.9552C8.54879 30.0844 9.21522 27.2655 10.2979 24.597L19.7719 28.591ZM13.9797 45.2969L13.9752 45.3075V45.2955L13.9797 45.2969ZM13.9797 45.2969L17.0795 37.994L24.7925 41.2776C21.3017 44.7209 17.3159 46.3567 13.9797 45.2969ZM17.5571 36.8955L20.8942 29.0567L30.3682 33.0687C29.1856 35.7199 27.6009 38.1726 25.67 40.3403L17.5571 36.8955ZM24.685 20.0836L21.3479 27.9403L30.804 31.9701C31.9074 29.2888 32.592 26.4536 32.8337 23.5642L24.685 20.0836ZM25.1506 18.9851L28.2848 11.5821C31.389 13.2418 32.9949 17.3194 32.8994 22.2925L25.1506 18.9851ZM22.8045 9.88657C19.6298 9.44308 16.3942 9.85529 13.432 11.0806C12.3379 11.5178 11.2867 12.0554 10.2919 12.6866L15.1155 14.7284C17.5153 12.2388 20.1957 10.5433 22.8045 9.88657ZM9.14571 13.5224L14.2618 15.6896C12.3739 17.8881 10.8227 20.3548 9.65911 23.009L3.62965 20.4597C4.87167 17.7299 6.766 15.3475 9.14571 13.5224ZM9.20541 24.1134L3.17595 21.5582H3.16998C2.10102 24.3416 1.73402 27.3455 2.10139 30.3045L7.18166 32.4716C7.4391 29.6008 8.12111 26.784 9.20541 24.1134ZM3.30728 34.9552C2.88358 33.9024 2.5559 32.8134 2.32824 31.7015L7.10405 33.7373C6.99659 37.1463 7.64133 40.203 8.96661 42.5075C6.44627 40.5327 4.49197 37.9275 3.30131 34.9552H3.30728ZM18.7988 46.3821C21.6561 46.6186 24.529 46.181 27.1863 45.1045L27.1744 45.0925C28.2206 44.6709 29.2275 44.1575 30.1831 43.5582L25.9625 41.7672C24.0029 43.8861 21.5383 45.4738 18.7988 46.3821ZM31.3652 42.7582L31.3322 42.7442C33.744 40.9525 35.6732 38.59 36.9469 35.8687L31.4726 33.5463C30.3 36.1919 28.7408 38.6486 26.8461 40.8358L31.3322 42.7442L31.3293 42.7463L31.3652 42.7582ZM31.9084 32.4358L37.3827 34.7582C38.4842 31.9684 38.876 28.9487 38.5229 25.9701L33.9799 24.0418C33.7053 26.9263 33.0073 29.7547 31.9084 32.4358Z" fill="#3D79BD"/>
</svg>
