<svg width="18" height="20" viewBox="0 0 18 20" fill="none" xmlns="http://www.w3.org/2000/svg">
<path fill-rule="evenodd" clip-rule="evenodd" d="M11.8912 19.0469C12.5381 19.6875 13.2975 20 14.2137 20L14.2131 19.9988C15.1231 19.9988 15.8731 19.6906 16.5119 19.0556C17.1462 18.4213 17.455 17.6769 17.455 16.7825C17.455 15.89 17.1331 15.1181 16.4981 14.4875C15.8538 13.8531 15.1075 13.5444 14.2113 13.5444C14.17 13.5425 14.1294 13.5425 14.09 13.5425C13.2281 13.5425 12.51 13.8413 11.8925 14.4544C11.7774 14.5677 11.6829 14.6906 11.5809 14.8233L11.5763 14.8294L11.5081 14.9175L6.00437 11.74L6.07062 11.6287C6.37313 11.1325 6.52563 10.5819 6.52563 9.99187C6.52563 9.46875 6.40688 8.98625 6.1625 8.5175L6.10563 8.41L11.645 5.2125L11.7131 5.2925C11.7336 5.31599 11.7525 5.33948 11.7714 5.36297L11.7714 5.363L11.7856 5.38062C11.8188 5.42375 11.8519 5.46625 11.8931 5.50562C12.54 6.14625 13.2994 6.45875 14.2156 6.45875C15.1237 6.45875 15.8763 6.15063 16.5106 5.51562C17.145 4.88062 17.4538 4.13625 17.4538 3.24187C17.4538 2.34938 17.1319 1.5775 16.4969 0.946875C15.8525 0.310625 15.1062 0.001875 14.21 0.001875C14.1706 0 14.13 0 14.0906 0C13.2294 0 12.5106 0.29875 11.8894 0.908125C11.2487 1.53875 10.9244 2.30625 10.9244 3.18937C10.9244 3.48812 10.9713 3.785 11.0706 4.125L11.0981 4.22062L5.3675 7.52938L5.29938 7.47437C4.70188 6.98625 4.04375 6.75 3.28187 6.75C3.2425 6.74813 3.20187 6.74813 3.1625 6.74813C2.30125 6.74813 1.58187 7.04688 0.965 7.66C0.324375 8.29313 0 9.05875 0 9.94125C0 10.8438 0.324375 11.6213 0.965 12.2537C1.61188 12.8944 2.37125 13.2069 3.2875 13.2069C3.97875 13.2069 4.60375 13.0138 5.14313 12.6287L5.20937 12.5819L11.0256 15.9412L11.0063 16.0312C10.9519 16.2775 10.9263 16.5075 10.9263 16.7344C10.9263 17.6369 11.2506 18.4144 11.8912 19.0469ZM12.7431 15.2775C13.1475 14.8769 13.6431 14.6737 14.2137 14.6737C14.7719 14.6737 15.2625 14.8769 15.6706 15.2775C16.0712 15.6819 16.2744 16.1719 16.2744 16.7344C16.2744 17.3025 16.0712 17.7925 15.6706 18.1931C15.2706 18.5912 14.78 18.7925 14.2137 18.7925C13.64 18.7925 13.1494 18.5912 12.7569 18.195C12.3544 17.8025 12.1512 17.3106 12.1512 16.7381C12.1375 16.17 12.3369 15.68 12.7431 15.2775ZM3.28813 7.88312C2.71812 7.88312 2.22187 8.08625 1.8175 8.48687C1.41125 8.88937 1.21188 9.37937 1.22563 9.94812C1.22563 10.5206 1.42875 11.0125 1.83125 11.405C2.22375 11.8012 2.71375 12.0025 3.28813 12.0025C3.8525 12.0025 4.345 11.8012 4.745 11.4031C5.14563 11.0025 5.34875 10.5106 5.34875 9.94438C5.34875 9.38188 5.14563 8.89188 4.745 8.4875C4.33687 8.08687 3.84625 7.88375 3.28813 7.88375V7.88312ZM12.7431 1.73438C13.1475 1.33375 13.6431 1.13063 14.2137 1.13063V1.13125C14.7719 1.13125 15.2625 1.33438 15.6706 1.73688C16.0712 2.14125 16.2744 2.63125 16.2744 3.19375C16.2744 3.76 16.0712 4.25187 15.6706 4.6525C15.2706 5.05062 14.7781 5.25187 14.2137 5.25187C13.64 5.25187 13.1494 5.05062 12.7569 4.65438C12.3544 4.26188 12.1512 3.77 12.1512 3.1975C12.1375 2.62875 12.3369 2.13687 12.7431 1.73438Z" fill="#4A4A4A"/>
</svg>
